<svg version="1.1" id="Layer_1_merge" xmlns="http://www.w3.org/2000/svg" xmlns:xlink="http://www.w3.org/1999/xlink" x="0px" y="0px"
	 viewBox="0 0 112 112" style="enable-background:new 0 0 112 112;" xml:space="preserve">
<style type="text/css">
	.st0{fill:#F3DA93;}
	.st1{fill:#222829;}
</style>
<path class="st0 accent-color yellow-color" d="M87.4,65.6C87.3,65.6,87.3,65.6,87.4,65.6c0,1.1-0.1,2.1-0.3,3.2H87c-0.1,0.1,0,0.4-0.1,0.7c0,0,0,0.1,0,0.3
	c0.1,0.1,0.1,0.4-0.1,0.5l0,0c-0.1,0,0-0.1-0.1-0.3c-0.3,0.1,0,0.4,0,0.5s-0.1,0-0.3,0.1c0,0.1,0.1,0,0.1,0.1c0.1,0.8,0,0.8-0.1,1.5
	c0.1,0.3,0.3,0.1,0.5,0.3c-0.4,0.1,0.1,0.5-0.3,0.7c-0.1,0-0.3-0.3-0.4-0.4c0,0.1-0.1,0.4,0.1,0.5c0.1,0.1,0.3,0.4,0.1,0.7l0,0
	c0,0.1,0,0.1,0,0.3l0.3,0.1c0,0,0,0.1-0.1,0.1s-0.3,0-0.4,0s-0.3,0.1-0.1,0.3c0.1,0.1-0.1,0.3,0,0.3c0,0-0.1,0-0.1,0.1
	c-0.1,0.1,0.3,0.3,0,0.4c-0.1,0-0.1,0.1-0.1,0.3c0.3,0.5,0,0.8-0.4,1.1l0,0v0.1l-0.1-0.4c0-0.3,0.4-0.1,0.4-0.4
	c0-0.1-0.1-0.3-0.3-0.4c-0.3,0-0.1,0.3-0.1,0.4c-0.1,0.1-0.1,0.3-0.1,0.5s0,0.4,0,0.7c-0.3,0-0.5,0.1-0.7,0.4c0,0.3,0.3,0.3,0.4,0.4
	c-0.1,0.1-0.4,0-0.7-0.3c-0.4,0.3,0,0.5-0.1,0.8c-0.1,0.1-0.3,0-0.4,0.1c0,0.3,0.3,0.3,0.3,0.4c0,0.1,0,0.4-0.1,0.5
	c0,0.1,0.3,0,0.3,0.3c-0.1,0.1-0.3,0-0.3,0c-0.3,0.1-0.1,0.4-0.4,0.5c0.1,0.1,0.3,0.3,0.4,0.3c-0.1,0.3,0.4,0.7-0.1,1
	c-0.1,0,0-0.4-0.3-0.3c-0.1,0.1,0.1,0.3,0.1,0.5c0,0.1-0.1,0.4-0.1,0.5c-0.1,0-0.1-0.3-0.3-0.1c0,0.1,0,0.1,0,0.3
	c0.1,0.1,0.1,0.3,0,0.3c-0.3,0.3-0.3,0.5-0.4,0.8s-0.1,0.5-0.5,0.7c0,0,0,0,0,0.1c0,0.3-0.1,0.4-0.3,0.5c0,0.1-0.3,0.3-0.3,0.4
	c0,0.3-0.4,0.3-0.4,0.4c0,0.3-0.4,0.1-0.3,0.4c-0.3,0-0.3,0.3-0.5,0.4v0.5c-0.1,0.1-0.4,0.1-0.5,0.1c-0.1,0.1,0,0.3-0.1,0.4
	l-0.3,0.1v0.4L79.1,89c0,0.1,0.3,0.3,0,0.5c0,0,0-0.1-0.1-0.1c0,0.1-0.3,0.3,0,0.5c-0.1,0.1-0.5-0.1-0.7,0.3v0.5
	c-0.4,0.3-0.7,0.5-1.1,0.8c0,0.1,0.1,0,0.3,0.1c0,0.1-0.3,0.1-0.3,0.4c0,0.3-0.1,0.1-0.3,0.3c-0.1,0.1-0.3,0.3-0.4,0.3V93l-0.1,0.1
	h-0.1c-0.1,0.1,0,0.3-0.1,0.5c-0.1,0.1-0.4,0.1-0.4,0.4l-0.3,0.1c-0.3,0.3-0.5,0.5-0.8,0.8c-0.1,0.1-0.3,0.3-0.4,0.4
	c-0.1,0.1-0.3,0.3-0.4,0.5c-0.1,0.1-0.4,0.1-0.4,0.4c0,0.1-0.1,0-0.1,0.1c0.1-0.4,0-0.4-0.1-0.3c-0.1,0.3-0.5,0.4-0.7,0.7
	c-0.1,0.3-0.4,0.4-0.7,0.5c-0.3,0.1-0.3,0.4-0.5,0.4c-0.3,0.3-0.7,0.4-1,0.8c-0.1,0.1-0.3,0.3-0.4,0.3s-0.1,0.3-0.3,0.1
	c-0.1,0.1-0.1,0.4-0.4,0.4c0,0,0,0.1-0.1,0.3c-0.3,0.1-0.5,0.4-0.8,0.5c-0.1,0-0.1,0.1-0.3,0.1c-0.4,0.5-1.1,0.7-1.6,1.1l-0.1,0.1
	c-0.4,0.1-0.8,0.3-1.2,0.5c-0.4,0.3-0.7,0.4-1.1,0.5c-0.3,0.1-0.4,0.3-0.5,0.4c-0.3,0-0.5,0.3-0.7,0.4l-0.3-0.1
	c-0.1,0.4-0.4,0.5-0.8,0.5c-0.1,0-0.3,0.1-0.3,0.1c-0.7,0.4-1.4,0.7-2.1,0.8c-0.1,0-0.1,0.1-0.1,0.1c-0.3,0.1-0.7,0.3-1.1,0.3
	c-0.3,0-1.2,0.3-1.6,0.4c-0.7,0.4-1.4,0.7-2.2,1.1c-0.5,0.3-1.1,0.4-1.6,0.7c-0.5,0.1-1.1,0.4-1.6,0.7c-0.3-0.3-0.5,0-0.8,0
	s-0.3,0.4-0.5,0.5c-0.1,0.1-0.3-0.1-0.4-0.1c-0.1,0.1,0,0.3-0.1,0.4c-0.1,0.1-0.1,0-0.3,0c0,0,0,0-0.1,0c-0.1,0.1-0.3,0.3-0.5,0.3
	c-0.1,0-0.3,0.1-0.4,0.1c-0.1,0.1-0.3,0.1-0.4,0c0,0.1-0.1,0.3-0.5,0.3c-0.1,0-0.3,0.3-0.5,0.3c-0.1,0.1-0.3,0.1-0.4,0.1
	c-0.3-0.1-0.1,0.3-0.3,0.3c-0.5,0-1.1,0.3-1.6,0.4c-0.3,0-0.7,0-1,0.3c-0.1,0.1-0.1-0.1-0.3-0.1l-0.3,0.1c-0.1,0-0.4,0.1-0.5-0.1
	c-0.1-0.1-0.1,0-0.1,0c-0.4,0.3-1,0.3-1.4,0.4c-0.4,0.1-0.7,0-1,0.1c-0.5,0.1-1.1,0-1.5,0.3c-0.4,0-0.8,0.1-1.2-0.1
	c-0.1-0.1-0.4,0-0.7,0c-0.8-0.1-1.6-0.3-2.5-0.7c-0.4-0.1-0.7-0.4-1.1-0.5c-0.4-0.1-0.7-0.4-1.1-0.4c-0.3-0.1-0.5-0.4-1-0.5
	c-0.5-0.3-1-0.7-1.5-0.8c-0.1,0-0.1-0.1-0.3-0.1c-0.3-0.3-0.7-0.3-1-0.5c-0.3-0.1-0.7-0.4-1-0.5c-0.3-0.3-0.8-0.5-1.1-1
	c-0.1-0.3-0.4-0.4-0.5-0.7c-0.1-0.3-0.3-0.4-0.5-0.5c-0.1-0.1-0.1-0.3-0.3-0.4c-0.3-0.4-0.7-0.7-1.1-1.1c-0.1-0.1-0.4-0.4-0.5-0.5
	c-0.1-0.1-0.4-0.3-0.5-0.5c-0.7-0.8-1.6-1.6-2.1-2.7c-0.1-0.1-0.3-0.1-0.4-0.3c0-0.1-0.1-0.3-0.3-0.4c-0.4-0.5-0.8-1.2-1.1-1.8
	c-0.1-0.1-0.3-0.3-0.1-0.5c0-0.1-0.1-0.3-0.1-0.3c-0.3-0.4-0.4-0.8-0.4-1.2c0-0.1-0.1-0.4-0.1-0.5v-0.5c0.1-0.4-0.1-0.7-0.3-1
	c-0.3-0.3-0.4-0.7-0.5-1.1c-0.3-0.3-0.4-0.5-0.7-1c-0.3-0.4-0.4-1-0.7-1.5c-0.4-0.8-0.7-1.8-1-2.7c-0.1-0.5-0.3-1-0.4-1.5
	c-0.3-0.5-0.4-1.1-0.5-1.6c-0.3-0.1,0-0.4-0.1-0.7c-0.1-0.1-0.1-0.4-0.3-0.5c-0.1-0.5-0.3-1.1-0.4-1.6c0-0.1,0-0.1,0-0.1
	c0-0.1,0-0.1,0-0.3c-0.1-0.1-0.3-0.3-0.1-0.4c0-0.1-0.1-0.3-0.1-0.5c-0.3-0.7,0-1.4-0.4-2.1l0,0c0.1-0.8-0.1-1.6-0.1-2.5
	c0-0.1,0.1-0.3,0.1-0.3c-0.1-0.1-0.1-0.3-0.1-0.4s0-0.3-0.1-0.3c-0.1-0.1,0.1-0.1,0-0.3c-0.1-0.1,0-0.3,0-0.4c0-0.5,0-1.1,0-1.8
	c0-0.1,0.1-0.4,0-0.5c0.1-0.1,0.1-0.4,0.1-0.5c0-0.3,0-0.5,0-0.7c0.1-0.3,0.1-0.5,0.1-0.8s0.1-0.5,0.1-0.8c0-0.1,0-0.1,0.1-0.3
	c0.1-0.4,0.3-0.8,0.3-1.2c0.1-0.7,0.3-1.4,0.5-2.1c0.1-0.4,0.4-0.8,0.5-1.2c0.4-0.8,1-1.6,1.5-2.3c0.3-0.4,0.7-0.8,1-1.4
	c0.4-0.4,0.7-1,1.1-1.4c0.3-0.4,0.7-0.7,1-1.1c0.1-0.1,0.3-0.3,0.4-0.3L18,56.9c0.1-0.1,0.3-0.4,0.5-0.4s0.1-0.3,0.4-0.4
	c0.8-0.3,1.1-1,1.6-1.1c0.1-0.3,0.3-0.4,0.5-0.5c0-0.3,0.4-0.1,0.4-0.4c0.1,0,0,0,0-0.1c0.3-0.1,0.4-0.4,0.5-0.5
	c0.3-0.1,0.4-0.4,0.7-0.5c0.3-0.1,0.4-0.4,0.7-0.7h0.4v-0.3c0.3-0.1,0.7-0.1,0.8-0.4c0.1-0.3,0.5-0.3,0.8-0.5
	c0.1-0.1,0.4-0.3,0.5-0.4c0.1,0,0.3,0,0.4,0c0.4-0.4,1-0.8,1.5-1c0.5-0.4,1.2-0.5,1.6-1c0.1-0.1,0.3-0.1,0.5-0.1
	c0.8-0.4,1.5-0.8,2.3-1.2c0.5-0.4,1.2-0.7,1.8-1c0.4-0.1,0.7-0.4,1.1-0.7c0.7-0.5,1.4-1.2,2.1-1.8s1.4-1.2,2.1-1.8
	c1.1-0.8,1.9-1.9,3-2.9c0.7-0.7,1.2-1.4,1.9-2.1c0.5-0.5,1.1-1.2,1.6-1.9c0.7-0.8,1.4-1.6,2.1-2.6c0.8-1,1.5-2.1,2.2-3
	s1.2-2.1,1.8-3c0.5-0.8,1.1-1.8,1.6-2.6c0.4-0.7,0.8-1.2,1.2-1.9c0.5-0.8,1.1-1.6,1.6-2.3c0.3-0.3,0.4-0.7,0.7-1
	c0.1-0.1,0.3-0.3,0.4-0.4s0.1-0.3,0.3-0.4c0.4-0.5,0.8-1.1,1.2-1.5c0.5-0.5,1-1.2,1.5-1.8c0.1-0.1,0.3-0.3,0.4-0.4
	c0.1-0.1,0.3-0.4,0.4-0.4c0.1-0.1,0.1-0.4,0.4-0.4c0.1,0,0.1-0.3,0.3-0.4c0.3-0.4,0.7-0.5,1-0.8c0.3-0.3,0.5-0.7,1-1
	c0.5-0.4,1.1-1,1.6-1.4c0.5-0.4,1-1,1.6-1.2c0.1,0,0-0.3,0.3-0.3c1-0.7,1.8-1.2,2.7-1.9c0.4-0.3,0.8-0.4,1.2-0.7
	c0.5-0.3,1-0.7,1.5-0.8c0.8,0,1.4-0.5,2.1-0.7c0.3-0.3,0.7-0.3,0.8-0.5c0.1-0.1,0.1,0,0.3,0.1c0.5-0.3,1-0.5,1.6-0.8
	s1.4-0.5,2.1-0.8c1.1-0.4,2.2-0.7,3.3-1c0.4-0.1,1-0.1,1.4-0.3c0.4,0,0.8-0.3,1.2-0.3l0.1-0.1c0.5,0.1,1-0.3,1.5-0.1
	c0.4,0.1,0.7-0.1,1.1-0.1c0.4,0,0.7,0,1.1,0c0.8-0.1,1.6,0,2.3,0c0.5,0,1,0,1.5,0.1c0.8,0.1,1.5,0.3,2.3,0.5c1,0.4,1.9,1,2.7,1.5
	c0.7,0.5,1.2,1.2,1.6,1.9c0.3,0.4,0.5,1,0.7,1.5c0.1,0.4,0.1,0.8,0.3,1.2c0.1,0.5,0.1,1.2,0.4,1.8c0.1,0.3,0.1,0.7,0.1,1.1
	c0.1,1.5,0.1,2.9,0.1,4.4c0,0.3-0.1,0.5-0.1,0.8c0,0.3,0,0.5,0,0.8c-0.1,0.3,0,0.7-0.1,1c0,0.3-0.1,0.7-0.1,1
	c-0.1,0.7-0.4,1.4-0.4,2.1c-0.5,1.1-0.7,2.2-1.1,3.3c-0.4,0.8-0.7,1.6-1,2.3c-0.3,0.7-0.5,1.2-0.8,1.8c-0.1,0.3-0.4,0.4-0.4,0.7
	c-0.1,0.3-0.1,0.5-0.3,0.7c0,0.1-0.3,0.3-0.4,0.4c0.1,0.4-0.3,0.5-0.4,1c0,0.3-0.3,0.7-0.4,1c-0.1,0.3-0.4,0.7-0.5,1
	c-0.1,0.3-0.3,0.7-0.5,1c-0.1,0.3-0.3,0.7-0.4,1c-0.1,0.3-0.4,0.7-0.5,1s-0.3,0.7-0.4,1c-0.1,0.3-0.3,0.5-0.4,1c0.1,0.1,0.1,0,0.3,0
	c0.1,0.1,0,0.3-0.1,0.3c-0.1,0.1,0,0.3-0.1,0.4c-0.1,0.1-0.1,0.3-0.1,0.4S93,38.1,93,38.2s0,0.3-0.3,0.3c-0.1,0.1,0,0.3,0,0.4
	c-0.1,0-0.3,0.1-0.3,0.4c0-0.1-0.1-0.3-0.1-0.3c-0.1,0.1-0.3,0.3-0.3,0.5c0,0,0,0,0,0.1c0.1,0.3,0,0.4,0,0.5c0,0.1,0.4,0.1,0.3,0.3
	c-0.3,0.1-0.7,0.1-0.7,0.5c-0.4,0.3-0.3,0.7-0.4,1c-0.1,0.3-0.1,0.7-0.4,1.1c-0.1,0.1,0,0.4-0.1,0.5c-0.1,0.3-0.1,0.5-0.3,0.8
	c-0.1,0.1-0.1,0.4-0.1,0.7c0,0.1,0,0.4,0,0.5h-0.1c0.1,0.3,0,0.5-0.1,0.8c-0.1,0.3-0.1,0.5-0.4,0.8c-0.1,0.1-0.1,0.4,0,0.5
	s-0.1,0.3,0,0.4c-0.3,0.1,0,0.5-0.3,0.7c-0.1,0-0.1,0.3-0.3,0.4c0.1,0,0.1,0.3,0.3,0.4c-0.1,0.4-0.1,0.4-0.4,0.5
	c0.1,0.3,0.3,0.5,0,0.7c-0.1,0.1,0,0.4-0.1,0.7l0.1,0.1c-0.1,0.1,0,0.4-0.1,0.5c-0.1,0.1,0,0.4-0.1,0.5c0,0.1,0.1,0.4,0,0.5
	s0,0.4-0.1,0.7c-0.1,0.1,0.1,0.1,0,0.3c-0.1,0.1,0.1,0.3,0,0.4c-0.1,0.1,0,0.4,0,0.5c0,0.1,0,0.3,0,0.5c0.1,0,0.1,0,0.1,0
	s0,0.1,0.1,0.1c0,0.1-0.1,0.3-0.1,0.5c0,0.1,0,0.3,0,0.5c-0.1,0.1,0.1,0.3,0.1,0.4c0,0.1-0.1,0.1-0.1,0.3c0.1,0.7-0.3,1.5-0.1,2.2
	c-0.1,0.1-0.1,0-0.1,0l0,0c0,0.7-0.3,1.4-0.1,2.1c0,0.1-0.1,0.3,0,0.5c0.1,0.1-0.1,0.3,0,0.4c-0.1,0.1-0.1,0.4-0.1,0.5
	c0,0.1,0,0.4,0,0.5c0,0.3,0,0.4,0,0.7s-0.4,0.4,0,0.5C87.8,65.7,88,66,88,66.1c0,0.3,0,0.4,0,0.7s0,0.4,0,0.7c0,0.4-0.1,0.7-0.1,1.1
	c0,0.3-0.3,0.5-0.1,1h-0.1C87.3,68,87.5,66.8,87.4,65.6z M12.2,69.3c-0.1,0.1-0.4,0.3-0.1,0.5c-0.3,0.1,0,0.1,0,0.3S12,70.2,12,70.4
	c0,0.3-0.3,0.4,0,0.7c0.1,0.1-0.3,0.3-0.1,0.4c0.1,0.1,0.1,0.3,0,0.4c-0.1,0.1,0,0.3-0.1,0.4c0.3,0.4,0,0.8,0.1,1.1
	c0,0.1,0,0.4,0.1,0.5c-0.1,0.1-0.1,0.4-0.1,0.7c0.3,0.3,0,0.4,0,0.7c0.1,0.3,0.1,0.5,0.1,0.8c0,0.1,0,0.4,0,0.5c0,0.3,0,0.4,0,0.7
	c0,0.1,0.3,0.3,0,0.4c0.1,0.1,0.1,0.4,0.1,0.5s0,0.4,0,0.5c0,0.3,0,0.5,0.1,0.8c0.1,0.3,0.3,0.7,0.1,1c0,0.1,0,0.1,0.1,0.3
	c0.1,0.3,0.1,0.4,0.1,0.7s0,0.5,0.1,0.7c0.1,0.3,0,0.5,0.1,0.8c0.1,0.3,0.3,0.7,0.3,1c0.1,0.7,0.5,1.4,0.5,2.1
	c0,0.1,0.3,0.1,0.3,0.3c0.1,0.7,0.3,1.2,0.5,1.9c0-0.3,0.1-0.5-0.1-0.7c-0.1-0.1-0.1-0.1-0.1-0.3s0-0.3,0-0.4
	c-0.3-0.5-0.4-1.2-0.7-1.8c-0.1-0.3,0-0.5-0.1-0.7c-0.3-0.5-0.4-1-0.5-1.5c-0.1-0.4-0.3-0.8-0.3-1.4c-0.1-0.4-0.3-1-0.1-1.4v-0.1
	c-0.3-0.3-0.1-0.5-0.1-0.7c0-0.3-0.1-0.4-0.1-0.7s0-0.7-0.1-1c-0.1-0.5,0-1.1-0.1-1.6c0-0.4,0-0.7,0-1.1c0-0.1-0.1-0.4,0-0.5
	c0.1-0.3,0-0.3-0.1-0.5c0-0.1,0-0.1,0.1-0.1c0.1-0.1,0.1-0.1,0-0.3s-0.1-0.3-0.1-0.4s0-0.4,0.1-0.5c-0.3-0.1,0-0.4-0.1-0.7
	c0-0.3,0.1-0.5,0-0.7C12.5,70.4,12.2,69.8,12.2,69.3z M60.8,15c-0.1,0.3-0.3,0.7-0.5,0.8c-0.7,0.4-1,1.4-1.6,1.8
	c0,0.4-0.4,0.7-0.7,1c-0.3,0.4-0.7,1-1,1.4c-0.3,0.4-0.5,0.8-0.8,1.2c-0.3,0.4-0.5,0.8-0.8,1.2c-0.4,0.5-0.7,1.1-1,1.5
	c-0.3,0.3-0.5,0.7-0.7,1.1l-0.1,0.1c-0.3,0.4-0.7,0.8-0.8,1.2c-0.5,0.8-1,1.6-1.5,2.5c0,0.1-0.3,0.3-0.1,0.4
	c0.1-0.1,0.3-0.1,0.3-0.3c0.3-0.7,0.8-1.2,1.2-1.9c0.3-0.5,0.5-1,0.8-1.5c0.4-0.7,1-1.4,1.4-2.1c0.3-0.4,0.5-0.8,0.8-1.4
	c0.4-0.8,1.1-1.5,1.5-2.3c0.4-0.7,0.8-1.2,1.2-1.8c0.4-0.5,0.8-1.1,1.4-1.6c0.1-0.1,0.3-0.3,0.3-0.4c0-0.1,0.4-0.1,0.4-0.4
	c0.3-0.3,0.5-0.7,0.8-1c0,0,0,0,0-0.1C60.9,15,60.9,15,60.8,15z M18.5,65.8c-0.1,0-0.1,0.1-0.1,0.1c0,0.4-0.1,0.7-0.1,1
	c0,0.8,0,1.6,0,2.5c0,0.7,0,1.2,0,1.8s0,1.2,0.1,1.8s0,1,0.1,1.5s0,1.1,0.1,1.6c0.1,0.4,0.1,0.8,0,1.2c0,0.4,0.1,0.8,0.1,1.2
	c0,0.7,0.3,1.4,0.4,2.1c0.1-0.3-0.1-0.5-0.1-0.8c0-0.4,0-0.7-0.1-1.1c-0.1-0.5,0-1-0.1-1.5c-0.1-0.5,0-1.1-0.1-1.8
	c-0.1-0.4,0-0.8-0.1-1.2c-0.1-0.3-0.1-0.7,0-1c0-0.4-0.1-0.7-0.1-1c0-1.9,0-3.8,0-5.8C18.4,66.5,18.7,66.2,18.5,65.8L18.5,65.8z
	 M76.9,88.5c0,0.1,0.1,0.1,0.1,0.3c-0.1,0.1-0.3,0.4-0.5,0.4c-0.1,0-0.1,0-0.1,0.1c0,0.3-0.1,0.3-0.3,0.4c0,0.3-0.3,0.3-0.3,0.4
	c-0.1,0.1-0.3,0.3-0.4,0.3c-0.1,0-0.1,0.3-0.3,0.4c0,0.1-0.3,0.1-0.3,0.3c0,0.1,0.1,0.3-0.1,0.3c-0.1,0-0.1,0.1-0.1,0.3
	c-0.1,0.1-0.3,0-0.3,0.3c0,0.4-0.3,0.5-0.4,0.8c-0.1-0.1-0.1-0.1-0.3-0.3c-0.1,0.1,0,0.3,0,0.4c-0.1,0.1-0.4,0.1-0.5,0
	c0,0.4,0,0.5,0,0.7c-0.1,0.1-0.3,0.3-0.5,0.5c1-0.3,1.1-1.1,1.6-1.6c0,0.1,0.1,0.1,0.3,0.1c0-0.4,0.4-0.5,0.7-1L75,91.5
	c0.3-0.3,0.5-0.5,0.7-0.8c0.1-0.1,0.3-0.4,0.4-0.4c0.4,0,0.5-0.3,0.7-0.5c0-0.1,0.1-0.1,0.3-0.1c0,0,0,0,0-0.1
	c-0.1-0.1-0.3,0-0.3-0.1v-0.1c0.1-0.3,0.4-0.3,0.5-0.4c0.1-0.1,0.1-0.5,0.3-0.7l0,0c0.1,0,0.3,0.4,0.5,0.1l-0.5-0.3
	C77.3,88.1,77.2,88.5,76.9,88.5L76.9,88.5z M16.5,66.5c-0.3,0.7-0.3,1.4-0.3,2.1c0,1,0,1.9,0,2.9c0,1.4,0.1,2.6,0.1,3.8v0.1
	c0.1,0.3,0.1,0.4,0.1,0.7s0,0.5,0,1c0,0.3,0.1,0.5,0.1,0.8s0,0.5,0,1c0,0.3-0.1,0.7,0.1,1V80c-0.3,0.3,0,0.4,0,0.5
	c0.1,0.3,0.1,0.5,0.1,0.8c0,0,0,0,0.1,0.1c0.1,0,0.1,0,0.1-0.1c0.1-0.4-0.1-0.4-0.1-0.7c0-0.5,0-1.2-0.1-1.8c0-0.8-0.3-1.6-0.1-2.5
	v-0.1c-0.1-0.3-0.1-0.5-0.1-0.8s-0.1-0.5-0.1-0.8c0-1.1,0-2.3-0.1-3.4c-0.1-1.1,0-2.2,0-3.3c0-0.1,0-0.3,0-0.3
	C16.6,67.2,16.5,66.8,16.5,66.5z M14.8,81.2c0.3-0.3-0.1-0.4-0.1-0.7c0-1-0.3-2.1-0.1-3c0-0.1,0-0.3,0-0.3c-0.1-0.3-0.1-0.5-0.1-0.8
	c0-0.3-0.1-0.5-0.1-0.8c0-0.7,0-1.5,0-2.2c0-0.8-0.1-1.5-0.1-2.2c0-0.5,0-1.2,0-1.8c0-0.1,0-0.3-0.1-0.4c0.1,0.5-0.1,1.1-0.1,1.5
	s0,1,0,1.4s0.1,0.8,0.1,1.4c0,0.7-0.1,1.2,0.1,1.9c0.1,0.3,0,0.7,0,1c0,0.4,0,0.7,0.1,1.1c0.1,0.3,0,0.7,0,1c0,0.3-0.1,0.5,0,0.7
	c0.1,0.3,0,0.7,0.1,1c0.1,0.3,0.1,0.7,0.1,1C14.6,80.8,14.7,80.9,14.8,81.2z M63.1,16.7l-0.1-0.1c0.1-0.1,0.3-0.4,0.5-0.4
	c0-0.1,0-0.3,0-0.4c0-0.1,0.1-0.3,0.1-0.3c0.1-0.1,0.1,0.1,0.3,0.1c0.1-0.3,0.1-0.5,0.3-0.7c0.1,0,0,0.3,0.3,0.3
	c-0.1-0.3,0.3-0.3,0.3-0.5c-0.1,0-0.1-0.1-0.3-0.1c-0.1,0-0.1,0.1-0.3,0.1c0-0.1,0-0.1-0.1-0.3c0,0.1-0.3,0.3,0,0.4
	c-0.1,0.3-0.4,0.4-0.5,0.5c-0.1,0.1-0.4,0.4-0.5,0.5c-0.3,0.1-0.4,0.4-0.5,0.5c-0.1,0.3-0.3,0.4-0.5,0.7c-0.1,0.1-0.3,0.4-0.4,0.5
	c-0.1,0.1-0.3,0.4-0.4,0.7s-0.4,0.4-0.5,0.7c0.8-0.4,1.2-1.2,1.9-1.5c0-0.1,0-0.3,0-0.4L63.1,16.7z M72.5,70.4
	c0.3-0.1,0.4-0.4,0.4-0.7c0.3-0.7,0.4-1.2,0.7-1.9c0.4-0.8,0.7-1.6,1-2.6c0.1-0.4,0.4-1,0.3-1.5c-0.3,0.5-0.5,1-0.7,1.5
	c-0.3,0.8-0.5,1.5-1,2.3c-0.1,0.3-0.3,0.5-0.4,1s-0.1,0.7-0.3,1C72.7,69.8,72.4,70.1,72.5,70.4L72.5,70.4z M35.5,81.5
	c-0.1,0.1-0.1,0.1-0.3,0.3c-0.1,0.5-0.4,1.1-0.5,1.6c-0.1,0.5-0.3,1.1-0.4,1.5c-0.1,0.5-0.3,1-0.4,1.5c-0.1,0.7-0.3,1.4-0.4,2.1
	c0,0.4,0.3,0.7,0.1,1.1v0.1c0,0,0,0.1,0.1,0.1c0-0.4,0-0.8,0.1-1.4c0.1-0.7,0.1-1.4,0.3-2.1c0-0.3,0.1-0.5,0.1-0.8
	c0.1-0.3,0.1-0.5,0.1-0.8c0.3-0.7,0.4-1.5,0.7-2.2C35.3,82.2,35.5,81.9,35.5,81.5L35.5,81.5z"/>
<g>
	<g>
		<path class="st1 dark-color" d="M38.1,100.4h-2.7V85.3h-6.9c-5.4,0-9.6-4.3-9.6-9.6v-11H12v-4.3l6.9-17.9C19,26.1,32.5,12.6,49.1,12.6v2.7
			c-15.1,0-27.5,12.4-27.5,27.5v0.3L14.8,61v1.1h6.9v13.7c0,3.8,3,6.9,6.9,6.9h9.6V100.4z"/>
	</g>
	<g>
		<g>
			<rect x="36.7" y="82.6" class="st1 dark-color" width="4.1" height="2.7"/>
		</g>
	</g>
	<g>
		<g>
			<rect x="71.1" y="82.6" class="st1 dark-color" width="4.1" height="2.7"/>
		</g>
	</g>
	<g>
		<path class="st1 dark-color" d="M76.6,100.4h-2.7V82.6h9.6c3.8,0,6.9-3,6.9-6.9V62h6.9v-1.1L90.3,43v-0.3c0-15.1-12.4-27.5-27.5-27.5
			S35.4,27.6,35.4,42.7h-2.7c0-16.6,13.6-30.2,30.2-30.2S92.9,26,93.1,42.5l6.9,17.9v4.4h-6.9v11c0,5.4-4.3,9.6-9.6,9.6h-6.9V100.4z
			"/>
	</g>
	<g>
		<path class="st1 dark-color" d="M68.3,100.4h-2.7V83.9c0-6.9,2.6-12.5,5.4-18.3c2.7-6,5.6-12.2,5.6-20.2v-2.7h2.7v2.7c0,8.5-3,15-5.9,21.3
			c-2.6,5.6-5.1,10.9-5.1,17.2V100.4z"/>
	</g>
	<g>
		<g>
			<path class="st1 dark-color" d="M56,46.8c-0.4,0-0.7-0.1-1-0.4l-5.5-5.5l1.9-1.9l4.5,4.5l10-10l1.9,1.9l-11,11C56.7,46.7,56.2,46.8,56,46.8z
				"/>
		</g>
		<g>
			<rect x="58.7" y="29" class="st1 dark-color" width="2.7" height="2.7"/>
		</g>
		<g>
			<path class="st1 dark-color" d="M56,56.5c-7.6,0-13.7-6.2-13.7-13.7S48.4,29,56,29v2.7c-6,0-11,4.9-11,11s4.9,11,11,11s11-4.9,11-11h2.7
				C69.7,50.4,63.5,56.5,56,56.5z"/>
		</g>
	</g>
	<g>
		<rect x="32.6" y="45.5" class="st1 dark-color" width="2.7" height="2.7"/>
	</g>
	<g>
		<rect x="76.6" y="37.2" class="st1 dark-color" width="2.7" height="2.7"/>
	</g>
</g>
<g>
</g>
<g>
</g>
<g>
</g>
<g>
</g>
<g>
</g>
<g>
</g>
</svg>
