<svg version="1.1" id="Layer_1_accounting" xmlns="http://www.w3.org/2000/svg" xmlns:xlink="http://www.w3.org/1999/xlink" x="0px" y="0px"
	 viewBox="0 0 109.4 104.6" style="enable-background:new 0 0 109.4 104.6;" xml:space="preserve">
<style type="text/css">
	.st0{fill:#F4DB95;}
	.st1{fill:#363F40;}
</style>
<g id="Group_7839" transform="translate(-456.582 -1486.414)">
	<path id="scribbles-scribbles-40" class="st0 accent-color yellow-color" d="M496.8,1591c-19.6-0.3-33-11.4-38.5-28.9c-3.2-10.1-1.8-19.9,2.8-29.1
		c4.4-9.3,11.8-16.9,20.9-21.6c4-1.9,8.1-3.6,12.3-5c1.6-0.6,3.4-0.5,5,0.1c2.2,0.8,4.4,1.1,6.7,1c4.9-0.1,9.6,1.3,13.7,4
		c2.8,1.7,5.8,3.1,8.3,5.3c7.7,6.6,13.3,15.3,16.3,25c1.2,3.7,0.8,7.5,0.4,11.3c-0.2,2.2-1.1,4.3-1.4,6.4c-0.3,1.6-1.6,2.8-1.5,3.9
		c0.1,1.4-0.3,2.7-1.2,3.8c-6.2,10.7-15.8,16.7-27.2,20.5c-4,1.4-8.1,2.4-12.3,3.1C499.6,1590.9,498.2,1591,496.8,1591z
		 M472.6,1538.7c0.2-0.1,0.4-0.2,0.4-0.3c1.7-4.9,5.1-8.5,8.9-11.9c1.9-1.7,3.1-4,4.7-6.4C481.5,1521.7,472.8,1533.5,472.6,1538.7z
		 M528.6,1557l-10.2,13.1C524.9,1564.6,528.1,1560.4,528.6,1557L528.6,1557z M471.2,1521.8c3.7-3.1,7.9-5.6,11.3-9.1
		C478.3,1515.1,474.3,1517.8,471.2,1521.8L471.2,1521.8z M519,1555.5c-1.5,1.9-3.6,3.4-3.9,6C516.9,1559.8,518.5,1558,519,1555.5
		L519,1555.5z M483.7,1538.4c1.6-2.4,3.6-4.6,4.4-7.4C485.8,1532.9,484.8,1535.7,483.7,1538.4L483.7,1538.4z M530.9,1577l0.4,0.3
		c1.6-1.2,3-2.7,4.1-4.4c-0.7,0.6-1.5,1.3-2.1,2C532.5,1575.6,531.7,1576.3,530.9,1577L530.9,1577z M469.3,1523.6
		c-0.8,0.5-1.4,1.2-1.8,2.1c-0.1,0.2-0.2,0.5,0,0.6c0.2,0,0.3,0,0.5,0C468,1525.3,469.7,1525.2,469.3,1523.6L469.3,1523.6z"/>
	<g id="Group_4400" transform="translate(648.597 1506.193)">
		<g id="Group_4399" transform="translate(267 355)">
			<g id="Group_4398">
				<g id="Group_4369" transform="translate(5.694 77.362)">
					<rect id="Rectangle_2205" x="-438.6" y="-374.3" class="st1 dark-color" width="8" height="3"/>
				</g>
				<g id="Group_4370" transform="translate(13.876)">
					<path id="Path_17883" class="st1 dark-color" d="M-369-347h-2.8v-22.2c0-1.5-1.2-2.8-2.8-2.8h-63.8v-2.8h63.8c3.1,0,5.5,2.5,5.5,5.5V-347z
						"/>
				</g>
				<g id="Group_4371" transform="translate(47.179 30.527)">
					<path id="Path_17884" class="st1 dark-color" d="M-396.8-316.5h-41.6v-58.3h41.6V-316.5z M-435.6-319.3h36.1V-372h-36.1V-319.3z"/>
				</g>
				<g id="Group_4372" transform="translate(52.729 74.931)">
					<path id="Path_17885" class="st1 dark-color" d="M-431.5-366.5h-5.5c-0.8,0-1.4-0.6-1.4-1.4c0,0,0,0,0,0v-5.5c0-0.8,0.6-1.4,1.4-1.4
						c0,0,0,0,0,0h5.5c0.8,0,1.4,0.6,1.4,1.4c0,0,0,0,0,0v5.5C-430.1-367.1-430.7-366.5-431.5-366.5
						C-431.5-366.5-431.5-366.5-431.5-366.5z M-435.6-369.2h2.8v-2.8h-2.8V-369.2z"/>
				</g>
				<g id="Group_4373" transform="translate(63.83 74.931)">
					<path id="Path_17886" class="st1 dark-color" d="M-431.5-366.5h-5.5c-0.8,0-1.4-0.6-1.4-1.4c0,0,0,0,0,0v-5.5c0-0.8,0.6-1.4,1.4-1.4
						c0,0,0,0,0,0h5.5c0.8,0,1.4,0.6,1.4,1.4c0,0,0,0,0,0v5.5C-430.1-367.1-430.7-366.5-431.5-366.5
						C-431.5-366.5-431.5-366.5-431.5-366.5z M-435.6-369.2h2.8v-2.8h-2.8V-369.2z"/>
				</g>
				<g id="Group_4374" transform="translate(74.931 74.931)">
					<path id="Path_17887" class="st1 dark-color" d="M-431.5-366.5h-5.5c-0.8,0-1.4-0.6-1.4-1.4c0,0,0,0,0,0v-5.5c0-0.8,0.6-1.4,1.4-1.4
						c0,0,0,0,0,0h5.5c0.8,0,1.4,0.6,1.4,1.4c0,0,0,0,0,0v5.5C-430.1-367.1-430.7-366.5-431.5-366.5
						C-431.5-366.5-431.5-366.5-431.5-366.5z M-435.6-369.2h2.8v-2.8h-2.8V-369.2z"/>
				</g>
				<g id="Group_4375" transform="translate(52.729 63.83)">
					<path id="Path_17888" class="st1 dark-color" d="M-431.5-366.5h-5.5c-0.8,0-1.4-0.6-1.4-1.4c0,0,0,0,0,0v-5.5c0-0.8,0.6-1.4,1.4-1.4
						c0,0,0,0,0,0h5.5c0.8,0,1.4,0.6,1.4,1.4c0,0,0,0,0,0v5.5C-430.1-367.1-430.7-366.5-431.5-366.5
						C-431.5-366.5-431.5-366.5-431.5-366.5z M-435.6-369.2h2.8v-2.8h-2.8V-369.2z"/>
				</g>
				<g id="Group_4376" transform="translate(63.83 63.83)">
					<path id="Path_17889" class="st1 dark-color" d="M-431.5-366.5h-5.5c-0.8,0-1.4-0.6-1.4-1.4c0,0,0,0,0,0v-5.5c0-0.8,0.6-1.4,1.4-1.4
						c0,0,0,0,0,0h5.5c0.8,0,1.4,0.6,1.4,1.4c0,0,0,0,0,0v5.5C-430.1-367.1-430.7-366.5-431.5-366.5
						C-431.5-366.5-431.5-366.5-431.5-366.5z M-435.6-369.2h2.8v-2.8h-2.8V-369.2z"/>
				</g>
				<g id="Group_4377" transform="translate(74.931 63.83)">
					<path id="Path_17890" class="st1 dark-color" d="M-431.5-366.5h-5.5c-0.8,0-1.4-0.6-1.4-1.4c0,0,0,0,0,0v-5.5c0-0.8,0.6-1.4,1.4-1.4
						c0,0,0,0,0,0h5.5c0.8,0,1.4,0.6,1.4,1.4c0,0,0,0,0,0v5.5C-430.1-367.1-430.7-366.5-431.5-366.5
						C-431.5-366.5-431.5-366.5-431.5-366.5z M-435.6-369.2h2.8v-2.8h-2.8V-369.2z"/>
				</g>
				<g id="Group_4378" transform="translate(52.729 52.729)">
					<path id="Path_17891" class="st1 dark-color" d="M-431.5-366.5h-5.5c-0.8,0-1.4-0.6-1.4-1.4c0,0,0,0,0,0v-5.5c0-0.8,0.6-1.4,1.4-1.4
						c0,0,0,0,0,0h5.5c0.8,0,1.4,0.6,1.4,1.4c0,0,0,0,0,0v5.5C-430.1-367.1-430.7-366.5-431.5-366.5
						C-431.5-366.5-431.5-366.5-431.5-366.5z M-435.6-369.2h2.8v-2.8h-2.8V-369.2z"/>
				</g>
				<g id="Group_4379" transform="translate(63.83 52.729)">
					<path id="Path_17892" class="st1 dark-color" d="M-431.5-366.5h-5.5c-0.8,0-1.4-0.6-1.4-1.4c0,0,0,0,0,0v-5.5c0-0.8,0.6-1.4,1.4-1.4
						c0,0,0,0,0,0h5.5c0.8,0,1.4,0.6,1.4,1.4c0,0,0,0,0,0v5.5C-430.1-367.1-430.7-366.5-431.5-366.5
						C-431.5-366.5-431.5-366.5-431.5-366.5z M-435.6-369.2h2.8v-2.8h-2.8V-369.2z"/>
				</g>
				<g id="Group_4380" transform="translate(74.931 52.729)">
					<path id="Path_17893" class="st1 dark-color" d="M-431.5-366.5h-5.5c-0.8,0-1.4-0.6-1.4-1.4c0,0,0,0,0,0v-5.5c0-0.8,0.6-1.4,1.4-1.4
						c0,0,0,0,0,0h5.5c0.8,0,1.4,0.6,1.4,1.4c0,0,0,0,0,0v5.5C-430.1-367.1-430.7-366.5-431.5-366.5
						C-431.5-366.5-431.5-366.5-431.5-366.5z M-435.6-369.2h2.8v-2.8h-2.8V-369.2z"/>
				</g>
				<g id="Group_4381" transform="translate(52.511 47.191)">
					<rect id="Rectangle_2206" x="-438.5" y="-375.2" class="st1 dark-color" width="31" height="2"/>
				</g>
				<g id="Group_4382" transform="translate(52.511 35.747)">
					<rect id="Rectangle_2207" x="-438.5" y="-374.7" class="st1 dark-color" width="31" height="3"/>
				</g>
				<g id="Group_4383" transform="translate(77.48 41.989)">
					<rect id="Rectangle_2208" x="-438.4" y="-375" class="st1 dark-color" width="2" height="3"/>
				</g>
				<g id="Group_4384" transform="translate(72.278 41.989)">
					<rect id="Rectangle_2209" x="-438.2" y="-375" class="st1 dark-color" width="3" height="3"/>
				</g>
				<g id="Group_4385" transform="translate(66.036 41.989)">
					<rect id="Rectangle_2210" x="-438" y="-375" class="st1 dark-color" width="4" height="3"/>
				</g>
				<g id="Group_4386" transform="translate(60.834 41.989)">
					<rect id="Rectangle_2211" x="-438.8" y="-375" class="st1 dark-color" width="3" height="3"/>
				</g>
				<g id="Group_4387" transform="translate(24.977 8.326)">
					<path id="Path_17894" class="st1 dark-color" d="M-389.9-366.5H-437c-0.8,0-1.4-0.6-1.4-1.4c0,0,0,0,0,0v-5.5c0-0.8,0.6-1.4,1.4-1.4
						c0,0,0,0,0,0h47.2c0.8,0,1.4,0.6,1.4,1.4c0,0,0,0,0,0v5.5C-388.5-367.1-389.1-366.5-389.9-366.5
						C-389.8-366.5-389.8-366.5-389.9-366.5z M-435.6-369.2h44.4v-2.8h-44.4V-369.2z"/>
				</g>
				<g id="Group_4388" transform="translate(24.421 38.868)">
					<rect id="Rectangle_2212" x="-438.4" y="-374.8" class="st1 dark-color" width="4" height="27"/>
				</g>
				<g id="Group_4389" transform="translate(30.663 47.191)">
					<rect id="Rectangle_2213" x="-438.6" y="-375.2" class="st1 dark-color" width="3" height="19"/>
				</g>
				<g id="Group_4390" transform="translate(35.865 30.545)">
					<rect id="Rectangle_2214" x="-438.8" y="-374.5" class="st1 dark-color" width="5" height="35"/>
				</g>
				<g id="Group_4391" transform="translate(42.107 41.989)">
					<rect id="Rectangle_2215" x="-438.1" y="-375" class="st1 dark-color" width="2" height="24"/>
				</g>
				<g id="Group_4392" transform="translate(24.421 70.08)">
					<rect id="Rectangle_2216" x="-438.4" y="-375.1" class="st1 dark-color" width="20" height="2"/>
				</g>
				<g id="Group_4393" transform="translate(24.421 19.101)">
					<rect id="Rectangle_2217" x="-438.4" y="-375.1" class="st1 dark-color" width="4" height="3"/>
				</g>
				<g id="Group_4394" transform="translate(30.663 19.101)">
					<rect id="Rectangle_2218" x="-438.6" y="-375.1" class="st1 dark-color" width="3" height="3"/>
				</g>
				<g id="Group_4395" transform="translate(35.865 19.101)">
					<rect id="Rectangle_2219" x="-438.8" y="-375.1" class="st1 dark-color" width="5" height="3"/>
				</g>
				<g id="Group_4396" transform="translate(42.107 19.101)">
					<rect id="Rectangle_2220" x="-438.1" y="-375.1" class="st1 dark-color" width="33" height="3"/>
				</g>
				<g id="Group_4397">
					<path id="Path_17895" class="st1 dark-color" d="M-399.6-288.7c-0.4,0-0.7-0.1-1-0.4l-3.2-3.2l-3.2,3.2c-0.5,0.5-1.4,0.5-2,0c0,0,0,0,0,0
						l-3.2-3.2l-3.2,3.2c-0.5,0.5-1.4,0.5-2,0c0,0,0,0,0,0l-4.2-4.2c-0.3-0.3-0.4-0.6-0.4-1v-74.9c0-1.5-1.2-2.8-2.8-2.8
						s-2.8,1.2-2.8,2.8c0,0,0,0,0,0v69.4c0,3.1-2.5,5.5-5.5,5.5c-3.1,0-5.6-2.5-5.6-5.5v-59.7c0-0.8,0.6-1.4,1.4-1.4c0,0,0,0,0,0
						h4.2v2.8h-2.8v58.3c0,1.5,1.2,2.8,2.8,2.8c1.5,0,2.8-1.2,2.8-2.8v-69.4c0-3.1,2.5-5.5,5.6-5.5c3.1,0,5.5,2.5,5.5,5.5v74.4
						l2.8,2.8l3.2-3.2c0.5-0.5,1.4-0.5,2,0c0,0,0,0,0,0l3.2,3.2l3.2-3.2c0.5-0.5,1.4-0.5,2,0c0,0,0,0,0,0l3.2,3.2l3.2-3.2l2,2
						l-4.2,4.2C-398.8-288.9-399.2-288.7-399.6-288.7z"/>
				</g>
			</g>
		</g>
	</g>
</g>
</svg>
