<svg version="1.1" id="icons_messaging" xmlns="http://www.w3.org/2000/svg" xmlns:xlink="http://www.w3.org/1999/xlink" x="0px" y="0px"
	 viewBox="0 0 137.2 137.5" style="enable-background:new 0 0 137.2 137.5;" xml:space="preserve">
<style type="text/css">
	.st0{fill:#EF5E5E;}
</style>
<g>
	<path class="st0" d="M106.9,28.8h14.5l-6.4-6.4c-25.5-25.5-67-25.6-92.5-0.1C3.2,41.5-2.2,70.8,8.9,95.3L6,96.6
		C-5.7,71,0,40.2,20.2,20C33.5,6.7,51,0,68.6,0c17.6,0,35.2,6.7,48.6,20.1l7.3,7.3V11.3h3.2V32h-20.8V28.8z"/>
	<path class="st0" d="M117,117.5c-26.7,26.7-70.2,26.6-97-0.1l-7.3-7.3v16.2H9.5v-20.8h20.8v3.2H15.8l6.4,6.4
		c25.5,25.5,67,25.6,92.5,0.1C134,96,139.4,66.7,128.2,42.2l2.9-1.3C142.9,66.6,137.2,97.4,117,117.5z"/>
</g>
<g>
	<path class="dark-color" d="M98.5,73.4l-5.9-14.8c-0.1-12-9.9-21.8-22-21.8C64.6,36.8,59.1,39,55,43l1.4,1.4c3.7-3.7,8.7-5.7,14.1-5.7c11,0,20,9,20,20
		c0,0.1,0,0.3,0.1,0.4l5.5,13.6h-4.5c-0.6,0-1,0.4-1,1v9c0,2.8-2.2,5-5,5h-6h-3v2h2v11h2v-11h5c3.9,0,7-3.1,7-7v-8h5
		c0.3,0,0.6-0.2,0.8-0.4C98.6,74,98.6,73.7,98.5,73.4z"/>
	<path class="dark-color" d="M53.7,77.1c1.5,3.6,2.9,7.5,2.9,11.6v12h2v-12c0-4.5-1.5-8.6-3.1-12.4L53.7,77.1z"/>
	<path class="dark-color" d="M84.5,56.1c0.2-0.4,0.1-0.8-0.2-1.1l-6-6c-0.3-0.3-0.6-0.4-1-0.2l-12.7,3.9l-3.3-3.6c-0.1-0.1-0.2-0.2-0.4-0.3l-21-8
		c-0.4-0.2-0.8,0-1.1,0.3c-0.3,0.3-0.3,0.8-0.1,1.2l3.9,6.5h-7c-0.4,0-0.8,0.3-0.9,0.7c-0.1,0.4,0,0.9,0.3,1.1l15.4,11.6l-5.8,19.3
		c-0.1,0.5,0.1,0.9,0.5,1.2c0.1,0.1,0.3,0.1,0.5,0.1c0.3,0,0.6-0.1,0.8-0.4l9.9-11.8L72,62.6c0,0,0,0,0,0c0.1,0,0.1-0.1,0.1-0.1
		c0,0,0.1,0,0.1-0.1c0,0,0.1-0.1,0.1-0.2c0,0,0,0,0.1-0.1l2.7-5.4h8.4C84,56.8,84.4,56.5,84.5,56.1z M38.6,50.8h5.2l4.3,7.1
		L38.6,50.8z M55.1,68.9c-0.1,0.1-0.2,0.1-0.3,0.3l-6.9,8.2l4.4-14.6h15L55.1,68.9z M52.2,60.8l-10.2-17L60,50.6l9.3,10.1H52.2z
		 M71.3,60l-5.2-5.7l9.5-2.9L71.3,60z M76.2,54.8l1.7-3.3l3.3,3.3H76.2z"/>
</g>
</svg>
