<svg version="1.1" id="Layer_1_cashflow" xmlns="http://www.w3.org/2000/svg" xmlns:xlink="http://www.w3.org/1999/xlink" x="0px" y="0px"
	 viewBox="0 0 104.1 99.4" style="enable-background:new 0 0 104.1 99.4;" xml:space="preserve">
<style type="text/css">
	.st0{fill:#A5DFD3;}
	.st1{fill:#363F40;}
</style>
<path id="scribbles-scribbles-34" class="st0 accent-color blue-color" d="M89.8,83.6l4.9-6.1l-0.3-0.2c-1.4,1.7-2.8,3.5-4.4,5c-3.6,3.4-7.3,6.6-10.9,9.9
	c-0.7,0.7-1.5,1.2-2.3,1.9c-0.9,0.7-1.8,2-2.7,0c-0.3,0.2-0.8,0.2-0.9,0.5c-1.1,2.2-2.4,2.5-4.6,0.8c0.7,1.8,0.5,2.3-1.4,2
	c-1.1-0.2-2.4,0.6-3.6,1c-5.5,1.6-11.1,1-16.8,1c-8.9,0-16.8-3.2-24.3-7.5c-6.2-3.5-11-8.9-15.6-14.4C0.9,70-0.2,61.7,0,52.8
	c0.2-7,1.9-14,5.1-20.2c2.5-5.1,6.4-9.2,10.1-13.5c3.7-4.3,8.7-5,13.7-5.8c1.2-0.2,2.6,0.4,3.8,0.9c1.4,0.5,2.6,1.5,4,2
	c5.8,2.1,10.2,6.3,14.8,10.1c3.9,3.3,7.6,6.8,11.5,10.3c8.5,7.7,17.2,15.3,25.6,23.1c2.8,2.6,4.9,5.8,7.3,8.8
	c0.5,0.7,0.9,1.4,1.3,2.2c0.8,1.9,1.2,3.6-0.5,5.5c-2.3,2.5-4.2,5.3-6.3,7.9L89.8,83.6z M40.7,59.1c-0.3,1.1-0.7,1.9-0.6,2.6
	c0.1,0.8,0.6,1.5,1.3,1.9c0.6,0.3,1.5-0.2,2.3-0.4c0-0.6-0.2-1.1-0.5-1.6C42.5,60.8,41.6,59.9,40.7,59.1z M46.1,35.4l0.4-0.5
	l-7.2-6.2l-0.6,0.7L46.1,35.4z M9.2,38.4c0.4,0.2,0.9,0.7,1.3,0.7c0.4-0.1,0.8-0.7,1.1-1.1l-2.2-2C9.4,36.7,9.3,37.4,9.2,38.4
	L9.2,38.4z M86.6,84.4L86.3,84c-1.5,1.1-3.1,2.2-4.6,3.3c-0.2,0.2-0.3,0.5-0.5,0.7c0.3,0,0.8,0.2,1,0C83.7,86.9,85.2,85.6,86.6,84.4
	L86.6,84.4z M78.5,81.4l0.6,0.6l3.1-3.4l-0.3-0.3L78.5,81.4z M70.7,73.9l0.4,0.4c0.7-0.8,1.5-1.6,2.1-2.4c0.1-0.1,0-0.5-0.1-0.8
	c-0.2,0.1-0.6,0.1-0.7,0.2C71.8,72.2,71.3,73,70.7,73.9L70.7,73.9z"/>
<g id="Group_4436" transform="translate(299.884 -131.602)">
	<g id="Group_4435" transform="translate(160 148)">
		<g id="Group_4434">
			<g id="Group_4426" transform="translate(0 32.076)">
				<g id="Group_4416" transform="translate(10.692 10.692)">
					<path id="Path_17903" class="st1 dark-color" d="M-367.8,21H-440c-0.7,0-1.3-0.6-1.3-1.3v-5.3h2.7v4h69.5v-32.1h-4v-2.7h5.3
						c0.7,0,1.3,0.6,1.3,1.3v34.7C-366.5,20.4-367.1,21-367.8,21z"/>
				</g>
				<g id="Group_4417" transform="translate(5.346 5.346)">
					<path id="Path_17904" class="st1 dark-color" d="M-367.8,21H-440c-0.7,0-1.3-0.6-1.3-1.3v-5.3h2.7v4h69.5v-32.1h-4v-2.7h5.3
						c0.7,0,1.3,0.6,1.3,1.3v34.7C-366.5,20.4-367.1,21-367.8,21z"/>
				</g>
				<g id="Group_4425">
					<g id="Group_4418">
						<path id="Path_17905" class="st1 dark-color" d="M-367.8,21H-440c-0.7,0-1.3-0.6-1.3-1.3v-34.7c0-0.7,0.6-1.3,1.3-1.3h72.2
							c0.7,0,1.3,0.6,1.3,1.3v34.7C-366.5,20.4-367.1,21-367.8,21z M-438.6,18.4h69.5v-32.1h-69.5V18.4z"/>
					</g>
					<g id="Group_4419" transform="translate(5.346 5.346)">
						<path id="Path_17906" class="st1 dark-color" d="M-382.5,10.3H-436c-0.4,0-0.7-0.1-0.9-0.4l-4-4c-0.3-0.3-0.4-0.6-0.4-0.9v-16
							c0-0.4,0.1-0.7,0.4-0.9l4-4c0.3-0.3,0.6-0.4,0.9-0.4h53.5c0.4,0,0.7,0.1,0.9,0.4l4,4c0.3,0.3,0.4,0.6,0.4,0.9V5
							c0,0.4-0.1,0.7-0.4,0.9l-4,4C-381.8,10.2-382.1,10.3-382.5,10.3z M-435.4,7.7h52.4l3.2-3.2v-14.9l-3.2-3.2h-52.4l-3.2,3.2V4.4
							L-435.4,7.7z"/>
					</g>
					<g id="Group_4420" transform="translate(21.384 17.374)">
						<rect id="Rectangle_2223" x="-441.1" y="-16.7" class="st1 dark-color" width="3" height="3"/>
					</g>
					<g id="Group_4421" transform="translate(16.038 17.374)">
						<rect id="Rectangle_2224" x="-440.8" y="-16.7" class="st1 dark-color" width="2" height="3"/>
					</g>
					<g id="Group_4422" transform="translate(56.132 17.374)">
						<rect id="Rectangle_2225" x="-440.9" y="-16.7" class="st1 dark-color" width="2" height="3"/>
					</g>
					<g id="Group_4423" transform="translate(50.786 17.374)">
						<rect id="Rectangle_2226" x="-441.6" y="-16.7" class="st1 dark-color" width="3" height="3"/>
					</g>
					<g id="Group_4424" transform="translate(29.402 10.692)">
						<path id="Path_17907" class="st1 dark-color" d="M-433.3-0.4c-4.4,0-8-3.6-8-8s3.6-8,8-8s8,3.6,8,8l0,0C-425.3-4-428.9-0.4-433.3-0.4z
							 M-433.3-13.7c-3,0-5.3,2.4-5.3,5.3s2.4,5.3,5.3,5.3s5.3-2.4,5.3-5.3v0C-427.9-11.3-430.3-13.7-433.3-13.7L-433.3-13.7z"/>
					</g>
				</g>
			</g>
			<g id="Group_4433">
				<g id="Group_4427" transform="translate(24.448 21.776)">
					<path id="Path_17908" class="st1 dark-color" d="M-435-8.8c-0.4,0-0.7-0.1-0.9-0.4l-5.3-5.3l1.9-1.9l4.4,4.4l4.4-4.4l1.9,1.9l-5.3,5.3
						C-434.3-8.9-434.7-8.8-435-8.8z"/>
				</g>
				<g id="Group_4428" transform="translate(48.505 21.776)">
					<path id="Path_17909" class="st1 dark-color" d="M-435-8.8c-0.4,0-0.7-0.1-0.9-0.4l-5.3-5.3l1.9-1.9l4.4,4.4l4.4-4.4l1.9,1.9l-5.3,5.3
						C-434.3-8.9-434.7-8.8-435-8.8z"/>
				</g>
				<g id="Group_4429" transform="translate(36.476)">
					<path id="Path_17910" class="st1 dark-color" d="M-430.6-8.8l-4.4-4.4l-4.4,4.4l-1.9-1.9l5.3-5.3c0.5-0.5,1.4-0.5,1.9,0c0,0,0,0,0,0
						l5.3,5.3L-430.6-8.8z"/>
				</g>
				<g id="Group_4430" transform="translate(0 12.029)">
					<path id="Path_17911" class="st1 dark-color" d="M-409.2-0.4h-2.7v-13.4h-29.4v-2.7h30.7c0.7,0,1.3,0.6,1.3,1.3V-0.4z"/>
				</g>
				<g id="Group_4431" transform="translate(53.459 12.029)">
					<path id="Path_17912" class="st1 dark-color" d="M-438.6-0.4h-2.7v-14.7c0-0.7,0.6-1.3,1.3-1.3h30.7v2.7h-29.4L-438.6-0.4z"/>
				</g>
				<g id="Group_4432" transform="translate(41.431 1.337)">
					<rect id="Rectangle_2227" x="-441.2" y="-16.5" class="st1 dark-color" width="3" height="28"/>
				</g>
			</g>
		</g>
	</g>
</g>
</svg>
