<svg version="1.1" id="Layer_1_facilitation" xmlns="http://www.w3.org/2000/svg" xmlns:xlink="http://www.w3.org/1999/xlink" x="0px" y="0px"
	 viewBox="0 0 112 112" style="enable-background:new 0 0 112 112;" xml:space="preserve">
<style type="text/css">
	.st0{fill:#F4DB94;}
	.st1{fill:#232829;}
</style>
<path class="st0 accent-color yellow-color" d="M83.9,107.2c-4,3-8.7,4.5-13.8,4.8c-3.7,0.1-6.7-1-8.3-4.5c-1.5-2.9-2.2-6,0.4-8.9c0.7-0.7,0.6-2,1.2-2.9
	c0.4-0.5,0.5-3,2.1-0.9c0.3-0.3,1.1-0.7,1.1-1c0.3-3.9,2.8-6.3,6.3-6.7c2.4-0.2,4.6-0.9,6.6-2.3c1.1-0.7,1.9-2.8,1.8-4.3
	c-0.1-6.6-2.5-12.4-6.9-17.2C62.7,50,49.4,40,31.5,38.3c-5.4-0.5-11,0.4-16.5,0.5c-2.6,0.1-5.5,0.4-8.1,0.1c-2.9-0.2-5-1.9-6.1-4.8
	c-1.4-3.7-1.2-4.8,2.4-6.3c1.5-0.5,2-1,1.3-2.8c-0.3-0.6,0.3-2,0.9-2.6c5.7-5.7,12.8-9.7,20.1-12.6C33.3,6.9,41.2,4,49.2,2
	C57,0.2,65.3-1.2,73.3,1.5c7.9,2.6,14.6,7.1,20.6,13c8.4,9,14.9,18.5,17.8,30.6c0.5,2.3,0.4,4.7,0.3,6.9c-0.1,3.1,0.1,6.2-0.5,9.1
	c-1.2,4.7-0.6,9.7-3.9,14.1c-2.1,2.8-2.2,7.3-3.7,10.8C99.6,95.5,93,102.6,83.9,107.2z M101.8,31.3c-1.7-5.4-9.3-13.5-14.2-15.6
	L101.8,31.3z M83,58.1l0.6-0.6c-1.5-5.1-5.9-7.4-9.7-10.3c-0.2,0.2-0.4,0.4-0.5,0.5L83,58.1z M93.5,30.7c0.2-0.2,0.5-0.4,0.7-0.5
	l-7-8c-0.2,0.2-0.5,0.5-0.8,0.7L93.5,30.7z M79,7.5l0.2-1.1l-5.4-1.9l-0.3,0.9L79,7.5z"/>
<g>
	<g>
		<g>
			<g>
				<g>
					<g>
						<rect x="69.5" y="82.9" class="st1 dark-color" width="4.2" height="2.8"/>
					</g>
				</g>
				<g>
					<path class="st1 dark-color" d="M75.1,101h-2.8V84.3c0-0.8,0.6-1.4,1.4-1.4H82c3.9,0,7-3.1,7-7V63.4c0-0.8,0.6-1.4,1.4-1.4h7v-1.1L89.1,43
						C89,42.9,89,42.6,89,42.5c0-15.3-12.5-27.9-27.9-27.9c-5.7,0-11.3,1.7-15.9,5l-1.5-2.2c5.2-3.6,11.1-5.4,17.6-5.4
						C78.2,12,91.8,25.5,92,42.4l8.2,17.8c0.1,0.1,0.1,0.4,0.1,0.6v2.8c0,0.8-0.6,1.4-1.4,1.4h-7v11c0,5.4-4.3,9.8-9.8,9.8h-7
						L75.1,101L75.1,101z"/>
				</g>
				<g>
					<path class="st1 dark-color" d="M44.4,101h-2.8V84.3c0-3.6-0.7-7.4-2.5-12.1l2.6-1c1.8,5,2.6,9.1,2.6,13C44.4,84.1,44.4,101,44.4,101z"/>
				</g>
			</g>
			<g>
				<g>
					<path class="st1 dark-color" d="M55.6,67.5H40.2c-0.6,0-1.1-0.4-1.3-1c-0.1-0.6,0-1.3,0.6-1.5c1.4-1.1,2.2-2.6,2.2-4.5
						c0-3.1-2.5-5.6-5.6-5.6s-5.6,2.5-5.6,5.6c0,1.8,0.8,3.3,2.2,4.5c0.4,0.4,0.7,1,0.6,1.5c-0.1,0.6-0.7,1-1.3,1H16.8
						c-3.1,0-5.6-2.5-5.6-5.6V28.5c0-3.1,2.5-5.6,5.6-5.6h15.3c0.6,0,1.1,0.4,1.3,1s0,1.3-0.6,1.5c-1.4,1.1-2.2,2.6-2.2,4.5
						c0,3.1,2.5,5.6,5.6,5.6s5.6-2.5,5.6-5.6c0-1.8-0.8-3.3-2.2-4.5c-0.4-0.4-0.7-1-0.6-1.5c0.1-0.6,0.7-1,1.3-1h15.3
						c3.1,0,5.6,2.5,5.6,5.6V38c1.3-0.7,2.6-1.1,4.2-1.1c4.6,0,8.4,3.8,8.4,8.4s-3.8,8.4-8.4,8.4c-1.5,0-2.9-0.4-4.2-1.1V62
						C61.1,65,58.8,67.5,55.6,67.5z M43.4,64.8h12.3c1.5,0,2.8-1.3,2.8-2.8V49.4c0-0.6,0.4-1.1,1-1.3c0.6-0.1,1.3,0,1.5,0.6
						c1.1,1.4,2.6,2.2,4.5,2.2c3.1,0,5.6-2.5,5.6-5.6s-2.5-5.6-5.6-5.6c-1.8,0-3.3,0.8-4.5,2.2c-0.4,0.4-1,0.7-1.5,0.6
						c-0.6-0.1-1-0.7-1-1.3V28.8c0-1.5-1.3-2.8-2.8-2.8H43.4c0.7,1.3,1.1,2.6,1.1,4.2c0,4.6-3.8,8.4-8.4,8.4s-8.4-3.8-8.4-8.4
						c0-1.5,0.4-2.9,1.1-4.2H16.7c-1.5,0-2.8,1.3-2.8,2.8v33.4c0,1.5,1.3,2.8,2.8,2.8H29c-0.7-1.3-1.1-2.6-1.1-4.2
						c0-4.6,3.8-8.4,8.4-8.4s8.4,3.8,8.4,8.4C44.4,62.1,44.1,63.5,43.4,64.8z"/>
				</g>
			</g>
			<g>
				<rect x="34.6" y="43.9" class="st1 dark-color" width="2.8" height="2.8"/>
			</g>
			<g>
				<rect x="40.2" y="43.9" class="st1 dark-color" width="2.8" height="2.8"/>
			</g>
			<g>
				<rect x="29.1" y="43.9" class="st1 dark-color" width="2.8" height="2.8"/>
			</g>
		</g>
	</g>
</g>
</svg>
