<svg version="1.1" id="Layer_1_targetmarketing" xmlns="http://www.w3.org/2000/svg" xmlns:xlink="http://www.w3.org/1999/xlink" x="0px" y="0px"
	 viewBox="0 0 104.9 112.2" style="enable-background:new 0 0 104.9 112.2;" xml:space="preserve">
<style type="text/css">
	.st0{fill:#A5DFD3;}
	.st1{fill:#161616;}
</style>
<g id="Group_7838" transform="translate(-456.582 -1486.414)">
	<path id="scribbles-scribbles-12" class="st0 accent-color blue-color" d="M527.2,1526.9c0.1,0,0.3,0,0.4,0.1c0.5,0.6,1,1.1,1.5,1.7
		c0.3,0.3,0.5,0.6,0.8,0.9c0.2,0.2,0.4,0.5,0.6,0.7c0.3,0.2,0.4,0.5,0.7,0.8c0.2,0.2,0.3,0.5,0.5,0.7c0.3,0.3,0.6,0.7,0.8,1.1
		c0.2,0.2,0.3,0.5,0.5,0.7c0,0.1,0.1,0.1,0.1,0.2c0.2,0.2,0.3,0.4,0.5,0.7c0.3,0.5,0.6,1,0.9,1.5c0.2,0.4,0.4,0.7,0.6,1.1
		c0.2,0.4,0.4,0.7,0.6,1c0.4,0.8,0.8,1.7,1.2,2.5c0.3,0.7,0.5,1.4,0.6,2.1c0.2,0.6,0.3,1.1,0.4,1.7c0.1,0.5,0.2,0.9,0.2,1.4
		c0,0.4,0,0.9,0.1,1.3c0,1,0.1,2,0,3c0,0.6-0.1,1.2-0.1,1.7c0,0.7-0.1,1.3-0.1,2c0,0.4-0.1,0.8-0.1,1.2c0,0.4-0.1,0.8-0.1,1.2
		c0,0.4-0.1,0.8-0.1,1.2c0,0.4-0.1,0.7-0.2,1.1c0.1,0.3-0.1,0.6-0.1,0.8c0,0.3-0.1,0.6-0.1,0.8c0,0.3,0,0.6,0,0.9c0,0.6,0,1.1,0,1.7
		c0,0.3,0.1,0.7,0.1,1c0,0.6,0.1,1.3,0.3,1.9c0.1,0.3,0.1,0.5,0.1,0.8c0,0.2,0.2,0.3,0.2,0.5c0,0.3,0.1,0.6,0.2,0.9
		c0,0.1,0.1,0.2,0.1,0.2l-0.1,0.2c0,0.1,0.1,0,0.1,0c0,0.1,0.1,0.2,0.1,0.4c0,0.1,0.1,0.2,0.1,0.3c0,0.3,0.3,0.6,0.2,0.9
		c0.1,0.3,0.2,0.5,0.3,0.8c0.1,0.1,0.1,0.3,0,0.4c-0.1,0.1,0.2,0.2,0.1,0.3c0.3,0.4,0.2,0.9,0.2,1.4c0.1,0.7,0.2,1.5,0.2,2.2
		c0,0.4,0.1,0.8,0,1.2c0,0.9-0.1,1.7-0.2,2.6c-0.1,0.4,0,0.7-0.1,1.1c-0.1,0.7-0.3,1.5-0.5,2.2c0,0.1-0.1,0.3-0.2,0.4
		c-0.1,0.1,0,0.3,0,0.4c-0.1,0.2-0.2,0.3-0.2,0.5c0,0.1-0.1,0.3-0.1,0.4c-0.1,0.4-0.3,0.8-0.4,1.2c0,0.2-0.1,0.3-0.2,0.4
		c-0.2,0.5-0.4,0.9-0.7,1.4c-0.2,0.2-0.3,0.5-0.3,0.7c0,0.1,0,0.2-0.1,0.2c-0.2,0.1-0.3,0.4-0.4,0.6c-0.1,0.2-0.2,0.4-0.3,0.6
		c-0.2,0.2-0.3,0.4-0.4,0.6c-0.2,0.4-0.4,0.7-0.6,1c-0.1,0.2-0.2,0.4-0.4,0.4c-0.1,0,0.1,0.3-0.2,0.3c-0.1,0-0.2,0.1-0.2,0.2
		c0,0.1-0.2,0.1-0.2,0.2c0,0.1,0,0.3-0.1,0.3c-0.2,0-0.1,0.2-0.2,0.2c0,0,0,0,0,0c-0.2,0.4-0.6,0.6-0.9,1c-0.2,0.2-0.3,0.4-0.6,0.6
		c-0.2,0.2-0.4,0.3-0.6,0.5c-0.3,0.3-0.7,0.5-1,0.8c-0.1,0.1-0.3-0.1-0.3,0.2c-0.2,0-0.2,0.2-0.3,0.2c-0.1,0-0.2,0.1-0.3,0.1
		c-0.1,0.2-0.3,0.4-0.6,0.5c-0.4,0.3-0.9,0.5-1.3,0.7c-0.6,0.3-1.3,0.6-2,0.7c-0.2,0-0.1,0.2-0.3,0.2c-0.7,0.2-1.5,0.4-2.2,0.4
		c-0.3,0-0.6,0.1-1,0.2c-0.7,0.1-1.3,0.1-2,0.1c-0.4,0-0.8,0-1.2,0c-0.9,0-1.7-0.1-2.6-0.4c-0.6-0.2-1.3-0.4-1.9-0.6
		c-0.2-0.1-0.4-0.2-0.6-0.3c-0.2-0.1-0.4-0.1-0.5-0.3c-0.1-0.1-0.3,0-0.4-0.2c-0.1-0.1-0.2-0.2-0.4-0.2c-0.1,0-0.2-0.1-0.3-0.2
		c-0.2-0.1-0.3-0.2-0.4-0.3c-0.1-0.1-0.3,0-0.3-0.2c-0.2,0.1-0.3-0.1-0.5-0.2c-0.1-0.1-0.3-0.2-0.4-0.3l-0.4-0.3
		c-0.1-0.1-0.2-0.2-0.4-0.3c-0.2-0.1-0.5-0.3-0.7-0.4c-0.3-0.1-0.5-0.3-0.8-0.5c-0.2-0.2-0.5-0.2-0.7-0.4c-0.2-0.2-0.4-0.4-0.7-0.5
		c-0.3-0.1-0.5-0.3-0.8-0.4c-0.3-0.1-0.5-0.3-0.8-0.4c-0.6-0.2-1.1-0.6-1.7-0.8c-0.7-0.3-1.4-0.6-2.2-0.8c-0.5-0.1-1-0.3-1.5-0.4
		c-0.5-0.1-1-0.2-1.5-0.3c-0.6-0.1-1.2-0.1-1.9-0.1c-0.6,0-1.2,0.1-1.9,0.1c-0.3,0-0.6,0.1-0.9,0.1c-0.3,0-0.6,0.1-0.9,0.1
		c-0.8,0.1-1.5,0.1-2.3,0.1c-1,0.1-1.9,0.1-2.9,0.1c-0.5,0-1-0.1-1.5-0.1c-0.8-0.1-1.6-0.2-2.4-0.4c-0.7-0.1-1.5-0.3-2.2-0.5
		c-0.5-0.2-1-0.3-1.5-0.5c-0.2-0.1-0.4-0.3-0.6-0.2c-0.4-0.3-0.9-0.3-1.3-0.7c-0.3-0.1-0.6-0.2-0.8-0.4c-0.2-0.1-0.4-0.1-0.6-0.3
		c-0.1-0.2-0.3-0.3-0.6-0.4c-0.3-0.1-0.7-0.3-0.9-0.5c-0.7-0.5-1.4-0.9-2-1.4c-0.3-0.1-0.5-0.3-0.6-0.5c-0.1-0.2-0.4-0.2-0.5-0.5
		c0-0.1-0.2,0-0.3-0.1c-0.2-0.2-0.4-0.2-0.5-0.5c-0.1-0.2-0.4-0.2-0.5-0.4c0-0.2-0.4,0-0.3-0.3c-0.2-0.2-0.5-0.3-0.6-0.6
		c-0.2-0.2-0.4-0.2-0.5-0.5c-0.1-0.2-0.4-0.2-0.5-0.5c-0.3-0.1-0.5-0.5-0.8-0.7c-0.2-0.2-0.4-0.3-0.6-0.5c-0.3-0.3-0.5-0.6-0.8-0.9
		c-0.1-0.1-0.2-0.2-0.3-0.3c-0.1-0.1,0-0.2-0.1-0.2c-0.5-0.4-0.9-0.9-1.3-1.4c-0.3-0.3-0.5-0.6-0.7-0.9c-0.1-0.1-0.2-0.2-0.2-0.3
		c-0.1-0.3-0.3-0.6-0.5-0.8c-0.1-0.1-0.2-0.3-0.3-0.5c0,0,0-0.1,0-0.1c-0.3-0.3-0.6-0.7-0.7-1.1c-0.2-0.4-0.4-0.7-0.6-1.1
		c-0.5-0.7-0.8-1.5-1.2-2.2c-0.1-0.2-0.2-0.4-0.3-0.7c-0.1-0.1-0.2,0-0.3-0.1c-0.1-0.1-0.1-0.2,0-0.4c-0.4-0.2-0.4-0.5-0.5-0.8
		c-0.3-0.7-0.6-1.4-0.9-2.1c-0.2-0.5-0.4-1-0.5-1.4c-0.4-1.6-0.7-3.2-1-4.8c-0.1-0.6-0.2-1.2-0.3-1.8c-0.1-0.5-0.1-1-0.1-1.6
		c-0.1-1.2-0.1-2.4-0.1-3.6c0-0.9,0.1-1.8,0.2-2.8c0.1-0.6,0.1-1.2,0.2-1.8c0.2-0.9,0.4-1.9,0.6-2.8c0.2-0.9,0.6-1.7,0.7-2.5
		c0.3-0.4,0.3-1,0.6-1.5c0-0.3,0.1-0.5,0.3-0.7c0.1-0.3,0.2-0.5,0.4-0.7c0.1-0.1,0-0.3,0.2-0.4c0.1-0.1,0.2-0.2,0.2-0.4
		c0.2,0,0-0.2,0.2-0.3c0.1-0.1,0.2-0.2,0.3-0.4c0.1-0.3,0.4-0.5,0.5-0.8c0.1-0.3,0.4-0.5,0.5-0.8c0.1-0.4,0.5-0.5,0.6-0.8
		c0,0,0.1,0,0.1,0c0-0.1-0.1-0.1-0.1-0.2c0.1,0,0.2-0.1,0.4-0.2c0.1-0.1,0.2-0.2,0.3-0.4l-0.1-0.4c0.2-0.1,0.2-0.3,0.4-0.4
		c0.1,0,0.1-0.2,0.2-0.3c0.1-0.2,0.3-0.2,0.3-0.3c0-0.2,0.1-0.3,0.2-0.4c0.9-1.2,1.7-2.4,2.6-3.5c0.1-0.1,0.1-0.3,0.3-0.3
		c-0.1-0.3,0.2-0.2,0.3-0.4c0.1-0.1,0.2-0.2,0.3-0.3c0.2-0.2,0.4-0.4,0.5-0.7c0.1-0.2,0.2-0.3,0.4-0.4c0.2-0.1,0.2-0.3,0.4-0.4
		c0.2-0.1,0.4-0.3,0.6-0.5c0.1-0.2,0.2-0.3,0.4-0.4c0.1-0.1,0.1-0.3,0.4-0.3c0.2-0.3,0.5-0.5,0.7-0.7c0.6-0.5,1.2-1,1.9-1.5
		c0.6-0.4,1.1-0.8,1.7-1.1c0.2-0.1,0.4-0.2,0.6-0.3c0.7-0.4,1.4-0.8,2.1-1.1c0.6-0.3,1.3-0.6,1.9-0.8c0.4-0.1,0.7-0.3,1-0.5
		c0.8-0.4,1.7-0.7,2.5-1c0.7-0.3,1.5-0.5,2.3-0.6c0.2,0,0.4-0.1,0.6-0.2c0.2,0,0.5-0.1,0.7-0.1c0.3-0.1,0.6-0.1,0.9-0.2
		c0.2-0.1,0.5,0.1,0.7-0.1c0.2-0.1,0.5,0.1,0.7-0.1c0.3,0.1,0.6-0.1,0.9-0.1c0.3,0,0.7,0,1-0.1c0.3-0.1,0.7-0.1,1-0.1
		c0.6,0,1.2-0.2,1.8-0.2c0.6-0.1,1.1-0.1,1.7-0.1c0.1,0,0.2-0.1,0.3-0.1c0.1,0,0.2,0.1,0.3,0c0.4-0.1,0.8-0.1,1.3-0.1
		c0.6,0,1.2,0,1.8-0.1c0.9,0,1.9,0,2.8,0c0.6,0,1.2,0.1,1.8,0.1c0.7,0.1,1.4,0.1,2.1,0.2c0.5,0,1.1,0.1,1.6,0.2
		c0.4,0,0.8,0.1,1.3,0.1c0.6,0,1.2,0.1,1.8,0.1c0.8,0.1,1.7,0.2,2.5,0.3c0.4,0.1,0.8,0.2,1.2,0.3c0.3,0.1,0.5,0.1,0.8,0.2
		c0.5,0.1,1,0.3,1.5,0.5c0.2,0.1,0.3,0.2,0.5,0.2s0.3,0.1,0.5,0.2c0.4,0.2,0.9,0.4,1.4,0.6c0,0,0.1,0,0.1,0c0.4,0.4,1,0.5,1.4,0.8
		c0.4,0.3,0.9,0.4,1.3,0.8c0.3,0,0.5,0.3,0.8,0.4c0.7,0.4,1.4,0.8,2,1.3c0.7,0.4,1.3,0.9,1.9,1.3c0.4,0.3,0.8,0.7,1.2,1.1
		c0.1,0.1,0.2,0.2,0.3,0.3C527,1526.5,527.1,1526.6,527.2,1526.9z M536.5,1565.3c0.2,0,0.3-0.2,0.2-0.4l-0.3-0.2
		c0.2-0.3-0.2-0.4-0.1-0.7c0-0.3,0-0.5-0.1-0.8c-0.1,0-0.1,0.2-0.3,0.1c0,0.2,0.2,0.5-0.1,0.6l0.2,0.1c0,0.2,0,0.4,0,0.6
		c0,0.2-0.1,0.4,0.1,0.5c-0.2,0.2,0.1,0.3,0.1,0.5c0,0.2,0,0.4,0.1,0.5c0,0.2,0.1,0.4,0.2,0.6c0.1,0.2,0.1,0.4,0.1,0.5
		c0,0.2-0.1,0.4,0.1,0.6c0.1,0.2,0.1,0.4,0.1,0.6c0.3,0.1,0.2,0.3,0.1,0.6l0.1,0c0.1,0.1-0.1,0.1,0,0.2c0.2,0.2,0.2,0.4,0.3,0.7
		c0,0.3,0.1,0.5,0.2,0.7c0.2,1,0.4,1.9,0.5,2.9c0,0.1,0.1,0.1,0,0.2c-0.1,0.3,0,0.6,0,0.9c0.1,0.3,0.1,0.7,0.1,1
		c0,0.5,0,0.9,0.1,1.4c-0.1,0-0.1,0-0.1,0c0,0.3,0.2,0.5,0.1,0.7c-0.1,0.2,0,0.4,0,0.7c0.2-0.4,0.2-0.4,0.2-0.8
		c0.2-0.1,0.1-0.3,0.3-0.4c-0.1-0.1-0.4-0.3-0.2-0.5c0,0,0-0.1,0-0.1c-0.2-0.3-0.1-0.6-0.1-0.9c0-0.2-0.1-0.5,0.2-0.7
		c-0.1-0.2-0.2-0.4-0.2-0.7l0.2,0l-0.2-0.4c0.1-0.1,0.1-0.3,0.1-0.5l-0.2-0.1c0.1-0.1,0-0.3,0-0.4c0-0.1,0.1-0.3-0.1-0.4
		c-0.1-0.1-0.1-0.3-0.1-0.4c0-0.1,0.2-0.2,0.2-0.3l-0.3,0.2c0.2-0.2,0-0.3-0.1-0.5c0-0.3-0.1-0.5-0.1-0.8c-0.2-0.1,0.1-0.2-0.1-0.3
		c-0.2-0.1,0.2-0.2,0-0.3l0,0l-0.2-1c0-0.1,0.1,0,0.1-0.1c0-0.2-0.3,0.1-0.3-0.2c0-0.1,0.1,0,0.1-0.1c0-0.1-0.2-0.1-0.2-0.2
		c0.1,0,0.2,0,0.2-0.1c0-0.1,0-0.1-0.1-0.2c-0.2-0.1-0.3-0.3-0.3-0.5c-0.2-0.1,0-0.3-0.1-0.4c0-0.1,0-0.3-0.1-0.5
		C536.7,1566.4,536.6,1565.8,536.5,1565.3L536.5,1565.3z M531.6,1540c0,0.4,0.2,0.8,0.2,1.1c0.1,0.3,0.2,0.6,0.3,0.9
		c0.1,0.3,0.2,0.7,0.3,1c0.2,0.5,0.3,1,0.4,1.5c0,0.1,0,0.3,0.1,0.4c0.2,0.3,0.2,0.6,0.2,0.9c0.1,0.3,0.2,0.6,0.3,0.9
		c0,0.1,0,0.1,0,0.3c0.2,0.5,0.2,1,0.4,1.5c-0.1,0.2,0.1,0.3,0.1,0.5c0,0.2,0.1,0.3,0.1,0.5c0.2-0.1,0.1-0.3,0.1-0.4
		c0-0.6,0-1.2-0.1-1.7c-0.2-1.1-0.4-2.2-0.8-3.3c-0.1-0.3-0.1-0.5-0.2-0.8c-0.3-0.9-0.7-1.8-1-2.7
		C531.8,1540.4,531.7,1540.2,531.6,1540z M532.4,1535.1l0,0.2c0.1,0,0.3,0,0.4,0c0.1,0.2-0.2,0.2-0.1,0.4c0.1,0,0.1-0.1,0.2-0.1
		c0.2,0.1,0.2,0.3,0.3,0.4c0,0.1-0.1,0.1-0.1,0.2c0.1,0,0.3,0,0.3,0.2c0.1,0.3,0.4,0.5,0.4,0.9c0,0.1,0.2,0.2,0.1,0.3
		c0.2,0.1,0.3,0.3,0.4,0.5c0.3,0.6,0.6,1.2,0.9,1.8c0.3,0.8,0.7,1.6,1,2.5c0.2,0.6,0.4,1.2,0.5,1.8c0,0.1,0.1,0.1,0.1,0.1
		c-0.4-2.4-1.2-4.7-2.5-6.7c0.1,0,0.2,0,0.2-0.1c-0.1-0.2-0.2-0.3-0.3-0.5c0-0.2-0.2-0.3-0.4-0.3c0,0,0,0,0,0l-0.3-0.5
		c0-0.1,0.1-0.1,0.1-0.2c-0.1-0.2-0.2-0.5-0.5-0.6c0.1-0.2-0.1-0.3-0.1-0.4c-0.2,0-0.1-0.4-0.4-0.3c-0.2,0-0.3-0.1-0.2-0.3l0.1,0
		c-0.1-0.1-0.1-0.3-0.2-0.3c-0.1,0,0.1,0.2-0.1,0.2c-0.2-0.2-0.3-0.5-0.5-0.7c-0.1-0.2-0.2-0.3-0.4-0.3c0.1,0.2,0.3,0.4,0.2,0.6
		c0.1,0,0.2,0,0.2,0.1c0,0.2,0,0.2-0.1,0.3c0,0,0,0,0,0.1c0,0,0,0,0,0l0.2-0.1c0.2,0.3,0.4,0.7,0.6,1.1L532.4,1535.1z M458.4,1544.2
		c-0.1,0-0.2,0.1-0.2,0.2c-0.1,0.4-0.2,0.8-0.3,1.3c-0.2,0.7-0.4,1.5-0.5,2.3c-0.2,1.3-0.4,2.6-0.5,3.9c0,0.6-0.1,1.1-0.1,1.7
		c0,0.6,0,1.2,0,1.8c0,0.6,0.1,1.2,0.1,1.7c0,0.5,0.2,1,0.1,1.5c0,0.1,0,0.2,0.1,0.3c0,0.1,0,0.2,0.1,0.3c0.1,0,0.1-0.1,0.1-0.2
		c0,0,0,0,0,0c-0.1-0.3-0.1-0.6-0.1-0.9c0-0.7-0.1-1.4-0.1-2.2c0-0.4-0.1-0.8-0.1-1.2c0-0.8,0-1.7,0.1-2.5c0.1-1.1,0.2-2.3,0.3-3.4
		c0-0.3,0.1-0.5,0.2-0.8c0-0.6,0.1-1.1,0.3-1.7c0.1-0.4,0.1-0.9,0.3-1.3C458.3,1544.8,458.4,1544.5,458.4,1544.2L458.4,1544.2z
		 M466.7,1555c0,0.3,0,0.5-0.1,0.8c0,0.3,0,0.6,0,0.9c0,0.1,0.2,0.2,0,0.3c0.2,0.5,0.3,1,0.3,1.6l-0.2,0.1l0,0.2l0.2,0
		c0.1,0.1-0.2,0.2-0.1,0.3l0.2-0.1c0.3,0.2,0.3,0.2,0.1,0.5c0,0.1,0,0.1,0,0.1c0.1,0.1,0.1,0,0.2,0c0.1,0.1,0,0.3,0.2,0.3
		c0.1-0.3,0-0.6,0-0.9c0-0.4,0-0.7-0.1-1.1c0-0.4-0.1-0.7-0.1-1c0-0.4,0-0.8-0.1-1.2c0-0.1-0.1-0.3-0.1-0.4c0-0.1,0-0.3,0-0.4
		c0-0.2-0.1-0.3-0.1-0.4C466.8,1554.6,467,1555,466.7,1555L466.7,1555z M510.8,1560.4c-0.1,0.2,0.1,0.3,0.1,0.4
		c0,0.2,0.1,0.3,0.1,0.5c0.2,0.6,0.4,1.2,0.6,1.8c0.1,0.4,0.3,0.9,0.4,1.3c0.2,0.4,0.3,0.9,0.4,1.3c0.2,0.4,0.2,0.8,0.5,1.2
		c0.2,0,0.4-0.2,0.3-0.4c0,0,0-0.1,0-0.1c-0.1-0.4-0.3-0.8-0.4-1.2c-0.1-0.3-0.2-0.6-0.3-0.9c-0.2-0.6-0.4-1.1-0.7-1.7
		c-0.3-0.7-0.6-1.3-0.9-2C511,1560.5,511,1560.4,510.8,1560.4L510.8,1560.4z M503,1521.2c0.1,0,0.3,0.1,0.4,0c0.1,0,0.1-0.1,0.2,0
		c0.4,0.2,0.9,0.3,1.3,0.4c0.2,0.1,0.5,0.1,0.7,0.2c0.7-0.1,1.4-0.1,2.1-0.2c0.1,0,0.1,0,0.2,0c0.1,0.1,0.2,0,0.3,0
		c0.1,0,0.2,0,0.3-0.1c-0.8-0.2-1.5-0.3-2.3-0.3c-0.7-0.1-1.4-0.1-2.2-0.1c-0.3,0-0.7-0.1-1-0.1c0,0-0.1,0-0.1,0L503,1521.2z
		 M479.2,1544.2c0.3,0.2,0.4,0.6,0.6,0.8c0.3,0.3,0.6,0.7,0.8,1c0.2,0.3,0.5,0.6,0.7,0.8c0.3,0.3,0.5,0.6,0.7,0.9
		c0.3,0.3,0.6,0.6,0.8,0.9c0.1,0.2,0.3,0.4,0.4,0.5c0.2,0.2,0.4,0.4,0.5,0.6c0.1,0.2,0.4,0.3,0.4,0.6c0,0.1,0.1,0.1,0.2,0.1
		c0,0,0.1,0,0.1,0c0,0.3,0.3,0.4,0.5,0.7c0-0.1,0.1-0.1,0-0.2c-0.4-0.5-0.7-1-1.1-1.4c-0.1-0.2-0.3-0.3-0.4-0.5
		c-0.2-0.4-0.5-0.8-0.9-1.1c-0.3-0.3-0.6-0.7-0.9-1.1c-0.7-0.8-1.4-1.5-2-2.3C479.6,1544.6,479.5,1544.2,479.2,1544.2L479.2,1544.2z
		 M470.1,1534.1c-0.2-0.1-0.2-0.1-0.3-0.1c0.1-0.2-0.2-0.3-0.2-0.5c0.2-0.2,0.4-0.5,0.5-0.8c0-0.2,0-0.2-0.1-0.2
		c-0.1,0.2-0.3,0.4-0.3,0.6c-0.1,0.1-0.2-0.1-0.3,0c-0.2,0.2-0.4,0.5-0.5,0.8c-0.1,0.3-0.3,0.5-0.5,0.8c-0.2,0.3-0.4,0.5-0.6,0.8
		c0,0.1-0.1,0.1-0.1,0.2c0,0,0,0.1,0,0.1c0.1,0,0.1,0.1,0.2,0.1c0.1-0.3,0.1-0.3,0.4-0.4c0.1,0,0.1,0.1,0.2,0.1
		c0.2,0.1,0.2-0.2,0.4-0.2c0.1,0,0.1,0.2,0.3,0.1c-0.1-0.2-0.4-0.2-0.3-0.4c0.3-0.1,0.3-0.1,0.1-0.4c-0.1-0.1-0.1,0.1-0.2,0.1
		c0.1-0.1,0.1-0.3,0.3-0.2c0.1,0,0.2-0.1,0.3-0.1c0.1-0.1,0-0.2,0.1-0.2c0.1-0.1,0.3,0,0.4,0c0,0.1,0,0.2,0.1,0.3
		c0.2-0.1,0-0.2,0.1-0.3L470.1,1534.1z M528.2,1546.5c0-0.2-0.1-0.5-0.1-0.7s0-0.4-0.1-0.6c-0.1-0.3-0.2-0.6-0.3-0.9
		c-0.1-0.6-0.3-1.2-0.5-1.7c-0.3-0.9-0.7-1.7-1.1-2.6c-0.1-0.2-0.2-0.4-0.3-0.6c0.7,2.3,1.7,4.6,2.3,7
		C528.1,1546.4,528.1,1546.4,528.2,1546.5z M484.1,1560.6c0.3,0.9,0.7,1.8,1.2,2.7c0.6,1,1.1,2.1,1.7,3.1c0,0.1,0.2,0.2,0.3,0.2
		c-0.9-2-2-3.9-3-5.8C484.2,1560.6,484.1,1560.6,484.1,1560.6L484.1,1560.6z M463.9,1562.3c0.1-0.5-0.1-1-0.1-1.4c0-0.5,0-1-0.1-1.5
		c0-0.5-0.1-1-0.2-1.5c-0.1,0-0.1,0.1-0.1,0.2c0.1,0.4-0.2,0.8,0,1.1c-0.2,0.2,0,0.5,0,0.7c0,0.2,0,0.3-0.1,0.4
		c0.1,0.2,0.1,0.4,0.1,0.6c0,0.2,0.1,0.4,0,0.5c0.3,0.1,0.3,0.1,0.2,0.5c0.1,0,0.1,0,0.2,0.1L463.9,1562.3z M468.1,1560.1
		c0.2-1.2,0-2.4-0.5-3.6c0,0.2-0.1,0.4,0.1,0.7c0.1,0.1,0,0.2,0.1,0.3c0.1,0.2-0.1,0.2-0.1,0.4c0.1,0.2,0,0.4,0.1,0.5
		c0.1,0.2,0,0.3,0,0.5c0.1,0.2,0.1,0.3,0.1,0.5c0,0.2,0.1,0.3,0,0.5c-0.1,0.1,0.2,0.3,0,0.4c0.1,0.3,0,0.5,0.1,0.8
		c0,0.1,0.1,0.1,0.2,0.1c0.1-0.2,0.1-0.4,0-0.6c0.1-0.1,0.2,0,0.2-0.2c0,0,0,0,0,0C468.4,1560.2,468.2,1560.1,468.1,1560.1
		L468.1,1560.1z M511.8,1576.2c-0.1,0.1-0.2,0.1-0.3,0.2c0,0.2,0,0.3,0,0.5c0,0.2,0.1,0.4,0.3,0.5c0.1,0.1,0,0.2,0,0.3
		c0.3,0.3,0.6,0.4,1,0.3C512.4,1577.4,512.3,1576.7,511.8,1576.2z M481.2,1586.5c0.2,0.2,0.5,0.3,0.8,0.4c0.4,0.2,0.8,0.3,1.2,0.5
		c0.6,0.2,1.3,0.4,1.9,0.5c0.2,0.1,0.4,0.1,0.7,0.1c0.2,0,0.5,0,0.7,0.1c0,0,0.1,0,0.1-0.1c-0.1-0.1-0.2-0.1-0.3-0.1
		c-0.5-0.1-1-0.3-1.5-0.4c-0.5-0.1-1.1-0.3-1.6-0.5c-0.3-0.1-0.6-0.2-0.8-0.3C482,1586.6,481.6,1586.5,481.2,1586.5z"/>
	<g id="Group_4299" transform="translate(1366.332 1854.101)">
		<g id="Group_4298">
			<g id="Group_4285" transform="translate(12.33 69.184)">
				<rect id="Rectangle_2165" x="-888.8" y="-367.7" class="st1 dark-color" width="34.9" height="3.1"/>
			</g>
			<g id="Group_4286" transform="translate(12.33 75.349)">
				<rect id="Rectangle_2166" x="-888.8" y="-367.7" class="st1 dark-color" width="34.9" height="3.1"/>
			</g>
			<g id="Group_4287" transform="translate(12.33 80.487)">
				<rect id="Rectangle_2167" x="-888.8" y="-367.7" class="st1 dark-color" width="34.9" height="3.1"/>
			</g>
			<g id="Group_4288" transform="translate(12.33 86.652)">
				<rect id="Rectangle_2168" x="-888.8" y="-367.7" class="st1 dark-color" width="34.9" height="3.1"/>
			</g>
			<g id="Group_4289" transform="translate(23.975 88.407)">
				<path id="Path_17860" class="st1 dark-color" d="M-876.8-360.2h-12v-7.5h3v4.5h6v-4.5h3L-876.8-360.2z"/>
			</g>
			<g id="Group_4290">
				<path id="Path_17861" class="st1 dark-color" d="M-843.8-279.3h-3v-33.9l0.8-0.4c8.8-4.9,14.2-14.1,14.2-24.2c0.1-14.9-11.9-27-26.8-27.1
					c-14.9-0.1-27,11.9-27.1,26.8c0,0.1,0,0.2,0,0.3c0,10,5.4,19.3,14.2,24.2l0.8,0.4v33.9h-3v-32.1c-9.3-5.5-15-15.5-15-26.4
					c0-16.6,13.4-30,30-30s30,13.4,30,30c0,10.8-5.7,20.8-15,26.4V-279.3z"/>
			</g>
			<g id="Group_4291" transform="translate(23.632 55.827)">
				<rect id="Rectangle_2169" x="-888.8" y="-367.7" class="st1 dark-color" width="3.1" height="14.4"/>
			</g>
			<g id="Group_4292" transform="translate(32.879 55.827)">
				<rect id="Rectangle_2170" x="-888.8" y="-367.7" class="st1 dark-color" width="3.1" height="14.4"/>
			</g>
			<g id="Group_4293" transform="translate(29.797 29.113)">
				<rect id="Rectangle_2171" x="-888.8" y="-367.7" class="st1 dark-color" width="46.2" height="3.1"/>
			</g>
			<g id="Group_4294" transform="translate(61.435 22.476)">
				<path id="Path_17862" class="st1 dark-color" d="M-867.8-352.7h-13.5c-0.4,0-0.8-0.2-1.1-0.4l-6-6c-0.6-0.6-0.6-1.5,0-2.1l6-6
					c0.3-0.3,0.7-0.4,1.1-0.4h13.5c0.8,0,1.5,0.7,1.5,1.5c0,0.4-0.2,0.8-0.4,1.1l-4.9,4.9l4.9,4.9c0.6,0.6,0.6,1.5,0,2.1
					C-867-352.9-867.4-352.7-867.8-352.7L-867.8-352.7z M-880.7-355.7h9.2l-3.4-3.4c-0.6-0.6-0.6-1.5,0-2.1l3.4-3.4h-9.2l-4.5,4.5
					L-880.7-355.7z"/>
			</g>
			<g id="Group_4295" transform="translate(8.991 8.991)">
				<path id="Path_17863" class="st1 dark-color" d="M-867.8-325.7c-11.6,0-21-9.4-21-21c0-11.6,9.4-21,21-21s21,9.4,21,21l0,0
					C-846.8-335.1-856.2-325.7-867.8-325.7z M-867.8-364.7c-9.9,0-18,8.1-18,18s8.1,18,18,18c9.9,0,18-8.1,18-18v0
					C-849.8-356.6-857.9-364.7-867.8-364.7L-867.8-364.7z"/>
			</g>
			<g id="Group_4296" transform="translate(17.981 17.981)">
				<path id="Path_17864" class="st1 dark-color" d="M-876.8-343.7c-6.6,0-12-5.4-12-12s5.4-12,12-12s12,5.4,12,12l0,0
					C-864.8-349.1-870.2-343.7-876.8-343.7z M-876.8-364.7c-5,0-9,4-9,9c0,5,4,9,9,9c5,0,9-4,9-9
					C-867.8-360.7-871.8-364.7-876.8-364.7L-876.8-364.7z"/>
			</g>
			<g id="Group_4297" transform="translate(26.714 27.058)">
				<circle id="Ellipse_220" class="st1 dark-color" cx="-885.7" cy="-364.6" r="3.1"/>
			</g>
		</g>
	</g>
</g>
</svg>
