<svg version="1.1" id="icons_discovery" xmlns="http://www.w3.org/2000/svg" xmlns:xlink="http://www.w3.org/1999/xlink" x="0px" y="0px"
	 viewBox="0 0 137.2 137.5" style="enable-background:new 0 0 137.2 137.5;" xml:space="preserve">
<style type="text/css">
	.st0{fill:#EF5E5E;}
</style>
<g>
	<path class="st0" d="M106.9,28.8h14.5l-6.4-6.4c-25.5-25.5-67-25.6-92.5-0.1C3.2,41.5-2.2,70.8,8.9,95.3L6,96.6
		C-5.7,71,0,40.2,20.2,20C33.5,6.7,51,0,68.6,0c17.6,0,35.2,6.7,48.6,20.1l7.3,7.3V11.3h3.2V32h-20.8V28.8z"/>
	<path class="st0" d="M117,117.5c-26.7,26.7-70.2,26.6-97-0.1l-7.3-7.3v16.2H9.5v-20.8h20.8v3.2H15.8l6.4,6.4
		c25.5,25.5,67,25.6,92.5,0.1C134,96,139.4,66.7,128.2,42.2l2.9-1.3C142.9,66.6,137.2,97.4,117,117.5z"/>
</g>
<g>
	<path class="dark-color" d="M77.4,53.2l-6-8c-0.2-0.3-0.5-0.4-0.8-0.4h-24c-0.3,0-0.6,0.1-0.8,0.4l-6,8c-0.3,0.4-0.3,0.9,0,1.3l18,21
		c0.2,0.2,0.5,0.3,0.8,0.3s0.6-0.1,0.8-0.3l18-21C77.6,54,77.7,53.5,77.4,53.2z M68.6,46.8l-4,5.3l-4-5.3H68.6z M62.6,52.8h-8l4-5.3
		L62.6,52.8z M56.6,46.8l-4,5.3l-4-5.3H56.6z M46.6,47.4l4,5.3h-8L46.6,47.4z M42.8,54.8h9.1l4.5,15.9L42.8,54.8z M58.6,71.1
		l-4.7-16.4h9.3L58.6,71.1z M60.8,70.6l4.5-15.9h9.1L60.8,70.6z M66.6,52.8l4-5.3l4,5.3H66.6z"/>
	<path class="dark-color" d="M52.7,77.1c1.5,3.6,2.9,7.5,2.9,11.6v12h2v-12c0-4.5-1.5-8.6-3.1-12.4L52.7,77.1z"/>
	<path class="dark-color" d="M97.5,71.3l-5.9-12.8c-0.1-12-9.9-21.8-22-21.8c-4.5,0-8.9,1.4-12.6,3.9l1.1,1.6c3.4-2.3,7.3-3.6,11.4-3.6c11,0,20,9,20,20
		c0,0.1,0,0.3,0.1,0.4L95.6,72v0.8h-5c-0.6,0-1,0.4-1,1v9c0,2.8-2.2,5-5,5h-6h-3v2h2v11h2v-11h5c3.9,0,7-3.1,7-7v-8h5
		c0.6,0,1-0.4,1-1v-2C97.6,71.6,97.6,71.5,97.5,71.3z"/>
</g>
</svg>
