<svg version="1.1" id="icons_target" xmlns="http://www.w3.org/2000/svg" xmlns:xlink="http://www.w3.org/1999/xlink" x="0px" y="0px"
	 viewBox="0 0 137.2 137.5" style="enable-background:new 0 0 137.2 137.5;" xml:space="preserve">
<style type="text/css">
	.st0{fill:#EF5E5E;}
</style>
<g>
	<path class="st0" d="M106.9,28.8h14.5l-6.4-6.4c-25.5-25.5-67-25.6-92.5-0.1C3.2,41.5-2.2,70.8,8.9,95.3L6,96.6
		C-5.7,71,0,40.2,20.2,20C33.5,6.7,51,0,68.6,0c17.6,0,35.2,6.7,48.6,20.1l7.3,7.3V11.3h3.2V32h-20.8V28.8z"/>
	<path class="st0" d="M117,117.5c-26.7,26.7-70.2,26.6-97-0.1l-7.3-7.3v16.2H9.5v-20.8h20.8v3.2H15.8l6.4,6.4
		c25.5,25.5,67,25.6,92.5,0.1C134,96,139.4,66.7,128.2,42.2l2.9-1.3C142.9,66.6,137.2,97.4,117,117.5z"/>
</g>
<g>
	<path class="dark-color" d="M85.6,73.8v-2c0-0.1,0-0.2-0.1-0.3l-3-9l-1.9,0.6l2.9,8.8v0.8h-4c-0.6,0-1,0.4-1,1v9c0,2.8-2.2,5-5,5h-6h-3v2h2v11h2v-11h5
		c3.9,0,7-3.1,7-7v-8h4C85.1,74.8,85.6,74.3,85.6,73.8z"/>
	<path class="dark-color" d="M38.6,58.8c0-11,9-20,20-20c9.4,0,17.4,6.4,19.5,15.5l1.9-0.4c-1.5-6.4-5.6-11.6-11.1-14.5c1.5-0.4,3.1-0.6,4.7-0.6
		c5,0,9.4,1.9,13.3,5.7c0.9,1,2.4,3.1,2.8,5.5c0.2,1.3,0.2,3.8-1.4,5.6c-1.3,1.5-3.6,2.3-6.6,2.3H56l3.3-3.3L57.9,53l-5,5
		c-0.4,0.4-0.4,1,0,1.4l5,5l1.4-1.4L56,59.8h25.6c3.6,0,6.4-1,8.1-3c2.1-2.4,2.1-5.5,1.9-7.2c-0.4-2.9-2.2-5.4-3.3-6.6
		c-4.3-4.2-9.1-6.3-14.7-6.3c-2.6,0-5.1,0.5-7.5,1.3c-2.4-0.9-4.9-1.3-7.5-1.3c-12.1,0-22,9.9-22,22c0,6.2,2.2,11.5,4.3,16.5
		c1.9,4.6,3.7,8.9,3.7,13.5v12h2v-12c0-5-1.9-9.5-3.9-14.3C40.7,69.6,38.6,64.6,38.6,58.8z"/>
	<path class="dark-color" d="M100.5,71.4l-5-13l-1.9,0.7l4.9,12.8v0.8h-4c-0.6,0-1,0.4-1,1v9c0,2.8-2.2,5-5,5h-6c-0.6,0-1,0.4-1,1v12h2v-11h5
		c3.9,0,7-3.1,7-7v-8h4c0.6,0,1-0.4,1-1v-2C100.6,71.6,100.6,71.5,100.5,71.4z"/>
	<path class="dark-color" d="M71.6,64.1l-1.9-0.7c-1.9,5-6.8,8.4-12.1,8.4c-7.2,0-13-5.8-13-13c0-7.2,5.8-13,13-13c5.4,0,10.2,3.4,12.1,8.4l1.9-0.7
		c-2.2-5.8-7.8-9.6-14-9.6c-8.3,0-15,6.7-15,15c0,8.3,6.7,15,15,15C63.8,73.8,69.4,69.9,71.6,64.1z"/>
</g>
</svg>
