<svg version="1.1" id="Layer_1_planning" xmlns="http://www.w3.org/2000/svg" xmlns:xlink="http://www.w3.org/1999/xlink" x="0px" y="0px"
	 viewBox="0 0 94.7 100.2" style="enable-background:new 0 0 94.7 100.2;" xml:space="preserve">
<style type="text/css">
	.st0{fill:#A5DFD3;}
	.st1{fill:#363F40;}
</style>
<g id="Group_7840" transform="translate(-456.582 -1495.414)">
	<path id="scribbles-scribbles-21" class="st0 accent-color blue-color" d="M494.3,1579.7c-0.1-0.1-0.1-0.1-0.1-0.1c-0.9-0.1-1.7-0.2-2.6-0.3
		c0,0,0-0.1,0-0.2c-0.1-0.1-0.4,0-0.5-0.2c0,0-0.2,0-0.3,0c-0.2,0.1-0.4,0.1-0.5-0.1c0,0,0,0,0,0c0-0.1,0.2,0,0.2-0.1
		c-0.2-0.2-0.3,0-0.4,0c-0.2,0,0-0.2-0.1-0.2c-0.1,0-0.1,0.1-0.1,0.2c-0.8,0.1-0.7,0-1.3-0.3c-0.2,0-0.2,0.3-0.3,0.5
		c-0.1-0.4-0.4,0-0.6-0.2c0.1-0.1,0.3-0.2,0.3-0.4c-0.2,0-0.3-0.1-0.5,0c-0.1,0.2-0.4,0.2-0.6,0c0,0,0,0,0,0c-0.1,0-0.2,0-0.2,0
		l-0.1,0.2c0,0-0.1-0.1-0.1-0.1c0-0.1,0-0.2,0-0.3c0-0.1-0.1-0.3-0.3-0.1c-0.1,0.1-0.2-0.2-0.3,0c0,0,0-0.1-0.1-0.2
		c-0.1-0.1-0.2,0.2-0.3,0c0-0.1-0.1-0.1-0.2-0.1c-0.4,0.2-0.7-0.1-1-0.4c0,0,0,0-0.1,0c0,0-0.1,0-0.1-0.1l0.4-0.2
		c0.2,0.1,0.2,0.3,0.3,0.4c0.2,0,0.3-0.1,0.4-0.2c0-0.2-0.3-0.1-0.4-0.2c-0.1-0.1-0.3-0.2-0.4-0.2c-0.2,0-0.4,0-0.6,0
		c0-0.2-0.1-0.5-0.3-0.6c-0.2,0-0.2,0.2-0.3,0.3c-0.2-0.1,0-0.4,0.3-0.6c-0.2-0.4-0.5,0-0.7-0.1c-0.1-0.1,0-0.3-0.1-0.3
		c-0.2-0.1-0.3,0.2-0.3,0.3c-0.2-0.1-0.3,0-0.4-0.1c-0.1,0,0,0.3-0.3,0.2c-0.1-0.1,0-0.2,0.1-0.3c-0.1-0.2-0.4-0.2-0.4-0.4
		c-0.1,0.1-0.2,0.2-0.2,0.3c-0.3-0.2-0.6,0.3-0.9-0.1c0.1-0.1,0.3,0,0.2-0.2c-0.2-0.1-0.3,0.1-0.5,0.1c-0.2-0.1-0.3-0.1-0.5-0.2
		c0-0.1,0.2-0.1,0.1-0.3c-0.1,0-0.1,0-0.2,0c-0.1,0.1-0.2,0.1-0.3,0c0,0,0,0,0,0c-0.2-0.2-0.5-0.3-0.7-0.4c-0.2-0.1-0.5-0.1-0.5-0.5
		c0,0-0.1,0-0.1,0c-0.2,0-0.3-0.2-0.5-0.2s-0.2-0.2-0.4-0.3c-0.2-0.1-0.3-0.3-0.4-0.3c-0.2,0-0.1-0.3-0.3-0.3c0-0.2-0.2-0.3-0.3-0.5
		l-0.4,0c-0.1-0.1-0.2-0.4,0-0.5c-0.1-0.1-0.3,0-0.4-0.1l-0.1-0.2l-0.4,0l-0.1-0.2c-0.2-0.1-0.3,0.2-0.5,0c0-0.1,0.1,0,0.1-0.1
		c-0.2,0-0.3-0.2-0.5-0.1c-0.1-0.2,0.1-0.4-0.2-0.6l-0.5,0c-0.2-0.4-0.5-0.7-0.6-1.1c-0.1,0-0.1,0.1-0.1,0.2c-0.1,0-0.2-0.2-0.3-0.2
		c-0.2,0-0.2-0.1-0.2-0.2c-0.1-0.1-0.2-0.2-0.2-0.4l-0.2,0c0,0-0.1-0.1-0.1-0.1c0-0.1,0-0.1,0-0.2c-0.1-0.1-0.3,0-0.4-0.1
		c-0.1-0.1-0.1-0.4-0.4-0.4c-0.1,0-0.1-0.2-0.1-0.3c-0.2-0.3-0.4-0.6-0.7-0.8c-0.1-0.1-0.2-0.3-0.3-0.4c-0.1-0.2-0.3-0.2-0.4-0.3
		c-0.1-0.1-0.1-0.4-0.3-0.4c-0.1,0,0-0.1-0.1-0.2c-0.1-0.1-0.1-0.3-0.3-0.3c-0.3-0.1-0.3-0.5-0.5-0.7c-0.2-0.2-0.3-0.4-0.4-0.6
		c-0.1-0.2-0.4-0.2-0.3-0.5c-0.3-0.2-0.4-0.6-0.6-0.8c-0.1-0.1-0.2-0.2-0.2-0.4c0-0.1-0.3-0.1-0.1-0.3c-0.1-0.1-0.3-0.2-0.3-0.4
		c0,0-0.1,0-0.2-0.1c-0.1-0.3-0.3-0.5-0.4-0.7c0-0.1-0.1-0.2-0.1-0.2c-0.4-0.4-0.6-1-0.9-1.5c0,0-0.1-0.1-0.1-0.1
		c-0.1-0.4-0.3-0.8-0.4-1.1c-0.2-0.3-0.4-0.7-0.5-1c-0.1-0.2-0.2-0.3-0.3-0.6c0-0.2-0.2-0.4-0.3-0.6l0.2-0.2
		c-0.3-0.1-0.4-0.4-0.5-0.7c0-0.1-0.1-0.2-0.1-0.3c-0.3-0.6-0.5-1.2-0.7-1.9c0-0.1-0.1-0.1-0.1-0.2c-0.2-0.3-0.2-0.6-0.2-1
		c0-0.5-0.1-1-0.3-1.4c-0.3-0.7-0.6-1.3-0.8-2c-0.2-0.5-0.3-0.9-0.5-1.4c-0.1-0.5-0.3-1-0.6-1.5c0.2-0.2,0.1-0.4,0-0.7
		c0-0.3-0.4-0.2-0.4-0.5c-0.1-0.2,0.1-0.2,0.1-0.4c-0.1-0.1-0.2,0-0.3-0.1c-0.1-0.1,0-0.2,0.1-0.2c0,0,0,0,0-0.1
		c-0.1-0.1-0.2-0.3-0.2-0.5c0-0.1-0.1-0.2-0.1-0.3c-0.1-0.2-0.1-0.3,0.1-0.4c-0.2-0.2-0.3-0.4-0.3-0.7c0-0.1-0.3-0.3-0.2-0.5
		c-0.1-0.1-0.1-0.2-0.1-0.4c0.1-0.2-0.2-0.1-0.2-0.3c0-0.5-0.2-1-0.2-1.5c0-0.3,0-0.6-0.1-0.8c-0.1-0.1,0.1-0.1,0.1-0.2l-0.2-0.2
		c0-0.2,0-0.4,0.1-0.5c0.1-0.1,0-0.1,0-0.1c-0.2-0.4-0.3-0.8-0.3-1.3c-0.1-0.3,0-0.6-0.1-0.9c-0.1-0.4,0.1-0.9-0.1-1.3
		c0.1-0.4,0-0.7,0.2-1.1c0.1-0.2,0-0.4,0.1-0.6c0.1-0.7,0.3-1.4,0.7-2.1c0.2-0.3,0.4-0.6,0.6-0.9c0.1-0.4,0.4-0.6,0.5-1
		c0.1-0.3,0.3-0.5,0.6-0.8c0.4-0.4,0.6-0.8,0.8-1.3c0-0.1,0.1-0.2,0.1-0.2c0.2-0.3,0.3-0.6,0.5-0.8c0.2-0.3,0.4-0.6,0.6-0.8
		c0.3-0.3,0.5-0.7,0.9-0.9c0.2-0.1,0.4-0.3,0.6-0.5c0.2-0.1,0.4-0.2,0.6-0.4c0.1-0.1,0.2-0.2,0.4-0.2c0.4-0.2,0.6-0.6,1-0.8
		c0.2-0.1,0.3-0.3,0.5-0.4c0.2-0.1,0.3-0.3,0.5-0.4c0.8-0.7,1.7-1.3,2.7-1.7c0.1-0.1,0.2-0.3,0.3-0.3c0.1,0,0.2-0.1,0.3-0.2
		c0.6-0.3,1.1-0.6,1.7-0.9c0.1-0.1,0.3-0.2,0.5-0.1c0.1,0.1,0.2-0.1,0.3-0.1c0.3-0.2,0.7-0.3,1.1-0.3c0.2,0,0.3-0.1,0.5-0.1l0.5,0.1
		c0.3,0.2,0.6,0,0.8-0.2c0.3-0.2,0.6-0.3,0.9-0.5c0.3-0.2,0.7-0.3,1-0.5c0.4-0.2,0.9-0.3,1.3-0.5c0.8-0.3,1.6-0.5,2.4-0.7
		c0.4-0.1,0.9-0.2,1.3-0.3c0.5-0.2,1-0.3,1.5-0.3c0.2-0.2,0.4,0,0.6-0.1c0.2-0.1,0.4-0.1,0.6-0.1c0.5-0.1,0.9-0.1,1.4-0.2
		c0.1,0,0.1,0,0.1,0.1c0.1,0.1,0.2,0.1,0.3,0c0.1-0.1,0.2-0.3,0.4-0.1c0.2,0,0.3-0.1,0.5-0.1c0.6-0.1,1.2,0.1,1.8-0.2c0,0,0,0,0.1,0
		c0.7,0.1,1.4-0.1,2.1,0c0.1,0,0.2,0.2,0.3,0.1c0.1-0.1,0.2-0.1,0.4,0c0.1,0,0.2,0,0.3-0.1c0.1-0.1,0.2,0.2,0.3,0.1
		c0.1-0.1,0.2,0,0.3,0c0.5,0,1,0.1,1.5,0.1c0.2,0,0.3,0.2,0.5,0.1c0.1,0.2,0.3,0.1,0.5,0.1c0.2,0,0.4,0,0.6,0.1
		c0.2,0.1,0.4,0.2,0.7,0.1c0.2,0,0.4,0.2,0.7,0.2c0.1,0,0.2,0.1,0.2,0.1c0.3,0.1,0.7,0.2,1.1,0.3c0.6,0.2,1.2,0.4,1.8,0.6
		c0.4,0.2,0.7,0.4,1.1,0.6c0.7,0.4,1.3,0.9,1.9,1.4c0.4,0.3,0.7,0.6,1.1,0.9c0.4,0.3,0.7,0.7,1.1,1.1c0.3,0.3,0.6,0.6,0.9,0.9
		c0.1,0.1,0.2,0.2,0.2,0.4l0.1-0.1c0.1,0.2,0.3,0.3,0.4,0.5c0,0.2,0.3,0.2,0.4,0.3c0.3,0.4,0.8,0.7,0.9,1.2c0.2,0.1,0.4,0.3,0.5,0.5
		c0.3,0,0.1,0.3,0.3,0.4c0,0.1,0,0,0.1,0c0.1,0.2,0.3,0.3,0.4,0.6c0.1,0.2,0.3,0.4,0.4,0.6c0.1,0.2,0.3,0.4,0.5,0.6l0,0.4l0.3,0.1
		c0.1,0.3,0.1,0.6,0.3,0.8c0.2,0.2,0.2,0.5,0.4,0.7c0.1,0.2,0.2,0.4,0.3,0.6c0,0.1,0,0.2,0,0.3c0.4,0.4,0.6,0.9,0.7,1.4
		c0.3,0.5,0.4,1.1,0.7,1.5c0.1,0.1,0.1,0.3,0.1,0.4c0.3,0.7,0.6,1.4,1,2.1c0.3,0.5,0.5,1.1,0.7,1.7c0.1,0.3,0.3,0.7,0.5,1
		c0.5,0.6,0.9,1.3,1.4,1.9s1,1.3,1.5,1.9c0.7,1,1.6,1.8,2.3,2.8c0.5,0.6,1.1,1.2,1.7,1.8c0.5,0.5,1.1,1.1,1.6,1.6
		c0.7,0.7,1.4,1.3,2.1,2c0.8,0.7,1.7,1.4,2.6,2.1c0.8,0.6,1.7,1.2,2.5,1.8c0.7,0.5,1.5,1.1,2.2,1.6c0.5,0.4,1.1,0.8,1.6,1.2
		c0.7,0.5,1.3,1,2,1.6c0.3,0.2,0.6,0.4,0.8,0.7c0.1,0.1,0.3,0.2,0.4,0.4c0.1,0.2,0.3,0.2,0.4,0.3c0.4,0.4,0.9,0.8,1.3,1.2
		c0.5,0.5,1,0.9,1.4,1.4c0.1,0.1,0.2,0.3,0.3,0.4c0.1,0.1,0.3,0.2,0.4,0.4c0.1,0.2,0.3,0.1,0.3,0.4c0,0.1,0.2,0.2,0.3,0.3
		c0.3,0.3,0.4,0.6,0.7,0.9c0.3,0.3,0.5,0.6,0.8,0.9c0.3,0.5,0.8,1,1.1,1.5c0.4,0.5,0.7,1,0.9,1.5c0,0.2,0.3,0.1,0.2,0.2
		c0.5,0.8,1,1.6,1.5,2.5c0.2,0.3,0.3,0.7,0.5,1.1c0.3,0.5,0.5,0.9,0.6,1.4c0.3,0.6,0.5,1.2,0.6,1.8c0.3,0.2,0.2,0.6,0.4,0.8
		c0.1,0.1,0,0.2-0.1,0.2c0.3,0.5,0.5,0.9,0.6,1.4c0.2,0.6,0.4,1.2,0.6,1.9c0.3,1,0.5,2,0.6,3c0.1,0.4,0.1,0.8,0.1,1.2
		c0,0.4,0.1,0.8,0.2,1.1c0,0,0.1,0.1,0.1,0.1c-0.1,0.4,0.1,0.9,0,1.3c-0.1,0.3,0.1,0.6,0.1,1c-0.1,0.3-0.1,0.6-0.1,0.9
		c0.1,0.7,0.1,1.4-0.1,2c-0.1,0.4-0.1,0.9-0.2,1.3c-0.1,0.7-0.3,1.3-0.6,2c-0.4,0.9-0.9,1.7-1.5,2.4c-0.5,0.5-1.1,0.9-1.7,1.3
		c-0.4,0.2-0.9,0.4-1.4,0.5c-0.3,0.1-0.7,0.1-1.1,0.2c-0.5,0.1-1,0.1-1.6,0.2c-0.3,0-0.6,0.1-0.9,0c-1.3,0-2.6,0-3.9-0.1
		c-0.2,0-0.4-0.2-0.7-0.2c-0.2,0-0.5,0-0.7-0.1c-0.3-0.1-0.6-0.1-0.8-0.2c-0.3-0.1-0.6-0.1-0.8-0.2c-0.6-0.2-1.1-0.4-1.7-0.5
		c-0.9-0.5-1.9-0.7-2.8-1.2c-0.7-0.3-1.3-0.7-2-1c-0.5-0.3-1-0.6-1.5-0.8c-0.2-0.1-0.3-0.3-0.5-0.4c-0.2-0.1-0.4-0.1-0.6-0.3
		c-0.2-0.1-0.3-0.2-0.3-0.4c-0.4,0.1-0.5-0.3-0.8-0.4c-0.3-0.1-0.6-0.3-0.8-0.4c-0.3-0.2-0.5-0.3-0.8-0.5c-0.3-0.2-0.6-0.3-0.8-0.5
		c-0.3-0.2-0.6-0.3-0.8-0.4c-0.3-0.2-0.5-0.3-0.8-0.5c-0.3-0.2-0.6-0.2-0.8-0.4c-0.3-0.2-0.5-0.3-0.8-0.5c-0.1,0.1,0,0.1,0,0.2
		c-0.2,0.1-0.2,0-0.3-0.1c-0.1-0.1-0.2,0-0.3-0.1c-0.1-0.1-0.2-0.2-0.3-0.2c-0.1,0-0.2-0.1-0.3-0.1c-0.1,0-0.3,0-0.2-0.2
		c-0.1-0.1-0.2,0-0.4-0.1c0-0.2-0.2-0.3-0.3-0.3l0.3-0.1c-0.1-0.2-0.2-0.3-0.4-0.2c0,0-0.1,0-0.1,0c-0.2,0.2-0.4,0-0.5-0.1
		c-0.2,0-0.1,0.3-0.3,0.2c0-0.3-0.1-0.6-0.5-0.6c-0.2-0.3-0.6-0.3-0.9-0.5c-0.3-0.2-0.6-0.2-0.9-0.4c-0.1-0.1-0.3,0-0.5-0.1
		c-0.2-0.1-0.5-0.1-0.7-0.3c-0.1-0.1-0.4-0.1-0.6-0.2c-0.2,0-0.3-0.1-0.5-0.1l0-0.2c-0.3,0.1-0.5-0.1-0.8-0.1
		c-0.3-0.1-0.5-0.2-0.7-0.4c-0.1-0.1-0.3-0.1-0.4-0.1c-0.1,0.1-0.2-0.1-0.3,0c-0.1-0.2-0.5,0-0.6-0.3c0-0.1-0.2-0.1-0.3-0.2
		c-0.1,0.1-0.2,0.1-0.3,0.2c-0.4-0.2-0.4-0.2-0.5-0.4c-0.2,0.1-0.4,0.2-0.6-0.1c-0.1-0.2-0.4,0-0.6-0.2c-0.1,0.1-0.1,0.1-0.2,0.1
		c-0.1-0.2-0.4-0.1-0.5-0.2c-0.1-0.1-0.3-0.1-0.5-0.1c-0.2,0-0.3,0.1-0.5,0c-0.2-0.1-0.4,0-0.6-0.2c-0.1-0.1-0.1,0.1-0.3,0
		c-0.1-0.1-0.2,0.1-0.4,0c-0.1-0.1-0.3-0.1-0.5-0.1c-0.1,0-0.3,0-0.4,0c0,0.1,0,0.1,0,0.2c0,0.1-0.1,0.1-0.1,0.1
		c-0.2,0-0.3-0.2-0.5-0.2c-0.1,0-0.3,0-0.4-0.1c-0.1-0.1-0.2,0.1-0.3,0c-0.1,0-0.1-0.2-0.3-0.1c-0.6,0-1.2-0.3-1.9-0.2
		c-0.1-0.1,0.1-0.1,0.1-0.2c0,0,0,0,0,0c-0.6,0-1.2-0.3-1.8-0.3c-0.2,0-0.3-0.2-0.5,0c-0.1,0.1-0.2-0.2-0.4,0
		c-0.1-0.2-0.3-0.1-0.5-0.1c-0.2,0-0.3,0-0.5,0c-0.2,0-0.4,0-0.6,0c-0.2,0-0.3-0.3-0.5,0c-0.1-0.2-0.3-0.1-0.5-0.1
		c-0.2,0-0.4,0-0.6,0c-0.2,0-0.4,0-0.6,0c-0.3-0.1-0.6-0.2-0.9-0.2c-0.3,0-0.5-0.2-0.8-0.2l0-0.2
		C492.1,1579.6,493.2,1579.7,494.3,1579.7z M495.6,1513.5c-0.2-0.1-0.3-0.3-0.5-0.1c-0.1-0.2-0.2,0-0.3,0c-0.1,0-0.1-0.1-0.3-0.1
		c-0.2,0-0.4-0.3-0.6,0c-0.1,0.1-0.2-0.2-0.3-0.1c-0.1,0.1-0.2,0.1-0.3,0c-0.1-0.1-0.3,0-0.3-0.2c-0.3,0.2-0.7,0-1,0
		c-0.2,0-0.3-0.1-0.5,0.1c-0.1-0.2-0.4-0.2-0.5-0.1c-0.2,0.2-0.4-0.1-0.6,0c-0.2,0-0.5,0.1-0.7,0.1c-0.2,0-0.3,0-0.5,0
		c-0.2,0-0.4,0-0.6,0c-0.1,0-0.3,0.2-0.4,0c-0.2,0.1-0.3,0.1-0.5,0.1c-0.2,0-0.3,0-0.5,0c-0.2,0-0.5,0-0.7,0
		c-0.3,0.1-0.6,0.1-0.9,0.1c-0.1,0-0.1,0-0.2,0.1c-0.2,0.1-0.4,0.1-0.6,0.1c-0.2,0-0.4,0-0.6,0.1c-0.2,0.1-0.5,0-0.7,0.1
		c-0.3,0.1-0.6,0.2-0.9,0.2c-0.6,0-1.2,0.4-1.9,0.3c-0.1,0-0.2,0.2-0.3,0.2c-0.6,0.1-1.1,0.2-1.7,0.4c0.2,0,0.5,0.2,0.7-0.1
		c0.1-0.1,0.2-0.1,0.3,0c0.1,0,0.3,0.1,0.4,0c0.5-0.2,1.1-0.3,1.7-0.4c0.2-0.1,0.4,0,0.6-0.1c0.4-0.2,0.9-0.3,1.4-0.4
		c0.4-0.1,0.8-0.1,1.2-0.2c0.4-0.1,0.8-0.1,1.2-0.1c0.1,0,0.1,0,0.2,0c0.2-0.2,0.4-0.1,0.6-0.1c0.2,0,0.4-0.1,0.6-0.1
		c0.3,0,0.6,0,0.9,0c0.5-0.1,0.9,0.1,1.4,0c0.3,0,0.6,0,0.9,0.1c0.2,0,0.3-0.1,0.4,0c0.2,0.1,0.3,0,0.4,0c0.1,0,0.1,0,0.1,0.1
		c0.1,0.1,0.2,0.1,0.3,0c0.1-0.1,0.3-0.1,0.4-0.1c0.2,0,0.4,0,0.5,0.1c0.2-0.2,0.4,0,0.6-0.1c0.2,0,0.4,0.2,0.6,0
		C494.6,1513.6,495.1,1513.5,495.6,1513.5z M540,1559.4c-0.3-0.1-0.5-0.3-0.7-0.6c-0.4-0.6-1.1-0.9-1.4-1.5
		c-0.4-0.1-0.6-0.4-0.8-0.6c-0.4-0.3-0.8-0.6-1.2-0.9c-0.3-0.3-0.7-0.5-1-0.8c-0.3-0.3-0.7-0.5-1-0.8c-0.4-0.4-0.9-0.6-1.3-1
		c-0.3-0.3-0.6-0.5-0.9-0.6c0,0-0.1-0.1-0.1-0.1c-0.4-0.3-0.7-0.6-1.1-0.8c-0.7-0.5-1.4-1-2.1-1.5c-0.1-0.1-0.2-0.2-0.4-0.1
		c0.1,0.1,0.1,0.2,0.2,0.3c0.6,0.3,1.1,0.8,1.6,1.1c0.4,0.3,0.8,0.6,1.2,0.9c0.6,0.4,1.1,0.9,1.7,1.3c0.4,0.3,0.7,0.6,1.1,0.8
		c0.7,0.4,1.3,1,1.9,1.5c0.5,0.4,1,0.8,1.5,1.2c0.5,0.4,1,0.8,1.4,1.3c0.1,0.1,0.2,0.2,0.3,0.3c0.1,0.1,0.1,0.3,0.3,0.3
		c0.2,0.3,0.6,0.5,0.8,0.8c0,0,0.1,0.1,0.1,0C540,1559.6,540,1559.5,540,1559.4L540,1559.4z M498.3,1519.2c-0.1-0.1-0.1-0.2-0.2-0.2
		c-0.3,0-0.6-0.2-0.9-0.2c-0.7,0-1.4-0.1-2.1-0.1c-0.5,0-1.1-0.1-1.6-0.1c-0.5-0.1-1.1-0.1-1.6,0c-0.4,0.1-0.9,0-1.4,0
		s-0.9-0.1-1.4,0c-0.4,0-0.7,0-1.1-0.1c-0.4-0.1-0.8,0.1-1.1,0c-0.6,0-1.3,0.1-1.9,0.3c0.3,0.2,0.5,0,0.7,0c0.3,0,0.6,0,0.9,0
		c0.4-0.1,0.9,0,1.4,0c0.5-0.1,1,0.1,1.5,0c0.3-0.1,0.7,0,1.1,0c0.3,0,0.6,0,0.9,0.1c0.3,0.1,0.6-0.1,0.9-0.1c1.7,0.1,3.4,0.2,5,0.4
		C497.6,1519.1,497.9,1519.3,498.3,1519.2L498.3,1519.2z M474.8,1569.1c-0.1,0-0.1,0.1-0.3,0.1c-0.1-0.2-0.3-0.3-0.3-0.5
		c0-0.1,0-0.1-0.1-0.1c-0.2,0-0.3-0.2-0.4-0.2c-0.2-0.1-0.3-0.2-0.4-0.3c-0.1-0.1-0.2-0.2-0.2-0.4c0-0.1-0.3-0.2-0.4-0.2
		c-0.1-0.1-0.1-0.2-0.2-0.3c-0.1,0-0.3,0.1-0.3-0.1c0-0.2-0.2-0.1-0.2-0.2c-0.1-0.1,0-0.3-0.2-0.3c-0.3,0-0.4-0.3-0.7-0.4l0.2-0.2
		c-0.1-0.1-0.3,0-0.4,0c-0.1-0.2-0.1-0.3,0-0.5c-0.2,0.2-0.3,0.1-0.5,0.1c-0.1-0.2-0.3-0.3-0.5-0.6c0.2,0.8,0.9,1.1,1.3,1.6
		c-0.1,0.1-0.1,0.1-0.1,0.2c0.4,0.1,0.5,0.4,0.7,0.7l0.2-0.1c0.2,0.2,0.4,0.5,0.7,0.7c0.1,0.1,0.3,0.2,0.3,0.4
		c0,0.3,0.2,0.5,0.4,0.6c0.1,0.1,0.1,0.1,0.1,0.2c0,0.1,0,0.1,0.1,0c0.1-0.1,0-0.2,0.1-0.3c0,0,0.1,0,0.1,0c0.2,0.1,0.2,0.4,0.4,0.5
		c0.2,0.1,0.4,0.1,0.6,0.3c0,0,0,0,0,0c0,0.1-0.4,0.2-0.1,0.4l0.5-0.4C475.1,1569.5,474.8,1569.4,474.8,1569.1L474.8,1569.1z
		 M497.8,1517.4c-0.6-0.2-1.2-0.3-1.8-0.3c-0.8-0.1-1.7-0.1-2.5-0.2c-1.1-0.1-2.3,0-3.4-0.1c0,0-0.1,0-0.1,0c-0.2,0-0.4,0.1-0.6,0.1
		c-0.3,0-0.5,0-0.8-0.1c-0.2-0.1-0.5,0.1-0.7,0.1c-0.3,0-0.5-0.1-0.8-0.1c-0.3,0-0.5-0.2-0.8,0c0,0-0.1,0-0.1,0
		c-0.2-0.2-0.3-0.1-0.5,0c-0.2,0.1-0.5,0.1-0.7,0.1c0,0-0.1,0-0.1,0.1c0,0.1,0,0.1,0.1,0.2c0.1,0.1,0.2-0.1,0.3-0.1
		c0.5,0,1.1,0,1.6,0c0.7-0.1,1.5-0.1,2.2,0c0,0,0.1,0,0.1,0c0.2-0.1,0.5-0.1,0.7,0c0.2,0,0.5,0,0.7-0.1c1,0,2,0.2,3,0.1
		c1,0,1.9,0.1,2.8,0.2c0.1,0,0.2,0,0.3,0C497.1,1517.5,497.5,1517.4,497.8,1517.4z M485,1515c0.2,0.2,0.4-0.1,0.6,0
		c0.9,0.1,1.8-0.1,2.6,0.1c0.1,0,0.2,0.1,0.3,0c0.2-0.1,0.5-0.1,0.7,0c0.2,0,0.5,0,0.7-0.1c0.7,0,1.3,0.1,2,0.1s1.3-0.1,2,0
		c0.5,0.1,1.1,0.1,1.6,0.1c0.1,0,0.3,0,0.4-0.1c-0.5,0.1-0.9-0.2-1.3-0.2c-0.4,0-0.8,0-1.2-0.1c-0.4,0-0.8,0.1-1.2,0
		c-0.6-0.1-1.1-0.1-1.7,0c-0.3,0-0.6,0-0.9,0c-0.3,0-0.6,0-0.9,0c-0.3,0-0.6,0-0.9,0c-0.2-0.1-0.4-0.1-0.6,0c-0.3,0.1-0.5,0-0.8,0.1
		c-0.3,0.1-0.6,0.1-0.9,0C485.3,1514.9,485.2,1515,485,1515z M538.4,1561.3l0.1-0.1c0.1,0.2,0.4,0.3,0.3,0.6c0.1,0,0.2,0,0.4,0
		c0.1,0,0.2,0.1,0.3,0.2c0.1,0.1-0.1,0.2-0.1,0.3l0.6,0.2c0,0.1-0.2,0-0.2,0.2c0.2-0.1,0.2,0.3,0.5,0.3c0.1-0.1,0.1-0.1,0.2-0.2
		c0.1-0.1-0.1-0.1-0.1-0.2c0.1,0,0.2,0,0.2-0.1c-0.1,0-0.2-0.3-0.4-0.1c-0.2-0.2-0.3-0.4-0.5-0.6c-0.1-0.2-0.3-0.3-0.4-0.5
		c-0.1-0.2-0.3-0.4-0.5-0.5c-0.2-0.1-0.4-0.3-0.5-0.5c-0.2-0.1-0.3-0.3-0.5-0.4c-0.2-0.2-0.3-0.3-0.5-0.5c-0.2-0.2-0.4-0.3-0.6-0.5
		c0.3,0.8,1,1.1,1.2,1.8c0.1,0.1,0.3,0,0.4,0.1L538.4,1561.3z M490.9,1566.4c0.1,0.2,0.3,0.3,0.6,0.5c0.5,0.3,1.1,0.5,1.6,0.8
		c0.7,0.4,1.4,0.7,2.2,1c0.4,0.3,0.8,0.4,1.3,0.3c-0.4-0.3-0.9-0.5-1.3-0.7c-0.7-0.3-1.3-0.6-2-0.9c-0.2-0.2-0.5-0.3-0.8-0.4
		c-0.3-0.1-0.6-0.2-0.9-0.4C491.4,1566.4,491.1,1566.4,490.9,1566.4L490.9,1566.4z M483.5,1533.1c-0.1-0.1-0.2-0.2-0.3-0.2
		c-0.4-0.2-0.9-0.4-1.4-0.5c-0.4-0.2-0.9-0.3-1.3-0.4c-0.5-0.1-0.9-0.4-1.3-0.5c-0.6-0.2-1.2-0.3-1.8-0.4c-0.3,0-0.6,0.1-1,0.1
		c0,0-0.1,0-0.1,0c0,0-0.1,0-0.1,0.1c0.4,0,0.8,0.1,1.2,0.2c0.6,0.1,1.2,0.2,1.7,0.4c0.2,0.1,0.5,0.1,0.7,0.2
		c0.2,0.1,0.5,0.1,0.8,0.2c0.6,0.2,1.3,0.5,1.9,0.7C482.8,1533,483.2,1533.1,483.5,1533.1L483.5,1533.1z"/>
	<g id="Group_4415" transform="translate(105 1621.859)">
		<g id="Group_4414" transform="translate(381 250)">
			<g id="Group_4413">
				<g id="Group_4402" transform="translate(0 5.259)">
					<path id="Path_17896" class="st1 dark-color" d="M58-297.6H-2.5c-0.7,0-1.3-0.6-1.3-1.3c0,0,0,0,0,0v-76.3c0-0.7,0.6-1.3,1.3-1.3
						c0,0,0,0,0,0h15.8v2.6H-1.2v73.6h57.8v-73.6H42.2v-2.6H58c0.7,0,1.3,0.6,1.3,1.3c0,0,0,0,0,0v76.3
						C59.3-298.2,58.7-297.6,58-297.6C58-297.6,58-297.6,58-297.6z"/>
				</g>
				<g id="Group_4403" transform="translate(15.776)">
					<path id="Path_17897" class="st1 dark-color" d="M26.4-360.7H-2.5c-0.7,0-1.3-0.6-1.3-1.3c0,0,0,0,0,0v-13.1c0-0.7,0.6-1.3,1.3-1.3
						c0,0,0,0,0,0h28.9c0.7,0,1.3,0.6,1.3,1.3c0,0,0,0,0,0v13.1C27.7-361.3,27.1-360.7,26.4-360.7C26.4-360.7,26.4-360.7,26.4-360.7
						z M-1.2-363.3h26.3v-10.5H-1.2V-363.3z"/>
				</g>
				<g id="Group_4404" transform="translate(7.888 10.518)">
					<path id="Path_17898" class="st1 dark-color" d="M42.2-310.7H-2.5c-0.7,0-1.3-0.6-1.3-1.3c0,0,0,0,0,0v-63.1c0-0.7,0.6-1.3,1.3-1.3
						c0,0,0,0,0,0h3.9v2.6h-2.6v60.5h42.1v-60.5h-2.6v-2.6h3.9c0.7,0,1.3,0.6,1.3,1.3c0,0,0,0,0,0v63.1
						C43.5-311.3,42.9-310.7,42.2-310.7C42.2-310.7,42.2-310.7,42.2-310.7z"/>
				</g>
				<g id="Group_4411" transform="translate(15.776 23.665)">
					<g id="Group_4405" transform="translate(0 9.203)">
						<path id="Path_17899" class="st1 dark-color" d="M-1.2-344.9h-2.6c0-17.7,13.3-31.6,30.2-31.6v2.6C10.7-373.8-1.2-361.4-1.2-344.9z"/>
					</g>
					<g id="Group_4407" transform="translate(21.621 4.165)">
						<g id="Group_4406">
							<path id="Path_17900" class="st1 dark-color" d="M0.6-361.5l-2.2-1.5l4.5-6.8l-6.8-4.5l1.5-2.2l9,6L0.6-361.5z"/>
						</g>
					</g>
					<g id="Group_4408" transform="translate(16.162 27.994)">
						
							<rect id="Rectangle_2221" x="-5.1" y="-371.6" transform="matrix(0.7071 -0.7071 0.7071 0.7071 262.5052 -106.769)" class="st1 dark-color" width="14.9" height="2.6"/>
					</g>
					<g id="Group_4409" transform="translate(16.162 27.994)">
						
							<rect id="Rectangle_2222" x="1.1" y="-377.7" transform="matrix(0.7071 -0.7071 0.7071 0.7071 262.5056 -106.7691)" class="st1 dark-color" width="2.6" height="14.9"/>
					</g>
					<g id="Group_4410">
						<path id="Path_17901" class="st1 dark-color" d="M1.4-365.9c-2.9,0-5.3-2.4-5.3-5.3s2.4-5.3,5.3-5.3c2.9,0,5.3,2.4,5.3,5.3
							C6.7-368.3,4.3-365.9,1.4-365.9z M1.4-373.8c-1.5,0-2.6,1.2-2.6,2.6s1.2,2.6,2.6,2.6s2.6-1.2,2.6-2.6l0,0
							C4.1-372.6,2.9-373.8,1.4-373.8L1.4-373.8z"/>
					</g>
				</g>
				<g id="Group_4412" transform="translate(21.035 5.259)">
					<path id="Path_17902" class="st1 dark-color" d="M15.9-371.2H-2.5c-0.7,0-1.3-0.6-1.3-1.3c0,0,0,0,0,0v-3.9h2.6v2.6h15.8v-2.6h2.6v3.9
						C17.2-371.8,16.6-371.2,15.9-371.2C15.9-371.2,15.9-371.2,15.9-371.2z"/>
				</g>
			</g>
		</g>
	</g>
</g>
</svg>
