<svg version="1.1" id="icons_journey" xmlns="http://www.w3.org/2000/svg" xmlns:xlink="http://www.w3.org/1999/xlink" x="0px" y="0px"
	 viewBox="0 0 137.2 137.5" style="enable-background:new 0 0 137.2 137.5;" xml:space="preserve">
<style type="text/css">
	.st0{fill:#EF5E5E;}
</style>
<g>
	<path class="st0" d="M106.9,28.8h14.5l-6.4-6.4c-25.5-25.5-67-25.6-92.5-0.1C3.2,41.5-2.2,70.8,8.9,95.3L6,96.6
		C-5.7,71,0,40.2,20.2,20C33.5,6.7,51,0,68.6,0c17.6,0,35.2,6.7,48.6,20.1l7.3,7.3V11.3h3.2V32h-20.8V28.8z"/>
	<path class="st0" d="M117,117.5c-26.7,26.7-70.2,26.6-97-0.1l-7.3-7.3v16.2H9.5v-20.8h20.8v3.2H15.8l6.4,6.4
		c25.5,25.5,67,25.6,92.5,0.1C134,96,139.4,66.7,128.2,42.2l2.9-1.3C142.9,66.6,137.2,97.4,117,117.5z"/>
</g>
<g>
	<path class="dark-color" d="M50.2,74.1c2,4.9,3.9,10,3.9,14.6v12h2v-12c0-4.9-2-10.3-4.1-15.4L50.2,74.1z"/>
	<path class="dark-color" d="M97,71.3l-5.9-12.8c-0.1-12-9.9-21.8-22-21.8h-1v2h1c11,0,20,9,20,20c0,0.1,0,0.3,0.1,0.4L95.1,72v0.8h-5c-0.6,0-1,0.4-1,1
		v9c0,2.8-2.2,5-5,5h-6h-3v2h2v11h2v-11h5c3.9,0,7-3.1,7-7v-8h5c0.6,0,1-0.4,1-1v-2C97.1,71.6,97.1,71.5,97,71.3z"/>
	<path class="dark-color" d="M55.1,38.8c7.9,0,14.5,6.2,15,14.1l2-0.1c-0.6-8.9-8-15.9-17-15.9c-9.4,0-17,7.6-17,17c0,9.4,7.6,17,17,17
		c9,0,16.4-7,17-15.9l-2-0.1c-0.5,7.5-6.5,13.5-14,14v-2c6.7-0.5,12-6.1,12-12.9c0-6.7-5.2-12.4-11.9-13l-0.2,2
		c5.7,0.5,10.1,5.3,10.1,11c0,6.1-4.9,11-11,11c-2.7,0-5.1-1-7-2.6l1.4-1.4c1.5,1.2,3.5,2,5.6,2c5,0,9-4,9-9s-4-9-9-9
		c-4.5,0-8.4,3.4-8.9,7.9l2,0.2c0.4-3.2,2.9-5.6,5.9-6v2c-2.3,0.5-4,2.5-4,4.9c0,2.2,1.5,4.2,3.6,4.8l0.6-1.9
		c-1.3-0.4-2.1-1.6-2.1-2.9c0-1.7,1.3-3,3-3s3,1.3,3,3c0,1.3-0.9,2.5-2.2,2.9l0.5,1.9c1.8-0.5,3.2-2,3.5-3.8h2c-0.5,3.4-3.4,6-6.9,6
		c-3.5,0-6.5-2.6-6.9-6.1l-2,0.2c0.2,1.7,0.9,3.2,1.9,4.5l-1.4,1.4c-1.6-1.9-2.6-4.4-2.6-7c0-5.7,4.4-10.5,10.1-11l-0.2-2
		c-6.3,0.5-11.4,5.7-11.9,12h-2C40.7,44.9,47.2,38.8,55.1,38.8z M56.1,48.9v-2c3.1,0.4,5.5,2.9,5.9,5.9h-2
		C59.6,50.8,58,49.3,56.1,48.9z M54.1,66.7v2c-7.5-0.5-13.5-6.5-13.9-13.9h2C42.6,61.1,47.7,66.2,54.1,66.7z"/>
</g>
</svg>
