<svg version="1.1" id="Layer_1_funds" xmlns="http://www.w3.org/2000/svg" xmlns:xlink="http://www.w3.org/1999/xlink" x="0px" y="0px"
	 viewBox="0 0 101.9 91.4" style="enable-background:new 0 0 101.9 91.4;" xml:space="preserve">
<style type="text/css">
	.st0{fill:#F4DB95;}
	.st1{fill:#161616;}
</style>
<path id="scribbles-scribbles-27_3_" class="st0 accent-color yellow-color" d="M60.9,20.5l0.3-0.2c0.1,0,0.2-0.1,0.3-0.2c0.1,0,0.2-0.2,0.2-0.2
	c-0.1-0.3-0.2-0.5,0.3-0.5c0.2,0,0.3-0.3,0.5-0.5c0.2-0.2,0.3-0.1,0.4,0.1c0,0.1,0.1,0.1,0.2,0.1c0-0.1,0-0.1,0-0.2
	c0.1-0.2,0.2-0.4,0.4-0.6c0.7-0.4,1.5-0.7,2.1-1.1c1-0.6,2-1.4,3-2c2.1-1.3,3.9-3,6.1-3.9c0.9-0.4,1.9-0.7,2.8-1
	c1-0.2,1.9-0.2,2.9-0.2c1.6-0.1,3.1,0,4.6,0.4c2,0.5,4,1.3,5.6,2.6c0.7,0.5,1.4,1,2,1.6c0.5,0.4,0.9,0.8,1.2,1.4
	c0.5,0.8,1,1.6,1.7,2.3c2,2.4,3.3,5.2,3.7,8.3c0.3,1.8,0.5,3.7,0.5,5.6c0,2.5-0.4,5-1.3,7.3c-0.4,1.3-1,2.5-1.8,3.5
	c-0.9,1.2-1.6,2.4-2.5,3.6c-1.4,1.9-3.2,3.6-5.2,4.9c-1.5,0.9-3.1,1.7-4.6,2.6c-0.9,0.5-1.7,1.1-2.6,1.6c-1.8,1.2-3.3,2.6-4.7,4.1
	c-3.1,3.2-6.5,6.1-10.1,8.8c-2.2,1.6-4.3,3.3-6.5,4.8c-2.9,2.1-6.4,3.4-10,3.7c-1.9,0.1-3.9-0.1-5.8-0.7c-1.7-0.4-3.5-0.7-5.1-1.2
	c-1.3-0.3-2.6-0.5-3.9-0.6c-0.9-0.1-1.8-0.1-2.7-0.1c-2.3,0.1-4.6,0.5-6.8,1.1c-1.7,0.4-3.4,0.6-5.2,0.9c-0.1,0-0.2-0.1-0.3-0.1
	c0,0-0.1,0-0.1,0c-0.3,0.2-0.8,0.2-1.1,0.1c-0.3-0.1-0.6,0.1-0.9,0c-1.3-0.1-2.6-0.3-3.8-0.6c-1.1-0.3-2.1-0.7-3.1-1.3
	c-1-0.5-2-1.1-2.9-1.8c-0.9-0.7-1.8-1.5-2.7-2.3c-1.7-1.6-3.1-3.4-4-5.5c-1-2.1-1.6-4.4-1.8-6.7C0.1,57.6,0,56.7,0,55.8
	c0-0.5,0.1-1,0.1-1.5c0-0.3,0-0.7,0-1c0.2-1.9,0.7-3.8,1.5-5.5c0.1-0.3,0.2-0.6,0.4-1c0-0.1,0.1-0.2,0.1-0.3c0.5-0.8,1-1.6,1.5-2.4
	c0.1-0.1,0-0.3,0.1-0.4c0.3-0.3,0.6-0.7,0.7-1.1c0.3,0.1,0.2-0.3,0.3-0.3c0.6-0.1,0.4-0.7,0.7-1c0.1-0.1,0.2-0.3,0.3-0.4
	c0.2-0.1,0.1-0.5,0.5-0.2c0.1-0.1,0.2-0.3,0.2-0.4c0.1-0.2,0.2-0.3,0.4-0.5L6.7,40c2.1-2.3,4.6-4.2,7.4-5.7c0-0.1-0.1-0.1-0.1-0.1
	l-4.2,2.7l0,0c0.5-0.4,1.1-0.8,1.7-1.2c2.5-1.7,5.3-2.8,8.3-3.4c2.1-0.4,4.3-0.7,6.4-1.1c1.1-0.2,2.2-0.4,3.3-0.6
	c0.5-0.1,1-0.1,1.5-0.1c0.7-0.1,1.3-0.3,1.9-0.4c0.5-0.2,1.1-0.2,1.6-0.3c0.2,0,0.3,0,0.5-0.1c0.1,0,0.2,0.1,0.4,0.1
	c0.1,0,0.2,0,0.2,0c0.1-0.3,0.3-0.3,0.5-0.3c1-0.2,2-0.5,3-0.8c1.3-0.3,2.5-0.7,3.7-1.1c1.4-0.5,2.8-1,4.1-1.5
	c1.3-0.5,2.6-1.1,3.9-1.6c1.1-0.5,2.1-1,3.2-1.4c0.4-0.2,0.9-0.3,1.3-0.5c0.2-0.1,0.3-0.3,0.5-0.3c0.5-0.1,0.8-0.5,1.3-0.4
	c0.2,0,0.4-0.3,0.6-0.4c0.2-0.1,0.5-0.1,0.7-0.2c0,0,0.1,0,0.1,0c0.2-0.4,0.5-0.4,0.7-0.2c0.2-0.1,0.4-0.3,0.5-0.4
	c0.2-0.1,0.3-0.2,0.5-0.3C60.7,20,60.8,20.2,60.9,20.5c-0.1,0-0.3-0.2-0.3-0.1c-0.2,0.1-0.3,0.3-0.4,0.5c0,0,0,0.1,0,0.1
	c0,0,0.1,0,0.2,0C60.5,20.8,60.7,20.6,60.9,20.5z M42,74.2l-0.8-0.1l0.6,0.5L42,74.2c0.1,0.4,0.3,0.6,0.8,0.4
	C42.6,74.5,42.3,74.3,42,74.2L42,74.2z M16.9,47.5c2-1.4,4-2.8,6-4.1c2.1-1.3,4.2-2.5,6.3-3.8l-0.1-0.1C27.7,39.6,18,45.9,16.9,47.5
	L16.9,47.5z M32.3,40.2c-4.7,2.3-9.1,5.1-13.2,8.3L32.3,40.2z M28.8,48.2c-1.8,0.5-9.2,5.5-10.5,7.6c0.1-0.1,0.2-0.2,0.3-0.2
	c1.6-1.3,3.2-2.6,4.9-3.8c1.5-1.2,3.1-2.2,4.8-3.1C28.5,48.6,28.6,48.5,28.8,48.2L28.8,48.2z M24.9,40.8L24.9,40.8
	c-0.4,0-0.7,0.2-1,0.3c-1.5,0.8-2.9,1.7-4.2,2.7c-0.5,0.4-1.1,0.6-1.6,1c-0.3,0.2-0.8,0.4-0.9,0.7c-0.1,0.2-0.2,0.4-0.4,0.5
	c-0.2,0.1-0.4,0.2-0.6,0.3c-0.2,0.2-0.4,0.4-0.5,0.6c0,0.1-0.1,0.1-0.1,0.2c0.1,0,0.2,0.1,0.2,0c0.2-0.1,0.4-0.3,0.6-0.4
	c1.4-1,2.8-2,4.2-3C21.9,42.8,23.4,41.8,24.9,40.8L24.9,40.8z M54.4,73.3l0.1,0.1c0.4-0.1,0.9-0.2,1.3-0.4c0,0,0.1-0.1,0.1-0.1
	c0.5-0.3,1-0.6,1.5-0.8c0.2-0.1,0.3-0.2,0.5-0.3c0.3-0.2,0.6-0.3,0.9-0.5c0.4-0.2,0.7-0.5,1.1-0.8c0.3-0.2,0.6-0.5,0.9-0.7
	c0.1-0.1,0.3-0.3,0.4-0.4c0,0,0.1-0.1,0.1-0.2c0-0.1-0.1-0.1-0.2-0.1c-0.1,0-0.2,0.1-0.3,0.2c-0.5,0.3-1.1,0.7-1.6,1
	c-0.4,0.2-0.7,0.4-1.1,0.6c-0.5,0.3-1,0.6-1.5,1L54.4,73.3z M58.8,74c6.4-4.1,12.4-8.9,17.8-14.3C71.1,64.9,65.1,69.7,58.8,74z
	 M20.9,50.4L20.9,50.4c0.4-0.1,0.7-0.4,1.1-0.6c2.2-1.4,4.4-2.8,6.6-4.2c0.2-0.2,0.4-0.4,0.6-0.7l-0.1-0.1
	C26.2,46.4,23.5,48.3,20.9,50.4L20.9,50.4z M61.1,51.2c-0.1,0-0.3,0.1-0.4,0.2c-0.6,0.6-1.5,0.8-2,1.5c-0.5,0.5-1.1,1-1.7,1.3
	c-0.1,0.1-0.3,0.1-0.5,0.1c0.2,0.6-0.7,0.2-0.7,0.7c0,0.1-0.5,0.2-0.7,0.4c-0.1,0.1-0.2,0.3-0.3,0.4c0.1,0,0.3,0.1,0.4,0.1
	c0.3-0.1,0.5-0.3,0.8-0.5C57.9,54.2,59.6,52.8,61.1,51.2L61.1,51.2z M17.5,57.7c2.8-2.5,5.9-4.9,9-7C23.1,52.6,20.1,55,17.5,57.7
	L17.5,57.7z M62.3,51.2c0,0-0.1-0.1-0.1-0.1c-0.1,0.1-0.2,0.1-0.3,0.2c-0.4,0.4-0.8,0.8-1.2,1.2c-1.6,1.3-3.2,2.7-4.9,4
	c-0.1,0-0.1,0.1-0.1,0.2c0.1,0,0.2,0,0.2,0c0.6-0.4,1.2-0.8,1.8-1.2c1.2-1,2.3-2.1,3.5-3.1C61.6,52,61.9,51.6,62.3,51.2L62.3,51.2z
	 M88.6,44.2l-6.2,5.2C84.8,48.1,86.9,46.3,88.6,44.2L88.6,44.2z M64.4,51.9c-0.2,0.1-0.4,0.1-0.5,0.2c-1.3,1.2-2.7,2.4-4,3.6
	c-0.6,0.6-1.3,1.1-2,1.6c-0.1,0-0.1,0.1-0.1,0.2c0.1,0,0.2,0,0.2,0c0.1,0,0.2-0.1,0.3-0.2c0.9-0.8,1.9-1.5,2.8-2.3
	c0.5-0.4,1-0.9,1.5-1.3C63.2,53.2,63.8,52.6,64.4,51.9L64.4,51.9z M61.4,49.1l-0.1-0.2c-0.6,0.4-1.1,0.8-1.7,1.2
	c-0.3,0.2-0.5,0.4-0.8,0.5c-0.4,0.2-0.8,0.4-1.1,0.6c-0.6,0.4-1.2,0.9-1.8,1.3c-0.3,0.2-0.7,0.3-1,0.5c-0.1,0-0.1,0.2-0.2,0.3
	c0.1,0,0.1,0.1,0.2,0.1c0.3-0.1,0.5-0.2,0.8-0.3c0.4-0.2,0.8-0.5,1.2-0.8c0.5-0.3,1-0.6,1.5-0.9c0.5-0.3,1-0.7,1.5-1
	C60.3,49.9,60.8,49.5,61.4,49.1L61.4,49.1z M26,55.7c0.1,0,0.3-0.1,0.4-0.2c1.5-0.9,2.9-1.8,4.4-2.7c0.1-0.1,0.1-0.2,0.2-0.3
	c-0.1,0-0.2,0-0.4,0.1C29,53.4,27.5,54.5,26,55.7L26,55.7z M34.1,50.6c-0.1,0.1-0.1,0.1-0.2,0.2c-0.1,0.1-0.1,0.2-0.2,0.3
	c0.1,0,0.3,0,0.4,0c1.2-0.6,2.4-1.2,3.7-1.9c0.1,0,0.1-0.1,0.1-0.2c0-0.1-0.2-0.1-0.2-0.1c-0.3,0.1-0.6,0.3-0.9,0.4
	c-0.3,0.2-0.6,0.4-0.9,0.6C35.3,50.1,34.7,50.4,34.1,50.6L34.1,50.6z M20,58l5.6-4.4C23.6,54.8,21.7,56.3,20,58L20,58z M36.6,72.9
	L36.6,72.9c0.5,0.1,0.9,0.2,1.3,0.3c0.6,0.3,1.2,0.4,1.9,0.5c0,0,0.1,0,0.2-0.1c0-0.1-0.1-0.1-0.1-0.2c-0.9-0.4-1.9-0.9-3-0.7
	C36.8,72.8,36.7,72.8,36.6,72.9L36.6,72.9z M22.8,49.6L22.8,49.6l6-3.7l-0.1-0.2L22.8,49.6z M96.4,30l-0.2,0l-0.1,5.2
	c0.1-0.4,0.2-0.8,0.2-1.2c0-0.1-0.1-0.4,0.2-0.2c0,0,0.1-0.1,0.1-0.1c0-0.1,0-0.1-0.1-0.2c-0.3,0.1-0.2-0.1-0.2-0.3
	C96.4,32.2,96.4,31.1,96.4,30L96.4,30z M56.9,54l-0.1-0.1c-0.1,0.1-0.2,0.1-0.3,0.2c-0.7,0.4-1.4,0.8-2.1,1.2
	c-0.1,0.1-0.3,0.3-0.3,0.3c0.1,0.2,0.3,0.2,0.5,0.1C55.4,55.1,56.1,54.5,56.9,54L56.9,54z M48.5,51.1l0.1,0.1l4.4-2.4
	C51.4,49.6,49.9,50.2,48.5,51.1L48.5,51.1z M22.6,58.4l0.1,0.2l2.7-2l-0.1-0.1L22.6,58.4z M88.2,30.6c0.2-0.2-0.2-0.8,0.4-0.8
	c0-0.1,0-0.1,0-0.2c0,0,0-0.1,0-0.1c0,0,0.1-0.1,0.1-0.1c0,0-0.1-0.1-0.2-0.1c-0.2,0-0.3,0.1-0.4,0.2C87.8,29.9,87.8,30.1,88.2,30.6
	L88.2,30.6z M86.3,30.2c0.7-0.5,1.3-1.2,1.5-2.1L86.3,30.2z M12.1,35.8L12.1,35.8C11,36.6,10,37.4,9,38.2c-0.1,0.1-0.2,0.2-0.2,0.4
	L9,38.3l0,0L12.1,35.8z M63.2,68.3l-0.1-0.2c-0.5,0.3-1,0.5-1.5,0.8c-0.1,0-0.1,0.1-0.1,0.2c0.1,0,0.2,0.1,0.2,0.1
	C62.3,68.9,62.8,68.6,63.2,68.3L63.2,68.3z M32.2,40.8L32.2,40.8l-3.6,2.1l0,0L32.2,40.8z M48.7,49.1L48.7,49.1l-1.9,1l0.1,0.1
	L48.7,49.1z M59.3,22.6c0.3,0.2,0.6,0.2,0.8,0c0.1-0.1,0.1-0.1,0.2-0.1c0.1-0.1,0.2-0.1,0.2-0.2c-0.1,0-0.2-0.1-0.3-0.1
	C59.9,22.3,59.6,22.5,59.3,22.6L59.3,22.6z M85.3,39.4l0.1,0.1l1.5-1.9l-0.1-0.1L85.3,39.4z M63.1,56.6L63.1,56.6l1.3-1.1l-0.1-0.1
	L63.1,56.6z M63.7,67.7L63.7,67.7c0.3-0.1,0.6-0.3,0.9-0.5c0,0,0-0.1,0-0.2c-0.1,0-0.1,0-0.2,0C64.2,67.3,63.9,67.5,63.7,67.7
	L63.7,67.7z M40,53.4L40,53.4l1.2-0.7l-0.1-0.1L40,53.4z M28.4,48l-0.1-0.1l-1.1,0.6c0,0,0.1,0.1,0.1,0.1L28.4,48z M35.6,41.4
	l0.1,0.1l1.3-1l-0.1-0.1L35.6,41.4z M67.4,65.1L67.3,65c-0.2,0.2-0.3,0.3-0.5,0.5c0,0,0,0.1,0,0.2c0,0,0.1,0,0.2,0
	C67.1,65.5,67.2,65.3,67.4,65.1L67.4,65.1z M89.8,36.9l0.1,0.1l0.5-0.9L90.3,36L89.8,36.9z M59.6,43L59.6,43l-1,0.6l0.1,0.1L59.6,43
	z M19.2,43.4L19.2,43.4c0.3-0.1,0.6-0.3,0.9-0.4c0,0,0.1,0,0.1-0.1c0,0,0-0.1,0-0.1c-0.1,0-0.1,0-0.2,0C19.8,43,19.5,43.2,19.2,43.4
	L19.2,43.4z M58.9,57.3L58.9,57.3l-0.8,0.5l0.1,0.1L58.9,57.3z M53.6,53.7l0.1,0.1c0.2-0.1,0.4-0.2,0.6-0.4c0,0,0-0.1,0-0.1
	s-0.1-0.1-0.1-0.1C54,53.5,53.8,53.6,53.6,53.7L53.6,53.7z M86.7,23.6l-0.1-0.1L86.2,24l0.1,0.1L86.7,23.6z"/>
<g id="Group_4319" transform="translate(623.391 -455.775)">
	<g id="Group_4317" transform="translate(267 462)">
		<g id="Group_4316">
			<g id="Group_4304">
				<g id="Group_4303">
					<g id="Group_4302">
						<path id="Path_17865" class="st1 dark-color" d="M-807,53.7h-12.8v-2.9h12.8c8.7,0,15.7-7,15.7-15.7c0-8.1-5.5-14.3-12.8-14.3h-1.4v-1.4
							c0-5.5-3-11.4-11.4-11.4h-2.3l-0.4-0.7c-3.8-6.7-11-10.8-18.7-10.7c-11.8,0-21.4,9.6-21.4,21.4v1.4h-1.4
							c-8.7,0-15.7,7-15.7,15.7c0,8.7,7,15.7,15.7,15.7h12.8v2.9h-12.8c-10.2,0-18.6-8.3-18.6-18.6c0-9.7,7.5-17.8,17.2-18.5
							c0.7-12.8,11.4-22.9,24.2-22.9c8.5-0.2,16.4,4.2,20.8,11.4h0.6c8.2,0,13.7,5,14.2,12.9c8.3,0.7,14.3,7.8,14.3,17.1
							C-788.5,45.4-796.8,53.7-807,53.7z"/>
					</g>
				</g>
			</g>
			<g id="Group_4305" transform="translate(48.661 51.48)">
				<rect id="Rectangle_2172" x="-879.5" y="-6.3" class="st1 dark-color" width="3" height="14"/>
			</g>
			<g id="Group_4306" transform="translate(48.661 45.644)">
				<rect id="Rectangle_2173" x="-879.5" y="-6.5" class="st1 dark-color" width="3" height="3"/>
			</g>
			<g id="Group_4307" transform="translate(48.661 39.808)">
				<rect id="Rectangle_2174" x="-879.5" y="-6.7" class="st1 dark-color" width="3" height="3"/>
			</g>
			<g id="Group_4308" transform="translate(48.661 34.944)">
				<rect id="Rectangle_2175" x="-879.5" y="-5.8" class="st1 dark-color" width="3" height="2"/>
			</g>
			<g id="Group_4309" transform="translate(39.907 34.944)">
				<rect id="Rectangle_2176" x="-879.7" y="-5.8" class="st1 dark-color" width="3" height="13"/>
			</g>
			<g id="Group_4310" transform="translate(39.907 57.316)">
				<rect id="Rectangle_2177" x="-879.7" y="-6.2" class="st1 dark-color" width="3" height="2"/>
			</g>
			<g id="Group_4311" transform="translate(39.907 51.48)">
				<rect id="Rectangle_2178" x="-879.7" y="-6.3" class="st1 dark-color" width="3" height="3"/>
			</g>
			<g id="Group_4312" transform="translate(39.907 62.18)">
				<rect id="Rectangle_2179" x="-879.7" y="-6" class="st1 dark-color" width="3" height="3"/>
			</g>
			<g id="Group_4313" transform="translate(25.695 8.565)">
				<path id="Path_17866" class="st1 dark-color" d="M-877,10.9h-2.9c0-9.1,7.3-17.1,15.7-17.1v2.9C-870.2-3.4-877,2.7-877,10.9z"/>
			</g>
			<g id="Group_4314" transform="translate(34.26 68.521)">
				<path id="Path_17867" class="st1 dark-color" d="M-868.4,16.6c-6.3,0-11.4-5.1-11.4-11.4c0-6.3,5.1-11.4,11.4-11.4
					c6.3,0,11.4,5.1,11.4,11.4l0,0C-857,11.5-862.1,16.6-868.4,16.6z M-868.4-3.4c-4.7,0-8.6,3.8-8.6,8.6s3.8,8.6,8.6,8.6
					c4.7,0,8.6-3.8,8.6-8.6C-859.8,0.5-863.7-3.4-868.4-3.4L-868.4-3.4z"/>
			</g>
			<g id="Group_4315" transform="translate(39.97 74.231)">
				<path id="Path_17868" class="st1 dark-color" d="M-874.1,5.2c-3.2,0-5.7-2.6-5.7-5.7c0-3.2,2.6-5.7,5.7-5.7s5.7,2.6,5.7,5.7
					C-868.4,2.6-871,5.2-874.1,5.2z M-874.1-3.4c-1.6,0-2.9,1.3-2.9,2.9c0,1.6,1.3,2.9,2.9,2.9c1.6,0,2.9-1.3,2.9-2.9l0,0
					C-871.3-2.1-872.5-3.4-874.1-3.4z"/>
			</g>
		</g>
	</g>
</g>
</svg>
