<svg version="1.1" id="Layer_1_consultancy" xmlns="http://www.w3.org/2000/svg" xmlns:xlink="http://www.w3.org/1999/xlink" x="0px" y="0px"
	 viewBox="0 0 112 112" style="enable-background:new 0 0 112 112;" xml:space="preserve">
<style type="text/css">
	.st0{fill:#A8DBD1;}
	.st1{fill:#232829;}
</style>
<path class="st0 accent-color blue-color" d="M41.2,101.7c-1-0.5-1.8-1.1-2.6-1.9c-0.5-0.6-1-1.3-1.8-1.6c-0.2,0-0.3-0.2-0.3-0.5c0-0.2,0-0.3-0.2-0.3
	C36,97.5,36,97.2,36,96.9c0-0.3-0.2-0.3-0.3,0c-0.2-0.2-0.3-0.3-0.5-0.3C33,94.4,30.9,92,29,89.4c-1-1.3-2.2-2.4-3.4-3.7
	c-2.1-2.2-3.7-5-5-7.7c-0.8-1.6-1.6-3.4-2.4-5c-1.8-3.4-3.4-6.7-5.3-10.1c-1.1-2.1-2.2-4.2-3.2-6.4c-1-1.9-1.6-4-2.1-6.1
	C6.8,47,5.8,43.7,5,40.3c-1.6-5.9-2.6-11.8-2.9-17.9c0-3.7,0.1-7.4,0.9-11.2c0.5-2.6,1.3-5.1,2.9-7.4c2.2-3.4,5.4-4.5,9.4-3.5
	c3,0.8,5.6,2.4,7.8,4.3c4.3,3.4,7.4,7.8,9.9,12.8c1.6,3.4,3.2,6.7,4.6,10.2c0.6,1.4,1.6,2.6,2.4,3.7c1.6,2.2,3.2,4.3,5,6.6
	c0.6,1,1.4,1.8,2.2,2.4c0.5,0.3,0.8,1,1.4,1.1c0.3,0.2,0.3,0.5,0.3,0.8s0,0.8,0.6,0.5c0.5-0.3,1.3,0,1.4,0.5
	c0.2,0.3,0.3,0.5,0.6,0.5h0.2c0.2,0.6,0.8,0.6,1.3,1c1,0.6,2.1,1.3,3,2.1c0.6,0.5,1.4,0.8,2.1,1.3c0.3,0.2,0.6,0.5,1.1,0.6
	c0.5,0.2,0.8,0.3,1.3,0.5c1,0.3,1.8,1.1,2.7,1.6c1.1,0.5,2.4,0.8,3.5,1.3c3.2,1.1,6.4,2.1,9.4,3.7c2.6,1.4,4.5,3.5,5.9,6.1
	c0.6,1.3,1.8,2.4,2.7,3.5c1,1.1,2.1,2.2,3.2,3c0.6,0.6,1.6,0.8,2.6,1c2.6,0.8,5.1,1.3,7.4,2.7c1.9,1.1,3.8,2.2,5.6,3.8
	c1.8,1.6,3.4,3.2,4.6,5.3c1.9,3.2,3.4,6.6,3.5,10.4c0.2,4-1,8-3.2,11.2c-2.1,3-5,5.1-8.2,6.7c-1.6,0.8-3.2,1.4-5,1.8
	c-0.6,0.2-1.4,0.2-2.1,0.5c-1.8,0.5-3.5,0.5-5.3,0.3c-1.9,0-3.7-0.3-5.6-0.5c-1.4-0.2-2.7-0.6-4.2-0.6c-0.5,0-1-0.3-1.4-0.5
	c-0.6-0.2-1.1,0-1.8-0.2c-2.1-0.5-4.2-0.8-6.2-1.3c-3.7-0.8-7.4-1.1-10.9-1.6c-1.6-0.2-3.2-0.3-4.8-0.6c-1-0.2-1.8-0.3-2.7-0.5
	c-0.5-0.2-1.1-0.5-1.6-0.6c-0.8-0.3-1.4-0.8-2.2-0.8c-0.5,0-1-0.2-1.1-0.5c-0.3-0.5-1.1-0.5-1.4-0.8L41.2,101.7z M39.2,36.6
	c-0.2-0.6-0.3-1.1-0.8-1.4c-0.2-0.2-0.2-0.3-0.2-0.6S38,34,37.7,33.8s-0.5-0.5-0.5-0.6c0-0.2-0.2-0.3-0.2-0.5c-1-1.3-1.4-2.7-2.2-4
	c-0.3-0.5-0.5-1.1-1-1.6c-0.2-0.2-0.6-0.2-0.5-0.5c0-0.3,0.5,0,0.6-0.3c-0.8-0.2-1.3-0.6-1.6-1.3s-1-1.1-0.3-1.9
	c-0.3,0.5-0.6,0.5-1,0c-0.3-0.5-0.6-1-1-1.4c-0.3-0.3-0.6-0.6-0.8-1.1c-0.2-0.6-1.1-0.8-1-1.6c0-0.2-0.2-0.3-0.5,0
	c-0.2,0.3-0.2,0.8,0.2,1l0,0c0.5,0.2,0.5,1,1,1.1c-0.5,0.5,0.2,0.6,0.3,0.8l0.2,0.2c-0.2,0.5,0.2,0.8-0.2,1.3
	c0.3-0.2,0.5-0.6,0.6-0.3c0.3,0.3-0.3,0.5-0.3,0.8c0.3-0.2,0.6,0.2,0.6,0.5c0.3,1.1,1.3,1.9,1.9,2.9c0.5,0.5,0.8,1.1,1.1,1.6
	c0.5,1,1.3,1.9,1.9,2.9c0.8,1.1,1.6,2.2,2.4,3.2C38,35.3,38.4,36.1,39.2,36.6c0.5,1,0.8,1.1,1.3,1C40,37.3,39.8,36.6,39.2,36.6z
	 M12.5,52.1c0.2,1,0.5,1.8,0.8,2.6c2.7,6.6,6.2,12.6,9.6,18.9C22.7,73.2,12.9,52.9,12.5,52.1L12.5,52.1z M55.3,103.3
	c-3.8-1.4-7.7-3-11.7-4.3C47,101.7,51,103,55.3,103.3L55.3,103.3z M8.8,4.2C8.5,4.2,8.1,4.3,8,4.6c-1.1,1-1.6,2.2-2.1,3.5
	C5.7,8.8,5.7,8.8,6.2,9.3C5.9,7.7,6.4,6.6,7.5,6.7c0-0.3,0-1,0.2-1c0.6,0,0.5-0.5,0.5-0.6C8.3,4.8,8.3,4.5,8.8,4.2z M41.7,46
	c-1.1-1.4-2.2-2.9-3.4-4.3C39.2,43.5,40.1,45.1,41.7,46L41.7,46z M18.7,2.4c1.9,1.3,3.7,2.6,5.4,4C22.5,4.8,20.8,3.5,18.7,2.4
	L18.7,2.4z M20.6,58c-0.3-1.4-1.4-2.6-2.2-3.7C18.9,55.6,19.8,56.8,20.6,58L20.6,58z M5.7,9.1c-0.6,1.3-0.5,1.6,0.6,1.9
	C5.6,10.6,6.4,9.6,5.7,9.1L5.7,9.1z M43.2,100.1L43.2,100.1L40,97.4v0.2C40.9,98.5,42,99.3,43.2,100.1L43.2,100.1z M23.7,64.1
	c-0.5-1-0.6-2.1-1.6-2.9C22.7,62.2,23,63.2,23.7,64.1z M25.1,38.4c0.3,0.8,0.6,1.6,1.4,2.1C26.2,39.7,25.9,38.9,25.1,38.4z M30.5,48
	c0.3,0.5,0.5,1.1,1.3,1.3C31.6,48.8,31.2,48.3,30.5,48L30.5,48z M26.7,39.7c0.5,0.5,0.5,1.3,1.1,1.8C27.6,40.6,27.2,40.1,26.7,39.7
	L26.7,39.7z M27.3,18.7c0.2-0.3,0-0.5,0.3-0.6L27,17.8C26.8,18.2,27.3,18.4,27.3,18.7z M43.8,98.6c-0.2-0.3-0.2-0.6-0.5-0.6
	c-0.2,0-0.2,0.2-0.2,0.3C43.2,98.5,43.5,98.5,43.8,98.6L43.8,98.6z"/>
<g>
	<path class="st1 dark-color" d="M60.3,56.4c0.8,0,1.4-0.6,1.4-1.4V24.3c0-0.8-0.6-1.4-1.4-1.4H15.7c-0.8,0-1.4,0.6-1.4,1.4V55
		c0,0.8,0.6,1.4,1.4,1.4h7v7c0,0.6,0.4,1,0.8,1.3c0.1,0.1,0.3,0.1,0.6,0.1c0.3,0,0.6,0,1-0.3l10.7-8.1H60.3z M34.4,53.9l-8.9,6.7V55
		c0-0.8-0.6-1.4-1.4-1.4h-7V25.7h41.8v27.9H35.2C35,53.6,34.7,53.7,34.4,53.9z"/>
	<rect x="31.1" y="38.3" class="st1" width="2.8" height="2.8"/>
	<rect x="36.6" y="38.3" class="st1" width="2.8" height="2.8"/>
	<rect x="42.2" y="38.3" class="st1" width="2.8" height="2.8"/>
	<path class="st1 dark-color" d="M72.9,63.4V32.7c0-0.8-0.6-1.4-1.4-1.4h-7v2.8h5.6V62h-7c-0.8,0-1.4,0.6-1.4,1.4V69l-8.9-6.7
		C52.5,62.1,52.3,62,52,62H33.9c-0.4,0-0.8,0.1-1.1,0.6c-0.3,0.3-0.3,0.8-0.1,1.3c0.4,1.1,0.8,2.2,1.4,3.5c2.4,5.3,5.4,12.5,5.4,17
		V101h2.8V84.3c0-5-3.1-12.3-5.6-18.1c-0.3-0.4-0.6-1-0.7-1.4h15.6l10.7,8.1c0.4,0.3,1,0.4,1.4,0.1c0.6-0.3,0.8-0.7,0.8-1.3v-7h7
		C72.3,64.8,72.9,64.2,72.9,63.4z"/>
	<path class="st1 dark-color" d="M98,60.2l-8.2-17.8C89.7,25.5,76,12,59.1,12c-6.4,0-12.4,1.8-17.6,5.4l1.5,2.2c4.6-3.3,10.2-5,15.9-5
		c15.3,0,27.9,12.5,27.9,27.9c0,0.1,0,0.4,0.1,0.6l8.2,17.8V62h-7c-0.8,0-1.4,0.6-1.4,1.4v12.5c0,3.9-3.1,7-7,7h-8.4h-4.2v2.8h2.8
		V101h2.8H73V85.8h7c5.4,0,9.8-4.3,9.8-9.8V64.9h7c0.8,0,1.4-0.6,1.4-1.4v-2.8C98.1,60.6,98.1,60.3,98,60.2z"/>
</g>
</svg>
