<svg version="1.1" id="Layer_1_forecast" xmlns="http://www.w3.org/2000/svg" xmlns:xlink="http://www.w3.org/1999/xlink" x="0px" y="0px"
	 viewBox="0 0 108.7 99.4" style="enable-background:new 0 0 108.7 99.4;" xml:space="preserve">
<style type="text/css">
	.st0{fill:#F4DB95;}
	.st1{fill:#161616;}
</style>
<path id="scribbles-scribbles-23" class="st0 accent-color yellow-color" d="M49,99.2c4.8,0,9.7-0.2,14.5-0.6l0,0.1c-1,0.1-2,0.2-3,0.3
	c-3.1,0.3-6.1,0.4-9.2,0.5c-2.3,0-4.5-0.2-6.7-0.6c-2.7-0.5-5.3-0.8-8-1c-5.2-0.5-10.3-1.4-15.3-2.7c-0.4-0.1-0.8-0.2-1.2-0.3
	c-0.8-0.3-1.7-0.7-2.4-1.2c-0.4-0.3-1-0.4-1.4-0.7c-1.2-0.9-2.4-1.7-3.8-2.3c-2.1-1-3.9-2.3-5.5-4c-2.7-3.1-4.8-6.6-6.2-10.4
	c-1.7-5.8-1.1-12,1.7-17.4c0.5-0.8,1.1-1.6,1.8-2.3c0.7-0.9,1.5-1.8,2.3-2.7c1.3-1.1,2.5-2.2,3.9-3.1c1.3-1,2.1-2.6,2.3-4.2
	c0.4-2,0.6-4.1,1.2-6.1c1.6-5.5,5.1-10.2,9.9-13.3c2.5-1.7,5.1-3.1,7.7-4.6c2.4-1.4,4.9-2.7,7.3-4.1c5.4-3.2,11.3-3.3,17.2-2.3
	c2.6,0.5,5.2,1.3,7.7,2.3c2.8,1,5.4,2.2,8,3.6c4.4,2.6,8,6.6,10.1,11.3c1.1,2.3,1.9,4.7,2.5,7.1c0.5,2.4,0.6,4.9,0.2,7.4
	c-0.5,3-1.4,5.9-2,8.9c-0.1,0.6-0.1,1.2-0.1,1.7c0,1.5-0.2,3.1,0,4.6c0.2,1.9,0.5,3.7,0.7,5.5c0.3,2.8,0.2,5.7-0.1,8.5
	c-0.3,2.7-0.8,5.3-1.6,7.9c-0.4,1.5-1.1,3-1.9,4.4c-0.4,0.7-0.6,1.5-1.4,1.9c-1.5,2.4-4,3.5-6.4,4.8c-1,0.5-2.1,1-3.2,1.5
	c-0.9,0.3-1.8,0.5-2.7,0.6c-2.4,0.4-4.8,0.7-7.3,0.8C55.5,99,52.3,99.1,49,99.2z M18.2,73.8c2.5-1.4,4.9-3.1,7.2-4.9
	C22.6,70.1,18.6,72.8,18.2,73.8L18.2,73.8z M27.6,63.9l-0.2-0.2c-1.9,1.3-3.7,2.8-5.5,4.4C24,66.8,25.9,65.4,27.6,63.9L27.6,63.9z
	 M25.3,41.8c1.6-1.8,3.5-3.3,4.9-5.2C28.3,38,26.6,39.8,25.3,41.8L25.3,41.8z M10.7,60c0.9-0.2,3-2.8,3.1-3.8
	C12.7,57.4,11.7,58.6,10.7,60z M46.7,53c-2,0.7-3.7,1.8-5.3,3.2L46.7,53z M73.5,25.8c1,1.2,2.2,2.3,3.6,3.3
	C76,27.8,74.8,26.7,73.5,25.8z M31,31.4c-1.4,1-2.8,1.9-3.7,3.5C28.6,33.7,29.8,32.5,31,31.4z M22.1,66.4c1.5-1,2.8-2.1,4.1-3.3
	C24.7,64,23.4,65.1,22.1,66.4z M40.7,18.4c0.9-0.4,1.8-0.8,2.8-1.1c0.9-0.3,1.9-0.5,2.9-0.8C44.3,16.6,42.3,17.3,40.7,18.4
	L40.7,18.4z M41,28.5c-1.5,0.5-4.3,2.3-4.7,3c0.8-0.5,1.6-1,2.3-1.5C39.4,29.4,40.2,29,41,28.5L41,28.5z M23.9,73.3l0.1,0.1
	c1.1-0.4,2.1-1,3-1.8l-0.1-0.1L23.9,73.3z M55.4,50.1l-3.7,2.2l0.1,0.1C53.1,51.8,54.3,51,55.4,50.1L55.4,50.1z M53.6,54.1
	c1.3-0.4,2.4-1.1,3.4-2.1L53.6,54.1z M24.9,62.5l-0.1-0.1c-0.9,0.6-1.8,1.4-2.5,2.3L24.9,62.5z M18,54.4L16.2,57
	C17,56.3,17.6,55.4,18,54.4L18,54.4z M5,62.8l1.3-2.9C5.6,60.7,5.2,61.7,5,62.8z M57.8,36.4l-0.1-0.2l-2.5,1l0.1,0.1
	C56.2,37.1,57,36.7,57.8,36.4L57.8,36.4z M55.7,56.6c0.7-0.2,1.4-0.6,2-1.1C56.9,55.7,56.2,56.1,55.7,56.6z M6.6,56.5
	c-0.5,0.3-1,0.8-1.2,1.3c0,0.1-0.1,0.2,0,0.3s0.2,0,0.3-0.1C5.9,57.5,6.3,57,6.6,56.5L6.6,56.5z M25.2,32.7c0.6-0.5,1.1-1,1.5-1.6
	C26.1,31.5,25.6,32.1,25.2,32.7z M8,60c-0.6,0.5-1,1.3-1.1,2.1L8,60z M68.6,93.8l-2.3,0.6C67.1,94.3,67.9,94.1,68.6,93.8z
	 M22.3,70.2c0.7-0.3,1.3-0.7,1.9-1.2C23.5,69.3,22.9,69.7,22.3,70.2L22.3,70.2z M82.6,40.2c0,0.4-0.3,0.8,0.2,1.3
	C82.9,41,82.8,40.6,82.6,40.2L82.6,40.2z M48.2,46.7c0.6-0.2,1.1-0.5,1.6-0.9C49.2,46,48.6,46.3,48.2,46.7L48.2,46.7z M49.8,98.7
	L49.8,98.7l1.9,0v0H49.8z"/>
<g id="Group_4352" transform="translate(-463.885 -467.972)">
	<g id="Group_4350" transform="translate(479 467.813)">
		<g id="Group_4349" transform="translate(0 0)">
			<g id="Group_4320" transform="translate(0 26.553)">
				<path id="Path_17869" class="st1 dark-color" d="M7.2,14.7H1.3c-0.8,0-1.5-0.7-1.5-1.5c0,0,0,0,0,0V1.5C-0.2,0.7,0.5,0,1.3,0c0,0,0,0,0,0
					h5.9C8,0,8.6,0.7,8.6,1.5c0,0,0,0,0,0v11.7C8.6,14,8,14.6,7.2,14.7C7.2,14.7,7.2,14.7,7.2,14.7z M2.8,11.7h2.9V2.9H2.8V11.7z"/>
			</g>
			<g id="Group_4321" transform="translate(5.861 23.622)">
				<path id="Path_17870" class="st1 dark-color" d="M33.5,20.5H1.3c-0.8,0-1.5-0.7-1.5-1.5c0,0,0,0,0,0V1.5C-0.2,0.7,0.5,0,1.3,0c0,0,0,0,0,0
					h32.2C34.4,0,35,0.7,35,1.5c0,0,0,0,0,0V19C35,19.9,34.4,20.5,33.5,20.5C33.6,20.5,33.6,20.5,33.5,20.5z M2.8,17.6h29.3V2.9H2.8
					L2.8,17.6z"/>
			</g>
			<g id="Group_4322" transform="translate(38.095 20.692)">
				<path id="Path_17871" class="st1 dark-color" d="M36.5,26.4H1.3c-0.8,0-1.5-0.7-1.5-1.5c0,0,0,0,0,0V1.5C-0.2,0.7,0.5,0,1.3,0c0,0,0,0,0,0
					h35.2c0.8,0,1.5,0.7,1.5,1.5c0,0,0,0,0,0v23.4C37.9,25.7,37.3,26.4,36.5,26.4C36.5,26.4,36.5,26.4,36.5,26.4z M2.8,23.4H35V2.9
					H2.8V23.4z"/>
			</g>
			<g id="Group_4324" transform="translate(73.259 17.762)">
				<g id="Group_4323">
					<path id="Path_17872" class="st1 dark-color" d="M13,32.2H1.3c-0.8,0-1.5-0.7-1.5-1.5c0,0,0,0,0,0V1.5C-0.2,0.7,0.5,0,1.3,0c0,0,0,0,0,0
						H13c0.8,0,1.5,0.7,1.5,1.5c0,0,0,0,0,0v29.3C14.5,31.6,13.9,32.2,13,32.2C13,32.2,13,32.2,13,32.2z M2.8,29.3h8.8V2.9H2.8V29.3
						z"/>
				</g>
			</g>
			<g id="Group_4325" transform="translate(26.373 47.065)">
				<path id="Path_17873" class="st1 dark-color" d="M43.8,5.9H1.3c-0.8,0-1.5-0.7-1.5-1.5V0h2.9v2.9h41V5.9z"/>
			</g>
			<g id="Group_4326" transform="translate(44.972 51.67)">
				<rect id="Rectangle_2180" x="-0.1" y="0.5" class="st1 dark-color" width="4" height="33"/>
			</g>
			<g id="Group_4327" transform="translate(11.482 32.533)">
				<rect id="Rectangle_2181" x="-0.6" y="-0.4" class="st1 dark-color" width="24" height="3"/>
			</g>
			<g id="Group_4328" transform="translate(55.497 32.533)">
				<rect id="Rectangle_2182" x="-0.6" y="-0.4" class="st1 dark-color" width="3" height="3"/>
			</g>
			<g id="Group_4329" transform="translate(61.239 32.533)">
				<rect id="Rectangle_2183" x="-0.4" y="-0.4" class="st1 dark-color" width="3" height="3"/>
			</g>
			<g id="Group_4330" transform="translate(49.756 32.533)">
				<rect id="Rectangle_2184" x="0.1" y="-0.4" class="st1 dark-color" width="3" height="3"/>
			</g>
			<g id="Group_4331" transform="translate(16.117 50.425)">
				<path id="Path_17874" class="st1 dark-color" d="M2.8,34.7h-2.9v-4.4c0-0.4,0.2-0.8,0.4-1L29.6,0l2.1,2.1L2.8,30.9V34.7z"/>
			</g>
			<g id="Group_4332" transform="translate(45.85 50.425)">
				<path id="Path_17875" class="st1 dark-color" d="M31.7,34.7h-2.9v-3.8L-0.1,2.1L1.9,0l29.3,29.3c0.3,0.3,0.4,0.6,0.4,1L31.7,34.7z"/>
			</g>
			<g id="Group_4333" transform="translate(86.446 20.692)">
				<path id="Path_17876" class="st1 dark-color" d="M-0.2,26.4v-2.9c4,0,4.4-2.8,4.4-10.3S3.9,2.9-0.2,2.9V0c7.3,0,7.3,6.7,7.3,13.2
					S7.2,26.4-0.2,26.4z"/>
			</g>
			<g id="Group_4348" transform="translate(8.612)">
				<g id="Group_4334" transform="translate(0 15.31)">
					<rect id="Rectangle_2185" x="0.2" y="-0.2" class="st1 dark-color" width="2" height="6"/>
				</g>
				<g id="Group_4335" transform="translate(5.741 11.482)">
					<rect id="Rectangle_2186" x="-0.5" y="-0.3" class="st1 dark-color" width="3" height="10"/>
				</g>
				<g id="Group_4336" transform="translate(11.482 8.612)">
					<rect id="Rectangle_2187" x="-0.2" y="-0.5" class="st1 dark-color" width="4" height="13"/>
				</g>
				<g id="Group_4337" transform="translate(18.18 5.741)">
					<rect id="Rectangle_2188" x="0.1" y="0.4" class="st1 dark-color" width="3" height="15"/>
				</g>
				<g id="Group_4338" transform="translate(41.145)">
					<rect id="Rectangle_2189" x="0.1" y="0.2" class="st1 dark-color" width="3" height="18"/>
				</g>
				<g id="Group_4339" transform="translate(52.627 5.741)">
					<rect id="Rectangle_2190" x="-0.4" y="0.4" class="st1 dark-color" width="3" height="12"/>
				</g>
				<g id="Group_4340" transform="translate(58.368 8.612)">
					<rect id="Rectangle_2191" x="-0.1" y="-0.5" class="st1 dark-color" width="4" height="10"/>
				</g>
				<g id="Group_4341" transform="translate(65.066 5.741)">
					<rect id="Rectangle_2192" x="0.2" y="0.4" class="st1 dark-color" width="3" height="9"/>
				</g>
				<g id="Group_4342" transform="translate(70.807 2.871)">
					<rect id="Rectangle_2193" x="-0.6" y="0.3" class="st1 dark-color" width="3" height="12"/>
				</g>
				<g id="Group_4343" transform="translate(76.548)">
					<rect id="Rectangle_2194" x="-0.3" y="0.2" class="st1 dark-color" width="3" height="15"/>
				</g>
				<g id="Group_4344" transform="translate(46.886 2.871)">
					<rect id="Rectangle_2195" x="-0.6" y="0.3" class="st1 dark-color" width="3" height="15"/>
				</g>
				<g id="Group_4345" transform="translate(23.921 8.612)">
					<rect id="Rectangle_2196" x="0.3" y="-0.5" class="st1 dark-color" width="2" height="13"/>
				</g>
				<g id="Group_4346" transform="translate(29.662 5.741)">
					<rect id="Rectangle_2197" x="-0.4" y="0.4" class="st1 dark-color" width="3" height="12"/>
				</g>
				<g id="Group_4347" transform="translate(35.404 2.871)">
					<rect id="Rectangle_2198" x="-0.2" y="0.3" class="st1 dark-color" width="3" height="15"/>
				</g>
			</g>
		</g>
	</g>
</g>
</svg>
