<svg version="1.1" id="Layer_1_strategy" xmlns="http://www.w3.org/2000/svg" xmlns:xlink="http://www.w3.org/1999/xlink" x="0px" y="0px"
	 viewBox="0 0 112 112" style="enable-background:new 0 0 112 112;" xml:space="preserve">
<style type="text/css">
	.st0{fill:#A8DBD1;}
	.st1{fill:#232829;}
</style>
<path class="st0 accent-color blue-color" d="M50.6,23.2l0.2,0l0.1-0.1c-0.3-0.2-0.3-0.5-0.5-0.7c-0.1-0.1-0.2,0-0.4,0c0.2-0.2,0.3-0.5,0.7,0.7
	c0.3,0.2,0.4,0.4,0.6,0.6c0.2,0.1,0.4,0.4,0.6,0.6c0.4-0.2,0.6-0.1,0.8,0.5l0.1,0.1c0.4,0.1,0.7,0.3,0.8,0.5
	c0.3,0.2,0.5,0.7,0.7,0.7c0.6,0.1,0.9,0.7,1.4,1.1c0.4,0.1,0.4,0.4,0.6,0.6c0.4,0.5,0.9,0.8,1.3,1.2c1.1,0.9,2.3,2.1,3.3,3.1
	c1.3,1.2,2.7,2.5,4,3.7c1.4,1.3,2.8,2.4,4.3,3.6c1.2,1,2.6,2,3.9,2.9c1,0.7,2,1.5,3.1,2.2c0.4,0.1,0.6,0.1,0.6,0.6l0.2,0
	c0.2,0,0.3-0.1,0.4,0s0.3,0.4,0.5,0.4c0.5,0.2,1.1,0.7,1.7,1c0.7,0.4,1.3,0.9,2,1.3c0.6,0.4,1.1,0.4,1.6,0.8
	c1.2,0.6,2.4,1.4,3.5,2.1c2.2,1.4,4.5,2.5,6.8,4c3.1,2,6,4.5,8.6,7.7c0.6,0.8,1.1,1.4,1.6,2.3l0,0l-4.3-5.2l-0.1,0.1
	c2.9,3,5.1,6.6,7.2,10.3l-0.1-0.4c0.2,0.2,0.4,0.6,0.4,0.8c0.1,0.2,0.2,0.4,0.2,0.6c0.3-0.2,0.3,0.4,0.4,0.5
	c0.2,0.1,0.3,0.5,0.4,0.6c0.2,0.5,0.1,1.2,0.5,1.4c0,0-0.2,0.5,0.2,0.5c-0.1,0.5,0.3,1.1,0.5,1.6c0.2,0.1,0.2,0.4,0.2,0.6
	c0.5,1.2,0.9,2.5,1.4,3.7c0.1,0.2,0.1,0.2,0.1,0.4c0.2,0.5,0.3,0.9,0.3,1.4c0.5,2.5,1,5.1,0.9,7.6c-0.1,0.3-0.2,0.7-0.1,1.2
	c-0.1,0.6,0,1.3,0,1.9c-0.1,1.3-0.2,2.4-0.5,3.6c-0.6,2.9-1.5,5.4-2.8,7.8c-1.3,2.4-3,4-5,5.4c-1,0.7-2,1.3-3.2,1.8
	c-1.1,0.4-2.2,0.9-3.4,1.1c-1.2,0.2-2.4,0.3-3.6,0.3c-1.3-0.2-2.8-0.6-4.2-0.8c-0.3-0.1-0.5-0.4-0.8-0.4c-0.4-0.1-0.9-0.2-1.2-0.6
	c-0.1-0.1-0.1-0.1-0.1-0.1c-0.1-0.1-0.3,0.1-0.4,0c-1.9-1.2-3.7-2.3-5.5-3.3c-2.4-1.5-4.7-3.4-7.2-4.2c-1-0.5-2.1-0.8-3-1.1
	c-1.3-0.4-2.8-0.9-4.2-0.8c-1.9-0.2-3.9-0.4-5.8-0.6c-2.1-0.1-4.3-0.4-6.3-1.4c-4-1.8-7.4-5.1-10.3-8.8c-2.3-2.8-4.2-5.8-6.5-8.7
	c-3.6-4.9-6.8-9.9-9.8-15.2c-1.4-2.4-2.7-5.1-4.6-7.2c-1-1.1-1.8-2.1-2.7-3.1c-1.6-1.8-3.2-3.5-4.7-5.2c-2-2.3-3.6-5.2-5-8.2
	c-0.9-1.8-1.4-3.7-2.3-5.5c-0.7-1.7-1.2-3.5-1.4-5.2c-0.6-3.2-0.7-6.8-0.4-9.8C7,19.3,7.4,16.9,8,14.8c0.8-3.8,2.6-6.8,5-9
	c0.6-0.6,1.5-1.2,2.1-2.3c0.2-0.5,0.8-0.8,1.4-1.2c0.7-0.5,1.6-0.7,2.4-1.3c1.9-1,4.1-1.1,6.4-0.8c1.7,0,3.4,0.6,5,1.3
	c1,0.6,2.1,1,3.1,1.6c1,0.7,2,1.6,2.9,2.5c2.5,2,4.1,4.9,6.2,7.4c0.9,1.2,1.8,2.6,2.9,3.8c0.8,0.9,1.4,1.5,2.2,2.4
	c0.2,0.2,0.3,0.4,0.4,0.8c0.1,0.1,0,0.2,0,0.2c0.1-0.1,0.2,0,0.3-0.1c0.2-0.2,0.3-0.4,0.4,0c0.1,0.2,0.3,0.7,0.5,0.7
	c0.5,0.3,0.4,0.6,0.2,0.8c0,0,0.1,0.1,0.2,0.2c0.1,0.2,0.2,0.3,0.3,0.4c0.1,0.2,0.2,0.3,0.3,0.4C50.2,22.8,50.4,23,50.6,23.2z
	 M62.9,98.4c0.7,0.6,0.7,0.3,0.9-0.1c0,0.2,0,0.4,0.1,0.6l0.7-0.4l-0.8-0.2C63.5,98.4,63.3,98.4,62.9,98.4z M82.1,59.7L82,59.8
	c2,2.3,4.3,4.7,6.3,7.3c2.1,2.5,4,5.1,6.1,7.7C93.2,72.2,83.6,60.4,82.1,59.7z M91.7,75.1c-4.1-5.9-8.5-11.2-13.2-16L91.7,75.1z
	 M81.3,70.8c0.2,0.5,0.3,0.7,0.6,0.9c1.7,1.6,3.3,3.8,4.8,5.8c1.7,2.3,3.2,4.6,4.8,6.9c0.1,0.2,0.2,0.3,0.3,0.4
	C90.6,81.5,83.2,72.1,81.3,70.8L81.3,70.8z M86.5,62.8c1.4,1.9,2.9,3.9,4.3,5.7c1.4,1.6,2.7,3.6,4.1,5.4c0.3,0.2,0.5,0.5,0.7,0.7
	l0.2,0c0-0.3,0-0.3-0.1-0.4c-0.1-0.4-0.3-0.8-0.5-1c-0.1-0.2-0.4-0.4-0.6-0.6c-0.2-0.2-0.3-0.4-0.4-0.8c-0.1-0.3-0.6-0.8-0.9-1.2
	c-0.6-0.7-1.1-1.3-1.6-1.9c-1.3-1.7-2.6-3.5-4.2-5.1C87.1,63.2,86.9,63.1,86.5,62.8L86.5,62.8L86.5,62.8z M48.4,89.8
	c-0.5-0.5-1-1.1-1.5-1.7c-0.3-0.3-0.8-0.8-1.1-1.2c-0.7-0.8-1.2-1.4-1.7-2c-0.1-0.2-0.2-0.3-0.3-0.4c0,0-0.1-0.1-0.2,0l0,0.2
	c0.2,0.1,0.2,0.4,0.4,0.6c0.3,0.3,0.6,0.8,0.9,1.2c0.4,0.5,0.7,1,1.1,1.5c0.1,0.4,0.6,0.6,0.9,1c0.3,0.2,0.4,0.4,0.6,0.6
	c0.6,0.6,1,1.1,1.5,1.7l0.1,0.1c0.5,0.3,0.9,0.6,1.5,0.9l0,0C49.7,91.4,49.2,90.4,48.4,89.8z M45.7,91.3
	c-6.2-8.1-12.3-16.4-17.5-25.4C33.2,75,39.3,83.3,45.7,91.3L45.7,91.3z M81.3,66l-0.1,0.1c0.1,0.4,0.4,0.9,0.6,1.1
	c2.3,2.9,4.6,5.5,6.7,8.2c0.3,0.3,0.7,0.9,1.1,1.2l0,0C87,73,84.3,69.5,81.3,66z M50.6,68.9c0.3,0.4,0.6,0.6,0.9,1c0,0,0.2,0,0.4,0
	c-0.2-0.3-0.2-0.6-0.3-0.7c-0.2-0.3-0.8-0.6-0.7-0.7c0.1-0.6-0.9-0.5-0.7-1.2c-0.2,0-0.4-0.3-0.5-0.4c-0.7-0.7-1.2-1.5-1.6-2.3
	c-0.5-1.2-1.3-1.6-1.9-2.7c-0.1-0.2-0.2-0.3-0.3-0.4C47.4,64,49.1,66.6,50.6,68.9z M92.4,87.5c-2.5-4.7-5.5-8.6-8.9-12.6
	C86.6,79,89.7,83.1,92.4,87.5L92.4,87.5z M45.6,63.1c1.2,1.7,2.2,3.6,3.4,5.3c0.6,0.6,1.1,1.5,1.7,2.2c0.1,0.1,0.2,0,0.3,0.1
	c-0.1-0.2,0-0.3-0.1-0.4c-1.5-2.3-3.1-4.7-4.7-7.1c-0.4-0.6-0.8-1.3-1.2-1.9c-0.1-0.2-0.2-0.3-0.3-0.4L44.7,61
	C45,61.6,45.4,62.2,45.6,63.1z M23.2,50.4l-6.1-9.1C18.7,44.6,20.7,47.9,23.2,50.4z M44.2,64.2c0.5,0.7,1,1.6,1.5,2.3
	c0.9,1.2,1.8,2.7,2.8,4c0.1,0.2,0.2,0.3,0.3,0.4l0.2,0c-0.1-0.2,0-0.3-0.1-0.4c-0.6-0.8-1.3-1.8-1.9-2.8c-1.4-2-2.7-4.1-4-6.2
	c-0.2-0.2-0.4-0.3-0.6-0.5C43,62.1,43.4,63,44.2,64.2z M47.6,60.6c0.5,0.8,1,1.4,1.5,2c0.6,0.6,1,1.1,1.5,1.7
	c0.3,0.4,0.8,0.9,1.2,1.4c0.3,0.3,0.6,0.7,0.9,0.8l0.2,0c-0.1-0.2,0-0.3-0.1-0.4c-0.3-0.4-0.8-0.6-1-1c-0.7-0.7-1.2-1.6-1.8-2.3
	c-0.3-0.3-0.9-0.7-1.1-1.1s-0.6-0.6-0.9-1c-0.7-0.7-1.1-1.5-1.7-2.2L46,58.7C46.5,59.4,47,60,47.6,60.6z M83.4,81.3
	c-1.4-2-3-4-4.8-5.8c-0.1-0.2-0.2-0.3-0.4-0.3c0.1,0.1,0.1,0.4,0.2,0.5c1.5,1.7,3,3.5,4.5,5.2C83.1,81.2,83.3,81.2,83.4,81.3
	L83.4,81.3z M75.3,71.7c-0.7-0.6-1.1-1.2-1.6-2c-0.3-0.4-0.7-0.7-1-1.1c-0.4-0.4-0.7-0.5-1-0.9c-0.1-0.1-0.3,0.1-0.3,0.1
	c0,0.3,0,0.3,0.1,0.4c1.2,1.4,2.5,2.6,3.7,3.9c0.1,0.2,0.2,0.3,0.4,0.3c-0.1-0.1-0.1-0.4-0.2-0.5C75.4,71.8,75.4,71.8,75.3,71.7
	L75.3,71.7z M89.6,86.6c-1.7-2.9-3.5-5.4-5.5-7.8L89.6,86.6L89.6,86.6z M69.6,98.6c-1.2-0.8-2.2-0.5-3.3-0.3
	c-0.1,0.1-0.1,0.1-0.2,0.2l0.2,0.1c0.7,0.2,1.3,0.4,2,0.2c0.5,0,1,0.3,1.5,0.2l0,0C69.7,98.8,69.7,98.8,69.6,98.6z M81.8,67.5
	l-0.2,0.2l6,7.2l0,0L81.8,67.5z M10,24.2c0,0.2,0.1,0.6-0.3,0.3l-0.1,0.1c-0.1,0.1,0,0.2,0,0.2c0.5-0.1,0.3,0.1,0.3,0.1
	c0,0.7,0,1.2,0.1,1.7l0.6-6.6l-0.2,0C10.2,21.4,10.1,22.8,10,24.2z M52.4,69.7c0.2,0.3,0.4,0.3,0.6,0.1c0,0-0.1-0.4-0.2-0.5
	c-0.8-0.9-1.4-1.5-2.2-2.4c-0.1-0.2-0.2-0.3-0.4-0.3l0,0C50.9,67.6,51.8,68.6,52.4,69.7z M55.2,61.6l4.4,4.9l0.1-0.1
	C58.3,64.6,56.7,63.4,55.2,61.6z M84,82.6l-0.1,0.1l2.6,3.7c0.1-0.1,0.1-0.1,0.2-0.2L84,82.6z M19.5,23.1c0-0.2-0.3-0.4-0.4-0.5
	c-0.1-0.1-0.1-0.1-0.2,0l0,0.2c-0.1,0.1-0.1,0.1-0.1,0.1c0.1,0.1,0,0.2,0,0.2c0.7,0.2,0.2,0.6,0.4,1.1
	C19.7,23.7,19.8,23.6,19.5,23.1z M19.9,21.3c-0.1,0.4,0.8,2.7,1.4,3.2L19.9,21.3z M103.9,66.1L103.9,66.1c0.1,0.1,0.1,0.4,0.3,0.5
	c-0.1-0.2-0.1-0.5-0.2-0.6c-0.9-1.5-2-3-3-4.3l0,0L103.9,66.1z M43,83.8l0.2,0l0-0.2c-0.4-0.5-1-1-1.4-1.5l-0.2,0.2
	C42,82.8,42.6,83.4,43,83.8z M82.2,64.1L82.2,64.1l-3.5-4.1l0,0L82.2,64.1z M61.5,65.8l0.1-0.1l-1.9-2l0,0L61.5,65.8z M50.6,25.1
	c-0.1-0.1-0.2,0-0.4,0c0,0,0.1,0.1,0.2,0.2c0.1,0.1,0.1,0.1,0.2,0.2c0.1,0.3,0.6,0.5,0.8,0.4C51.1,25.5,50.8,25.1,50.6,25.1z
	 M19.7,33.5l-0.1,0.1l1.6,3l0,0L19.7,33.5z M41.9,65.4L41.9,65.4l1.3,2l0,0L41.9,65.4z M40.3,80.2C40.4,80.1,40.2,80.1,40.3,80.2
	l-0.1,0.1c0.1,0.4,0.5,0.7,0.9,1l0,0C41,80.9,40.6,80.6,40.3,80.2z M67.5,71.4l-0.1,0.1l1.1,1.5l0.1-0.1L67.5,71.4z M82.9,71.8
	l0.1-0.1l-1.1-1.2l-0.1,0.1L82.9,71.8z M73.5,57.6l-0.1,0.1l1.4,1.8l0.1-0.1L73.5,57.6z M37.9,77.3l0.2,0l0-0.2
	c-0.1-0.1-0.3-0.5-0.5-0.7l-0.2,0C37.6,76.7,37.7,77,37.9,77.3z M16.3,30.3l-0.2,0l0.4,1.3l0.1-0.1L16.3,30.3z M49.5,52.9l0.1-0.1
	l-1-1.1l0,0L49.5,52.9z M91.4,67.4L91.4,67.4c-0.2,0-0.2,0-0.2,0l0.1,0.1c0.4,0.4,0.7,0.5,1,0.9l0,0C92.1,68.2,91.8,67.8,91.4,67.4z
	 M48.4,71.2l0.1-0.1l-0.9-1l0,0L48.4,71.2z M53.8,67.7c-0.2-0.2-0.4-0.5-0.5-0.7l-0.1,0.1l-0.1,0.1c0.2,0.1,0.4,0.4,0.6,0.6
	L53.8,67.7L53.8,67.7z M22.1,16.6l0.2,0l-0.4-0.8l-0.1,0.1L22.1,16.6z"/>
<g>
	<g>
		<g>
			<g>
				<g>
					<path class="st1" d="M64.7,100.9h-2.8V84.3c0-0.8,0.6-1.4,1.4-1.4h8.3c3.9,0,7-3.1,7-7V63.4c0-0.8,0.6-1.4,1.4-1.4h7v-1.1
						l-8.2-17.8c-0.1-0.1-0.1-0.4-0.1-0.6c0-15.3-12.5-27.8-27.8-27.8S23,27.2,23,42.5c0,8.1,2.9,15.2,5.7,21.8
						c2.8,6.7,5.4,12.8,5.4,19.9v16.7h-2.8V84.3c0-6.4-2.5-12.4-5.1-18.8c-2.9-7.1-6-14.3-6-22.9C20.2,25.8,34,12,50.8,12
						s30.5,13.5,30.6,30.3l8.2,17.8c0.1,0.1,0.1,0.4,0.1,0.6v2.8c0,0.8-0.6,1.4-1.4,1.4h-7V76c0,5.4-4.3,9.7-9.7,9.7h-7L64.7,100.9
						L64.7,100.9z"/>
				</g>
				<g>
					<g>
						<rect x="59.1" y="82.9" class="st1 dark-color" width="4.2" height="2.8"/>
					</g>
				</g>
			</g>
			<g>
				<path class="st1 dark-color" d="M55,62.8c-0.3,0-0.6-0.1-0.8-0.3c-0.3-0.3-0.6-0.6-0.6-1c-0.1-1.4-1.3-2.5-2.8-2.5c-1.4,0-2.6,1.1-2.8,2.5
					c0,0.4-0.3,0.7-0.6,1s-0.7,0.3-1.1,0.3c-2.8-0.6-5.4-1.7-7.8-3.2c-0.3-0.3-0.6-0.6-0.6-1s0-0.8,0.3-1.1c0.8-1.1,0.8-2.6-0.1-3.6
					c-1-1-2.6-1.1-3.6-0.1c-0.3,0.3-0.7,0.4-1.1,0.3c-0.4,0-0.7-0.3-1-0.6c-1.5-2.4-2.6-5-3.2-7.8c-0.1-0.4,0-0.8,0.3-1.1
					s0.6-0.6,1-0.6c1.4-0.1,2.5-1.3,2.5-2.8s-1.1-2.6-2.5-2.8c-0.4,0-0.7-0.3-1-0.6c-0.4-0.4-0.4-0.8-0.4-1.1
					c0.6-2.8,1.7-5.4,3.2-7.8c0.3-0.3,0.6-0.6,1-0.6s0.8,0,1.1,0.3c1.1,0.8,2.6,0.8,3.6-0.1c1-1,1.1-2.6,0.1-3.6
					c-0.3-0.3-0.4-0.7-0.3-1.1c0-0.4,0.3-0.7,0.6-1c2.4-1.5,5-2.6,7.8-3.2c0.4-0.1,0.8,0,1.1,0.3s0.6,0.6,0.6,1
					c0.1,1.4,1.3,2.5,2.8,2.5c1.4,0,2.6-1.1,2.8-2.5c0-0.4,0.3-0.7,0.6-1s0.7-0.3,1.1-0.3c2.8,0.6,5.4,1.7,7.8,3.2l-1.5,2.4
					c-1.7-1.1-3.6-1.9-5.6-2.5c-0.8,2.1-2.8,3.5-5.1,3.5s-4.3-1.4-5.1-3.5c-1.5,0.4-3.1,1.1-4.5,1.8c0.8,2.1,0.4,4.5-1.1,6.1
					c-1.7,1.7-4,2.1-6.1,1.1c-0.8,1.4-1.4,2.9-1.8,4.5c2.1,0.8,3.5,2.8,3.5,5.1c0,2.4-1.4,4.3-3.5,5.1c0.4,1.5,1.1,3.1,1.8,4.5
					c2.1-0.8,4.5-0.4,6.1,1.1c1.7,1.7,2.1,4,1.1,6.1c1.4,0.8,2.9,1.4,4.5,1.8c0.8-2.1,2.8-3.5,5.1-3.5s4.3,1.4,5.1,3.5
					c1.9-0.6,3.9-1.4,5.6-2.5l1.5,2.4c-2.4,1.5-5,2.6-7.8,3.2C55.1,62.8,55,62.8,55,62.8z M69.2,53.4l-2.4-1.5
					c1.1-1.7,1.9-3.6,2.5-5.6c-2.1-0.8-3.5-2.8-3.5-5.1c0-2.4,1.4-4.3,3.5-5.1c-0.6-1.9-1.4-3.9-2.5-5.6l2.4-1.5
					c1.5,2.4,2.6,5,3.2,7.8c0.1,0.4,0,0.8-0.3,1.1s-0.6,0.6-1,0.6c-1.4,0.1-2.5,1.3-2.5,2.8s1.1,2.6,2.5,2.8c0.4,0,0.7,0.3,1,0.6
					s0.3,0.7,0.3,1.1C71.9,48.4,70.8,51,69.2,53.4z"/>
			</g>
			<g>
				<path class="st1" d="M109.2,60.6h-2.8h-0.1l-55.5-8.3c-6.1,0-11-5-11-11.1S44.7,30,50.8,30l55.5-8.3h0.1h2.8v2.8h-2.6l-55.5,8.3
					H51c-4.6,0-8.3,3.8-8.3,8.3s3.8,8.3,8.3,8.3h0.1l55.5,8.3h2.6C109.2,57.7,109.2,60.6,109.2,60.6z"/>
			</g>
			<g>
				<g>
					<rect x="89.7" y="39.7" class="st1 dark-color" width="2.8" height="2.8"/>
				</g>
				<g>
					<rect x="95.3" y="39.7" class="st1 dark-color" width="2.8" height="2.8"/>
				</g>
				<g>
					<rect x="100.9" y="39.7" class="st1 dark-color" width="2.8" height="2.8"/>
				</g>
			</g>
			<g>
				<path class="st1" d="M50.8,46.7c-3.1,0-5.6-2.5-5.6-5.6s2.5-5.6,5.6-5.6s5.6,2.5,5.6,5.6C56.4,44.2,53.9,46.7,50.8,46.7z
					 M50.8,38.4c-1.5,0-2.8,1.3-2.8,2.8s1.3,2.8,2.8,2.8s2.8-1.3,2.8-2.8S52.3,38.4,50.8,38.4z"/>
			</g>
		</g>
	</g>
</g>
</svg>
